{
.appVersion = "99";
DisplayStrings = (
"/A_l.liga ternative",
rennen,
Mimikro,
"/A_l.liga"
);
copyright = "Im Original ca. 6,5 pt";
date = "2019-04-27 11:12:03 +0000";
familyName = Mimikro;
featurePrefixes = (
{
automatic = 1;
code = "languagesystem DFLT dflt;\012";
name = Languagesystems;
}
);
features = (
{
automatic = 1;
code = "sub P h i p i by P_h_i_p_i.liga;\012sub A l by A_l.liga;\012sub f f by f_f;\012sub n n by n_n.liga;\012sub s s by s_s.liga;\012";
name = liga;
}
);
fontMaster = (
{
ascender = 630;
capHeight = 800;
descender = -550;
horizontalStems = (
150
);
id = "E3FE0EAA-297C-4773-BA15-BC72883F874E";
italicAngle = 8;
userData = {
GSCornerRadius = 28;
GSOffsetHorizontal = -3;
GSOffsetPosition = 0.41;
GSOffsetVertical = -3;
};
verticalStems = (
150
);
xHeight = 450;
}
);
glyphs = (
{
glyphname = A;
lastChange = "2019-04-30 11:37:44 +0000";
layers = (
{
layerId = "E3FE0EAA-297C-4773-BA15-BC72883F874E";
paths = (
{
closed = 1;
nodes = (
"76.145 -12.83 OFFCURVE",
"108.371 15.685 OFFCURVE",
"112.277 53.966 CURVE SMOOTH",
"114.817 79.748 OFFCURVE",
"145.285 134.63 OFFCURVE",
"177.707 192.834 CURVE SMOOTH",
"196.848 227.599 OFFCURVE",
"218.527 266.662 OFFCURVE",
"241.184 310.998 CURVE SMOOTH",
"268.137 363.732 OFFCURVE",
"294.113 416.662 OFFCURVE",
"317.356 464.513 CURVE SMOOTH",
"320.676 471.349 OFFCURVE",
"324.192 478.576 OFFCURVE",
"327.707 485.607 CURVE",
"341.965 405.138 OFFCURVE",
"356.418 310.216 OFFCURVE",
"366.379 245.177 CURVE SMOOTH",
"378.488 166.662 OFFCURVE",
"388.84 99.279 OFFCURVE",
"395.871 65.685 CURVE SMOOTH",
"404.27 25.841 OFFCURVE",
"442.356 0.841 OFFCURVE",
"483.762 8.263 CURVE SMOOTH",
"523.801 16.662 OFFCURVE",
"549.582 55.92 OFFCURVE",
"541.184 96.154 CURVE SMOOTH",
"534.543 128.185 OFFCURVE",
"524.582 192.638 OFFCURVE",
"513.254 267.638 CURVE SMOOTH",
"447.434 696.74 OFFCURVE",
"434.152 751.427 OFFCURVE",
"351.145 751.427 CURVE SMOOTH",
"292.16 751.427 OFFCURVE",
"275.559 717.443 OFFCURVE",
"183.957 529.552 CURVE SMOOTH",
"161.106 482.482 OFFCURVE",
"135.715 430.334 OFFCURVE",
"109.152 378.576 CURVE SMOOTH",
"87.277 335.998 OFFCURVE",
"66.379 298.302 OFFCURVE",
"47.824 264.904 CURVE SMOOTH",
"2.902 183.654 OFFCURVE",
"-29.715 125.06 OFFCURVE",
"-35.379 68.81 CURVE SMOOTH",
"-39.48 27.99 OFFCURVE",
"-9.793 -8.338 OFFCURVE",
"31.027 -12.44 CURVE SMOOTH",
"33.567 -12.635 OFFCURVE",
"36.106 -12.83 OFFCURVE",
"38.449 -12.83 CURVE SMOOTH"
);
},
{
closed = 1;
nodes = (
"195.676 236.584 OFFCURVE",
"205.832 238.537 OFFCURVE",
"215.598 242.834 CURVE SMOOTH",
"278.488 270.763 OFFCURVE",
"513.449 259.24 OFFCURVE",
"574.192 248.107 CURVE",
"604.074 234.63 OFFCURVE",
"640.207 241.662 OFFCURVE",
"662.277 267.834 CURVE SMOOTH",
"684.543 294.396 OFFCURVE",
"685.52 333.263 OFFCURVE",
"664.817 360.802 CURVE SMOOTH",
"615.598 426.623 OFFCURVE",
"233.176 412.755 OFFCURVE",
"155.832 378.771 CURVE SMOOTH",
"118.332 362.17 OFFCURVE",
"101.34 318.42 OFFCURVE",
"117.746 280.92 CURVE SMOOTH",
"130.051 253.185 OFFCURVE",
"157.199 236.584 OFFCURVE",
"185.715 236.584 CURVE SMOOTH"
);
}
);
width = 600;
}
);
unicode = 0041;
},
{
glyphname = B;
lastChange = "2019-04-30 11:37:44 +0000";
layers = (
{
layerId = "E3FE0EAA-297C-4773-BA15-BC72883F874E";
paths = (
{
closed = 1;
nodes = (
"219.805 -12.642 OFFCURVE",
"435.39 -7.14 OFFCURVE",
"535.878 70.898 CURVE SMOOTH",
"582.208 106.836 OFFCURVE",
"594.465 148.828 OFFCURVE",
"596.532 177.734 CURVE SMOOTH",
"600.132 227.344 OFFCURVE",
"583.634 272.461 OFFCURVE",
"548.715 308.398 CURVE SMOOTH",
"510.341 347.852 OFFCURVE",
"451.786 372.461 OFFCURVE",
"390.525 387.5 CURVE",
"465.788 436.133 OFFCURVE",
"529.228 501.172 OFFCURVE",
"530.653 582.812 CURVE SMOOTH",
"531.689 642.188 OFFCURVE",
"509.007 691.016 OFFCURVE",
"464.957 724.219 CURVE SMOOTH",
"340.711 817.773 OFFCURVE",
"80.186 746.289 OFFCURVE",
"29.334 731.055 CURVE SMOOTH",
"-5.319 720.703 OFFCURVE",
"-25.488 684.18 OFFCURVE",
"-15.736 649.805 CURVE SMOOTH",
"-5.894 615.039 OFFCURVE",
"29.989 595.117 OFFCURVE",
"64.848 606.055 CURVE SMOOTH",
"183.922 641.406 OFFCURVE",
"336.43 656.445 OFFCURVE",
"385.298 619.531 CURVE SMOOTH",
"393.298 613.477 OFFCURVE",
"400.569 604.883 OFFCURVE",
"400.184 582.812 CURVE SMOOTH",
"399.226 527.93 OFFCURVE",
"250.839 446.875 OFFCURVE",
"118.234 408.398 CURVE SMOOTH",
"86.332 399.023 OFFCURVE",
"65.959 367.578 OFFCURVE",
"70.76 334.961 CURVE SMOOTH",
"75.566 302.539 OFFCURVE",
"103.49 279.883 OFFCURVE",
"137.094 280.469 CURVE SMOOTH",
"217.328 283.789 OFFCURVE",
"399.465 273.047 OFFCURVE",
"454.339 216.602 CURVE SMOOTH",
"463.836 206.836 OFFCURVE",
"467.289 197.656 OFFCURVE",
"457.003 173.438 CURVE",
"403.247 131.641 OFFCURVE",
"235.032 117.578 OFFCURVE",
"97.491 143.164 CURVE SMOOTH",
"62.359 150.195 OFFCURVE",
"27.67 126.562 OFFCURVE",
"20.506 91.016 CURVE SMOOTH",
"13.346 55.664 OFFCURVE",
"36.089 21.484 OFFCURVE",
"71.426 15.039 CURVE SMOOTH"
);
},
{
closed = 1;
nodes = (
"79.727 31.836 OFFCURVE",
"107.651 53.906 OFFCURVE",
"113.868 85.547 CURVE SMOOTH",
"122.879 131.836 OFFCURVE",
"201.408 541.016 OFFCURVE",
"160.998 682.031 CURVE SMOOTH",
"151.247 716.406 OFFCURVE",
"114.852 734.961 OFFCURVE",
"80.411 725.586 CURVE SMOOTH",
"45.754 715.039 OFFCURVE",
"25.585 678.516 OFFCURVE",
"35.532 644.141 CURVE SMOOTH",
"59.558 560.352 OFFCURVE",
"17.79 271.094 OFFCURVE",
"-14.246 108.594 CURVE SMOOTH",
"-21.214 73.047 OFFCURVE",
"1.829 39.258 OFFCURVE",
"37.166 32.812 CURVE SMOOTH",
"41.062 32.227 OFFCURVE",
"44.961 31.836 OFFCURVE",
"48.77 31.836 CURVE SMOOTH"
);
}
);
width = 570;
}
);
unicode = 0042;
},
{
glyphname = C;
lastChange = "2019-04-30 11:37:44 +0000";
layers = (
{
layerId = "E3FE0EAA-297C-4773-BA15-BC72883F874E";
paths = (
{
closed = 1;
nodes = (
"380.776 0 OFFCURVE",
"539.174 81.25 OFFCURVE",
"591.713 120.508 CURVE SMOOTH",
"621.792 142.969 OFFCURVE",
"627.846 185.547 OFFCURVE",
"605.385 215.527 CURVE SMOOTH",
"583.12 245.605 OFFCURVE",
"540.346 251.465 OFFCURVE",
"510.463 229.297 CURVE SMOOTH",
"468.276 197.656 OFFCURVE",
"337.612 135.742 OFFCURVE",
"227.065 135.742 CURVE SMOOTH",
"194.057 135.742 OFFCURVE",
"164.76 148.73 OFFCURVE",
"144.643 172.363 CURVE SMOOTH",
"119.643 201.66 OFFCURVE",
"110.659 244.043 OFFCURVE",
"118.667 295.02 CURVE SMOOTH",
"129.995 366.406 OFFCURVE",
"217.299 472.07 OFFCURVE",
"301.87 516.797 CURVE SMOOTH",
"339.174 536.426 OFFCURVE",
"357.924 534.57 OFFCURVE",
"360.659 533.398 CURVE SMOOTH",
"394.057 517.969 OFFCURVE",
"435.659 528.809 OFFCURVE",
"452.651 560.352 CURVE SMOOTH",
"469.838 591.895 OFFCURVE",
"463.002 629.492 OFFCURVE",
"432.534 648.535 CURVE SMOOTH",
"399.721 669.043 OFFCURVE",
"342.69 684.961 OFFCURVE",
"257.729 646.191 CURVE SMOOTH",
"142.885 593.945 OFFCURVE",
"5.776 448.926 OFFCURVE",
"-15.318 316.309 CURVE SMOOTH",
"-29.576 226.172 OFFCURVE",
"-9.458 143.75 OFFCURVE",
"41.323 84.18 CURVE SMOOTH",
"87.026 30.664 OFFCURVE",
"154.799 0 OFFCURVE",
"227.065 0 CURVE SMOOTH"
);
}
);
width = 480;
}
);
unicode = 0043;
},
{
glyphname = D;
lastChange = "2019-04-30 11:37:44 +0000";
layers = (
{
layerId = "E3FE0EAA-297C-4773-BA15-BC72883F874E";
paths = (
{
closed = 1;
nodes = (
"276.334 -22.479 OFFCURVE",
"370.492 12.454 OFFCURVE",
"440.778 78.11 CURVE SMOOTH",
"517.564 149.837 OFFCURVE",
"557.914 252.925 OFFCURVE",
"553.953 368.928 CURVE SMOOTH",
"550.58 467.722 OFFCURVE",
"500.708 558.267 OFFCURVE",
"412.431 623.827 CURVE SMOOTH",
"311.418 698.845 OFFCURVE",
"171.91 733.28 OFFCURVE",
"72.512 708.371 CURVE SMOOTH",
"33.356 698.558 OFFCURVE",
"7.689 659.64 OFFCURVE",
"15.241 620.987 CURVE SMOOTH",
"22.813 582.236 OFFCURVE",
"60.953 558.68 OFFCURVE",
"99.406 568.872 CURVE SMOOTH",
"149.486 582.147 OFFCURVE",
"249.578 560.723 OFFCURVE",
"322.366 506.669 CURVE SMOOTH",
"360.371 478.446 OFFCURVE",
"407.47 428.443 OFFCURVE",
"409.972 355.878 CURVE SMOOTH",
"412.474 283.315 OFFCURVE",
"390.334 222.46 OFFCURVE",
"345.464 180.549 CURVE SMOOTH",
"297.419 135.673 OFFCURVE",
"225.785 115.739 OFFCURVE",
"143.446 123.234 CURVE SMOOTH",
"104.476 126.781 OFFCURVE",
"67.111 98.906 OFFCURVE",
"60.709 58.97 CURVE SMOOTH",
"54.383 19.504 OFFCURVE",
"81.261 -15.727 OFFCURVE",
"120.402 -19.714 CURVE SMOOTH",
"138.423 -21.55 OFFCURVE",
"155.405 -22.479 OFFCURVE",
"171.554 -22.479 CURVE SMOOTH"
);
},
{
closed = 1;
nodes = (
"117.704 -23.037 OFFCURVE",
"151.279 7.857 OFFCURVE",
"154.712 46.622 CURVE SMOOTH",
"207.508 642.791 LINE SMOOTH",
"211.022 682.472 OFFCURVE",
"181.9 715.579 OFFCURVE",
"142.357 716.966 CURVE",
"106.851 721.079 OFFCURVE",
"67.338 685.973 OFFCURVE",
"63.929 647.484 CURVE SMOOTH",
"11.134 51.321 LINE SMOOTH",
"7.606 11.482 OFFCURVE",
"36.975 -21.732 OFFCURVE",
"76.761 -22.867 CURVE",
"77.35 -23.037 OFFCURVE",
"77.699 -23.037 OFFCURVE",
"78.984 -23.037 CURVE SMOOTH"
);
}
);
width = 520;
}
);
unicode = 0044;
},
{
glyphname = E;
lastChange = "2019-04-30 11:37:44 +0000";
layers = (
{
layerId = "E3FE0EAA-297C-4773-BA15-BC72883F874E";
paths = (
{
closed = 1;
nodes = (
"198.26 -1.22 OFFCURVE",
"203.149 -1.139 OFFCURVE",
"208.148 -0.977 CURVE SMOOTH",
"267.081 0.928 OFFCURVE",
"344.048 14.196 OFFCURVE",
"450.367 40.775 CURVE SMOOTH",
"484.445 49.295 OFFCURVE",
"507.195 79.874 OFFCURVE",
"507.195 113.479 CURVE SMOOTH",
"507.195 119.501 OFFCURVE",
"506.464 125.62 OFFCURVE",
"504.938 131.726 CURVE SMOOTH",
"496.418 165.805 OFFCURVE",
"465.84 188.554 OFFCURVE",
"432.234 188.554 CURVE SMOOTH",
"426.212 188.554 OFFCURVE",
"420.093 187.824 OFFCURVE",
"413.986 186.297 CURVE SMOOTH",
"324.964 164.041 OFFCURVE",
"258.839 151.947 OFFCURVE",
"211.834 149.323 CURVE SMOOTH",
"166.261 146.777 OFFCURVE",
"151.946 153.866 OFFCURVE",
"149.477 155.359 CURVE",
"148.732 156.95 OFFCURVE",
"146.636 162.665 OFFCURVE",
"146.636 176.587 CURVE SMOOTH",
"146.636 190.703 OFFCURVE",
"148.79 213.255 OFFCURVE",
"156.69 248.5 CURVE SMOOTH",
"171.186 313.182 OFFCURVE",
"199.261 397.799 OFFCURVE",
"234.806 504.929 CURVE SMOOTH",
"251.943 556.58 OFFCURVE",
"271.367 615.123 OFFCURVE",
"291.317 677.823 CURVE SMOOTH",
"293.723 685.386 OFFCURVE",
"294.868 693.048 OFFCURVE",
"294.868 700.582 CURVE SMOOTH",
"294.868 732.37 OFFCURVE",
"274.496 761.88 OFFCURVE",
"242.588 772.032 CURVE SMOOTH",
"235.025 774.439 OFFCURVE",
"227.363 775.584 OFFCURVE",
"219.829 775.584 CURVE SMOOTH",
"188.042 775.584 OFFCURVE",
"158.531 755.211 OFFCURVE",
"148.379 723.303 CURVE SMOOTH",
"128.708 661.483 OFFCURVE",
"109.439 603.406 OFFCURVE",
"92.438 552.165 CURVE SMOOTH",
"53.298 434.202 OFFCURVE",
"22.384 341.027 OFFCURVE",
"7.139 266.475 CURVE SMOOTH",
"1.458 238.696 OFFCURVE",
"-3.388 207.971 OFFCURVE",
"-3.388 177.295 CURVE SMOOTH",
"-3.388 132.838 OFFCURVE",
"6.792 88.486 OFFCURVE",
"39.367 53.357 CURVE SMOOTH",
"59.322 31.837 OFFCURVE",
"85.574 16.513 OFFCURVE",
"117.392 7.809 CURVE SMOOTH",
"139.523 1.754 OFFCURVE",
"164.527 -1.22 OFFCURVE",
"193.482 -1.22 CURVE SMOOTH"
);
},
{
closed = 1;
nodes = (
"525.665 382.656 OFFCURVE",
"558.938 414.497 OFFCURVE",
"560.384 454.98 CURVE SMOOTH",
"561.863 496.375 OFFCURVE",
"529.504 531.13 OFFCURVE",
"488.109 532.609 CURVE SMOOTH",
"134.363 545.243 LINE SMOOTH",
"92.981 546.728 OFFCURVE",
"58.212 514.363 OFFCURVE",
"56.734 472.967 CURVE SMOOTH",
"55.255 431.572 OFFCURVE",
"87.614 396.817 OFFCURVE",
"129.009 395.338 CURVE SMOOTH",
"482.755 382.705 LINE SMOOTH",
"483.668 382.672 OFFCURVE",
"484.575 382.656 OFFCURVE",
"485.481 382.656 CURVE SMOOTH"
);
},
{
closed = 1;
nodes = (
"856.747 590.643 OFFCURVE",
"889.849 621.634 OFFCURVE",
"891.995 661.628 CURVE SMOOTH",
"894.213 702.989 OFFCURVE",
"862.481 738.318 OFFCURVE",
"821.119 740.537 CURVE SMOOTH",
"164.724 775.743 LINE SMOOTH",
"123.353 777.968 OFFCURVE",
"88.033 746.23 OFFCURVE",
"85.815 704.868 CURVE SMOOTH",
"83.596 663.506 OFFCURVE",
"115.328 628.177 OFFCURVE",
"156.69 625.959 CURVE SMOOTH",
"813.086 590.753 LINE SMOOTH",
"814.454 590.679 OFFCURVE",
"815.813 590.643 OFFCURVE",
"817.168 590.643 CURVE SMOOTH"
);
}
);
width = 528.56;
}
);
unicode = 0045;
},
{
glyphname = F;
lastChange = "2019-04-30 11:37:44 +0000";
layers = (
{
layerId = "E3FE0EAA-297C-4773-BA15-BC72883F874E";
paths = (
{
closed = 1;
nodes = (
"144.525 -21.907 OFFCURVE",
"148.647 -21.516 OFFCURVE",
"152.785 -20.833 CURVE SMOOTH",
"190.052 -14.095 OFFCURVE",
"216.312 21.159 OFFCURVE",
"211.604 58.073 CURVE SMOOTH",
"205.413 105.827 OFFCURVE",
"246.021 381.511 OFFCURVE",
"288.809 620.476 CURVE SMOOTH",
"295.537 657.585 OFFCURVE",
"270.949 691.57 OFFCURVE",
"233.988 696.257 CURVE SMOOTH",
"198.028 701.433 OFFCURVE",
"161.671 674.773 OFFCURVE",
"155.128 637.468 CURVE SMOOTH",
"139.957 552.898 OFFCURVE",
"64.871 126.042 OFFCURVE",
"76.742 33.855 CURVE SMOOTH",
"80.97 1.042 OFFCURVE",
"108.392 -21.907 OFFCURVE",
"140.521 -21.907 CURVE SMOOTH"
);
},
{
closed = 1;
nodes = (
"493.598 316.57 OFFCURVE",
"524.819 344.011 OFFCURVE",
"529.132 379.753 CURVE SMOOTH",
"533.728 417.155 OFFCURVE",
"507.203 449.577 OFFCURVE",
"469.934 452.116 CURVE SMOOTH",
"427.123 455.144 OFFCURVE",
"354.092 455.437 OFFCURVE",
"283.702 455.827 CURVE SMOOTH",
"213.405 456.12 OFFCURVE",
"145.822 456.023 OFFCURVE",
"118.75 459.343 CURVE SMOOTH",
"81.86 463.542 OFFCURVE",
"46.505 437.37 OFFCURVE",
"40.157 400.066 CURVE SMOOTH",
"33.717 362.859 OFFCURVE",
"58.51 329.07 OFFCURVE",
"95.481 324.577 CURVE SMOOTH",
"125.175 320.964 OFFCURVE",
"199.07 320.378 OFFCURVE",
"276.008 320.085 CURVE SMOOTH",
"343.083 319.792 OFFCURVE",
"412.696 319.499 OFFCURVE",
"453.471 316.765 CURVE SMOOTH",
"455.126 316.667 OFFCURVE",
"456.683 316.57 OFFCURVE",
"458.246 316.57 CURVE SMOOTH"
);
},
{
closed = 1;
nodes = (
"670.562 561.101 OFFCURVE",
"701.425 587.273 OFFCURVE",
"706.771 622.234 CURVE SMOOTH",
"712.436 659.538 OFFCURVE",
"686.934 692.839 OFFCURVE",
"649.823 696.55 CURVE SMOOTH",
"577.633 703.581 OFFCURVE",
"137.888 716.667 OFFCURVE",
"71.598 707.683 CURVE SMOOTH",
"34.212 702.409 OFFCURVE",
"6.636 668.132 OFFCURVE",
"9.971 631.12 CURVE SMOOTH",
"13.204 594.011 OFFCURVE",
"46.126 568.132 OFFCURVE",
"83.506 573.308 CURVE SMOOTH",
"131.906 580.046 OFFCURVE",
"549.806 569.402 OFFCURVE",
"629.269 561.394 CURVE SMOOTH",
"631.603 561.198 OFFCURVE",
"633.844 561.101 OFFCURVE",
"636.09 561.101 CURVE SMOOTH"
);
}
);
width = 400;
}
);
unicode = 0046;
},
{
glyphname = G;
lastChange = "2019-04-30 13:12:54 +0000";
layers = (
{
layerId = "E3FE0EAA-297C-4773-BA15-BC72883F874E";
paths = (
{
closed = 1;
nodes = (
"688.99 3 OFFCURVE",
"697.584 3.586 OFFCURVE",
"705.982 5.148 CURVE SMOOTH",
"746.705 12.57 OFFCURVE",
"774.439 51.633 OFFCURVE",
"767.017 92.453 CURVE SMOOTH",
"759.693 133.273 OFFCURVE",
"720.826 159.836 OFFCURVE",
"680.494 153 CURVE",
"680.982 153.781 OFFCURVE",
"655.592 156.711 OFFCURVE",
"632.154 178.976 CURVE SMOOTH",
"618.775 191.476 OFFCURVE",
"607.447 207.297 OFFCURVE",
"598.072 225.851 CURVE",
"669.849 285.422 OFFCURVE",
"725.611 348.703 OFFCURVE",
"733.912 392.648 CURVE SMOOTH",
"739.185 420.773 OFFCURVE",
"723.56 460.031 OFFCURVE",
"700.709 477.219 CURVE SMOOTH",
"645.24 518.625 OFFCURVE",
"536.158 492.062 OFFCURVE",
"489.967 468.82 CURVE SMOOTH",
"426.392 436.398 OFFCURVE",
"417.506 390.109 OFFCURVE",
"417.896 365.305 CURVE SMOOTH",
"418.385 335.226 OFFCURVE",
"420.924 307.688 OFFCURVE",
"425.025 282.492 CURVE",
"365.26 241.086 OFFCURVE",
"305.885 207.883 OFFCURVE",
"278.443 206.711 CURVE",
"225.025 210.031 OFFCURVE",
"191.627 221.75 OFFCURVE",
"173.072 244.016 CURVE SMOOTH",
"147.388 274.68 OFFCURVE",
"147.681 329.953 OFFCURVE",
"152.564 370.969 CURVE SMOOTH",
"170.728 525.656 OFFCURVE",
"293.385 618.234 OFFCURVE",
"402.174 653.391 CURVE SMOOTH",
"485.084 680.148 OFFCURVE",
"540.26 668.43 OFFCURVE",
"550.904 658.664 CURVE",
"566.724 620.969 OFFCURVE",
"610.084 603.195 OFFCURVE",
"647.877 617.844 CURVE SMOOTH",
"686.353 633.273 OFFCURVE",
"705.103 677.023 OFFCURVE",
"689.674 715.5 CURVE SMOOTH",
"658.033 794.601 OFFCURVE",
"566.822 832.297 OFFCURVE",
"443.775 816.086 CURVE SMOOTH",
"246.9 790.109 OFFCURVE",
"32.545 634.836 OFFCURVE",
"3.541 388.547 CURVE SMOOTH",
"-8.471 286.203 OFFCURVE",
"9.888 205.344 OFFCURVE",
"58.033 147.726 CURVE SMOOTH",
"126.588 65.695 OFFCURVE",
"234.01 59.25 OFFCURVE",
"269.459 57.101 CURVE SMOOTH",
"315.65 52.805 OFFCURVE",
"396.314 88.351 OFFCURVE",
"475.709 137.57 CURVE",
"498.56 99.094 OFFCURVE",
"523.951 73.117 OFFCURVE",
"543.677 57.101 CURVE SMOOTH",
"586.06 22.141 OFFCURVE",
"635.377 3 OFFCURVE",
"680.201 3 CURVE SMOOTH"
);
}
);
width = 710;
}
);
unicode = 0047;
},
{
glyphname = H;
lastChange = "2019-04-30 11:37:44 +0000";
layers = (
{
layerId = "E3FE0EAA-297C-4773-BA15-BC72883F874E";
paths = (
{
closed = 1;
nodes = (
"101.823 -6.675 OFFCURVE",
"135.046 22.426 OFFCURVE",
"139.341 61.489 CURVE SMOOTH",
"151.295 170.082 OFFCURVE",
"186.574 490.395 OFFCURVE",
"198.917 593.325 CURVE SMOOTH",
"203.836 634.536 OFFCURVE",
"174.497 671.254 OFFCURVE",
"133.36 675.551 CURVE SMOOTH",
"92.689 678.481 OFFCURVE",
"54.883 649.77 OFFCURVE",
"49.965 608.559 CURVE SMOOTH",
"37.614 505.239 OFFCURVE",
"2.127 184.145 OFFCURVE",
"-9.834 75.161 CURVE SMOOTH",
"-14.362 33.95 OFFCURVE",
"15.372 -2.574 OFFCURVE",
"56.517 -6.285 CURVE SMOOTH",
"58.858 -6.48 OFFCURVE",
"61.198 -6.675 OFFCURVE",
"63.542 -6.675 CURVE SMOOTH"
);
},
{
closed = 1;
nodes = (
"525.153 261.293 OFFCURVE",
"557.86 288.832 OFFCURVE",
"563.405 326.723 CURVE SMOOTH",
"569.397 367.934 OFFCURVE",
"540.95 405.434 OFFCURVE",
"499.929 410.707 CURVE SMOOTH",
"421.587 420.668 OFFCURVE",
"143.108 433.95 OFFCURVE",
"131.302 434.536 CURVE",
"95.465 434.731 OFFCURVE",
"54.315 404.653 OFFCURVE",
"51.636 363.051 CURVE SMOOTH",
"48.96 321.645 OFFCURVE",
"80.28 286.489 OFFCURVE",
"121.652 284.536 CURVE",
"124.485 284.536 OFFCURVE",
"405.893 271.254 OFFCURVE",
"478.386 261.879 CURVE SMOOTH",
"481.602 261.489 OFFCURVE",
"484.821 261.293 OFFCURVE",
"487.946 261.293 CURVE SMOOTH"
);
},
{
closed = 1;
nodes = (
"416.439 -2.964 OFFCURVE",
"449.662 26.137 OFFCURVE",
"454.051 65.004 CURVE SMOOTH",
"459.024 109.34 OFFCURVE",
"502.666 500.356 OFFCURVE",
"503.937 573.207 CURVE SMOOTH",
"504.66 614.614 OFFCURVE",
"471.653 648.207 OFFCURVE",
"430.247 648.207 CURVE SMOOTH",
"388.84 648.207 OFFCURVE",
"354.66 614.614 OFFCURVE",
"353.937 573.207 CURVE SMOOTH",
"353.068 523.403 OFFCURVE",
"324.18 250.356 OFFCURVE",
"304.882 79.067 CURVE SMOOTH",
"300.257 37.856 OFFCURVE",
"329.893 1.332 OFFCURVE",
"371.133 -2.574 CURVE SMOOTH",
"373.474 -2.769 OFFCURVE",
"375.912 -2.964 OFFCURVE",
"378.255 -2.964 CURVE SMOOTH"
);
}
);
width = 520;
}
);
unicode = 0048;
},
{
glyphname = I;
lastChange = "2019-04-30 11:37:44 +0000";
layers = (
{
layerId = "E3FE0EAA-297C-4773-BA15-BC72883F874E";
paths = (
{
closed = 1;
nodes = (
"60.743 -37.979 LINE SMOOTH",
"98.319 -37.979 OFFCURVE",
"129.088 -8.185 OFFCURVE",
"130.286 29.361 CURVE SMOOTH",
"137.625 259.319 OFFCURVE",
"225.79 684.081 OFFCURVE",
"226.715 688.336 CURVE SMOOTH",
"234.845 725.739 OFFCURVE",
"210.557 762.821 OFFCURVE",
"172.808 770.652 CURVE SMOOTH",
"134.724 778.552 OFFCURVE",
"98.378 754.719 OFFCURVE",
"90.446 716.646 CURVE SMOOTH",
"86.725 698.785 OFFCURVE",
"-0.788 275.929 OFFCURVE",
"-8.801 33.965 CURVE SMOOTH",
"-10.091 -5.012 OFFCURVE",
"20.732 -37.979 OFFCURVE",
"58.511 -37.979 CURVE SMOOTH"
);
}
);
width = 173.63;
}
);
unicode = 0049;
},
{
glyphname = J;
lastChange = "2019-04-30 11:37:44 +0000";
layers = (
{
layerId = "E3FE0EAA-297C-4773-BA15-BC72883F874E";
paths = (
{
closed = 1;
nodes = (
"243.617 -98.14 OFFCURVE",
"244.52 -98.118 OFFCURVE",
"245.496 -98.093 CURVE SMOOTH",
"246.544 -98.068 OFFCURVE",
"247.674 -98.04 OFFCURVE",
"248.803 -98.042 CURVE SMOOTH",
"303.801 -96.717 OFFCURVE",
"353.21 -74.289 OFFCURVE",
"391.496 -32.385 CURVE SMOOTH",
"513.175 100.773 OFFCURVE",
"501.686 413.484 OFFCURVE",
"479.446 724.433 CURVE SMOOTH",
"476.745 762.085 OFFCURVE",
"443.311 789.857 OFFCURVE",
"404.673 786.508 CURVE SMOOTH",
"366.087 782.407 OFFCURVE",
"336.881 747.783 OFFCURVE",
"339.649 709.328 CURVE SMOOTH",
"351.489 544.973 OFFCURVE",
"379.22 157.867 OFFCURVE",
"289.637 59.796 CURVE SMOOTH",
"278.598 47.809 OFFCURVE",
"267.133 42.282 OFFCURVE",
"250.614 41.959 CURVE",
"180.934 37.243 OFFCURVE",
"106.229 107.377 OFFCURVE",
"101.805 181.817 CURVE SMOOTH",
"99.556 219.377 OFFCURVE",
"67.041 247.041 OFFCURVE",
"27.705 244.798 CURVE",
"-10.862 241.159 OFFCURVE",
"-40.426 206.908 OFFCURVE",
"-38.117 168.35 CURVE SMOOTH",
"-29.412 22.997 OFFCURVE",
"98.259 -98.14 OFFCURVE",
"242.737 -98.14 CURVE SMOOTH"
);
}
);
width = 470;
}
);
unicode = 004A;
},
{
glyphname = K;
lastChange = "2019-04-30 11:37:44 +0000";
layers = (
{
layerId = "E3FE0EAA-297C-4773-BA15-BC72883F874E";
paths = (
{
closed = 1;
nodes = (
"594.82 21.734 LINE SMOOTH",
"631.343 21.734 OFFCURVE",
"662.935 50.641 OFFCURVE",
"666.025 87.262 CURVE SMOOTH",
"669.356 124.762 OFFCURVE",
"641.705 156.207 OFFCURVE",
"604.272 157.477 CURVE SMOOTH",
"393.708 164.606 OFFCURVE",
"205.447 220.953 OFFCURVE",
"204.748 259.82 CURVE",
"205.476 266.266 OFFCURVE",
"219.059 294.391 OFFCURVE",
"271.078 336.676 CURVE SMOOTH",
"368.194 415.875 OFFCURVE",
"504.497 471.344 OFFCURVE",
"555.521 464.801 CURVE SMOOTH",
"591.023 460.211 OFFCURVE",
"627.236 487.848 OFFCURVE",
"633.476 524.957 CURVE SMOOTH",
"639.336 562.262 OFFCURVE",
"614.137 595.758 OFFCURVE",
"577.042 599.762 CURVE SMOOTH",
"464.76 611.383 OFFCURVE",
"267.052 513.434 OFFCURVE",
"161.815 417.145 CURVE SMOOTH",
"99.232 359.625 OFFCURVE",
"67.787 303.668 OFFCURVE",
"68.726 250.738 CURVE SMOOTH",
"72.335 54.84 OFFCURVE",
"470.626 25.934 OFFCURVE",
"592.476 21.734 CURVE SMOOTH"
);
},
{
closed = 1;
nodes = (
"104.11 -6 OFFCURVE",
"135.686 22.613 OFFCURVE",
"138.961 59.039 CURVE SMOOTH",
"140.268 72.809 OFFCURVE",
"170.357 397.516 OFFCURVE",
"163.895 538.922 CURVE SMOOTH",
"162.132 576.129 OFFCURVE",
"130.495 602.301 OFFCURVE",
"92.867 599.859 CURVE SMOOTH",
"55.368 596.148 OFFCURVE",
"26.286 562.945 OFFCURVE",
"28.043 525.641 CURVE SMOOTH",
"34.21 393.512 OFFCURVE",
"3.879 67.926 OFFCURVE",
"3.711 64.703 CURVE",
"0.184 27.203 OFFCURVE",
"27.629 -4.438 OFFCURVE",
"65.047 -5.902 CURVE",
"66.024 -6 OFFCURVE",
"66.805 -6 OFFCURVE",
"67.782 -6 CURVE SMOOTH"
);
}
);
width = 580;
}
);
unicode = 004B;
},
{
glyphname = L;
lastChange = "2019-05-07 08:26:18 +0000";
layers = (
{
layerId = "E3FE0EAA-297C-4773-BA15-BC72883F874E";
paths = (
{
closed = 1;
nodes = (
"172.905 -36.095 OFFCURVE",
"241.118 -25.403 OFFCURVE",
"337.659 -10.336 CURVE SMOOTH",
"412.639 1.2 OFFCURVE",
"492.581 13.901 OFFCURVE",
"556.196 18.017 CURVE SMOOTH",
"594.651 20.547 OFFCURVE",
"623.015 53.586 OFFCURVE",
"620.53 91.354 CURVE SMOOTH",
"617.995 127.484 OFFCURVE",
"587.668 154.434 OFFCURVE",
"546.426 155.684 CURVE",
"480.208 151.257 OFFCURVE",
"396.119 138.291 OFFCURVE",
"316.506 125.828 CURVE SMOOTH",
"262.825 117.385 OFFCURVE",
"194.522 106.941 OFFCURVE",
"150.695 103.023 CURVE",
"156.883 145.506 OFFCURVE",
"169.194 208.951 OFFCURVE",
"179.07 259.341 CURVE SMOOTH",
"200.09 366.485 OFFCURVE",
"223.798 487.246 OFFCURVE",
"229.345 577.119 CURVE SMOOTH",
"231.71 615.628 OFFCURVE",
"202.572 647.985 OFFCURVE",
"164.854 650.301 CURVE SMOOTH",
"122.414 651.578 OFFCURVE",
"94.154 626.084 OFFCURVE",
"91.669 585.806 CURVE SMOOTH",
"86.614 504.921 OFFCURVE",
"63.82 388.334 OFFCURVE",
"43.73 285.839 CURVE SMOOTH",
"5.992 92.687 OFFCURVE",
"-2.214 43.457 OFFCURVE",
"24.125 3.863 CURVE SMOOTH",
"43.415 -24.733 OFFCURVE",
"72.32 -36.095 OFFCURVE",
"123.491 -36.095 CURVE SMOOTH"
);
}
);
width = 550;
}
);
unicode = 004C;
},
{
glyphname = M;
lastChange = "2019-04-30 11:37:44 +0000";
layers = (
{
layerId = "E3FE0EAA-297C-4773-BA15-BC72883F874E";
paths = (
{
closed = 1;
nodes = (
"80.375 0 OFFCURVE",
"87.567 0.977 OFFCURVE",
"94.621 3.125 CURVE SMOOTH",
"131.167 13.672 OFFCURVE",
"151.044 54.101 OFFCURVE",
"140.653 91.601 CURVE SMOOTH",
"132.62 120.312 OFFCURVE",
"167.916 225.391 OFFCURVE",
"186.837 282.031 CURVE SMOOTH",
"192.417 298.437 OFFCURVE",
"197.717 314.453 OFFCURVE",
"202.738 330.078 CURVE",
"254.651 289.258 OFFCURVE",
"320.461 258.789 OFFCURVE",
"397.414 258.789 CURVE SMOOTH",
"488.528 258.789 OFFCURVE",
"564.017 286.719 OFFCURVE",
"624.616 324.414 CURVE",
"585.103 77.148 OFFCURVE",
"631.05 42.187 OFFCURVE",
"655.93 23.242 CURVE SMOOTH",
"688.144 -1.562 OFFCURVE",
"733.057 4.297 OFFCURVE",
"756.184 35.547 CURVE SMOOTH",
"775.583 61.719 OFFCURVE",
"773.84 97.656 OFFCURVE",
"753.82 122.851 CURVE",
"743.156 176.562 OFFCURVE",
"777.344 377.734 OFFCURVE",
"817.772 540.039 CURVE SMOOTH",
"826.512 575 OFFCURVE",
"807.248 612.109 OFFCURVE",
"772.975 625.976 CURVE SMOOTH",
"738.611 639.648 OFFCURVE",
"700.312 626.172 OFFCURVE",
"684.054 593.945 CURVE SMOOTH",
"683.048 591.992 OFFCURVE",
"583.816 402.148 OFFCURVE",
"392.41 402.148 CURVE SMOOTH",
"318.972 402.148 OFFCURVE",
"265.019 456.641 OFFCURVE",
"235.957 497.461 CURVE",
"234.242 524.219 OFFCURVE",
"226.386 547.851 OFFCURVE",
"209.961 567.969 CURVE SMOOTH",
"188.442 594.141 OFFCURVE",
"139.754 612.5 OFFCURVE",
"109.88 598.242 CURVE SMOOTH",
"80.007 583.984 OFFCURVE",
"64.633 540.43 OFFCURVE",
"73.2 507.617 CURVE SMOOTH",
"76.253 495.703 OFFCURVE",
"82.031 481.25 OFFCURVE",
"90.312 465.039 CURVE",
"83.007 428.125 OFFCURVE",
"63.541 370.312 OFFCURVE",
"50.724 331.836 CURVE SMOOTH",
"12.427 217.578 OFFCURVE",
"-20.562 119.141 OFFCURVE",
"6.089 46.68 CURVE SMOOTH",
"16.877 17.383 OFFCURVE",
"44.046 0 OFFCURVE",
"73.343 0 CURVE SMOOTH"
);
}
);
width = 790;
}
);
unicode = 004D;
},
{
glyphname = N;
lastChange = "2019-04-30 11:37:44 +0000";
layers = (
{
layerId = "E3FE0EAA-297C-4773-BA15-BC72883F874E";
paths = (
{
closed = 1;
nodes = (
"89.755 -3.33 OFFCURVE",
"95.92 -2.656 OFFCURVE",
"101.998 -1.396 CURVE SMOOTH",
"142.403 8.057 OFFCURVE",
"167.523 48.25 OFFCURVE",
"158.168 88.654 CURVE SMOOTH",
"151.265 118.466 OFFCURVE",
"151.124 166.327 OFFCURVE",
"155.237 222.905 CURVE",
"200.901 102.754 OFFCURVE",
"267.694 6.847 OFFCURVE",
"365.043 5.148 CURVE SMOOTH",
"386.426 4.775 OFFCURVE",
"418.178 10.862 OFFCURVE",
"448.319 42.176 CURVE SMOOTH",
"536.347 133.232 OFFCURVE",
"570.744 430.724 OFFCURVE",
"558.413 664.374 CURVE SMOOTH",
"556.203 705.629 OFFCURVE",
"521.729 739.439 OFFCURVE",
"479.561 735.292 CURVE",
"438.207 733.083 OFFCURVE",
"406.436 697.89 OFFCURVE",
"408.643 656.439 CURVE SMOOTH",
"420.584 428.462 OFFCURVE",
"383.256 231.622 OFFCURVE",
"352.414 165.744 CURVE",
"306.758 213.618 OFFCURVE",
"242.633 412.034 OFFCURVE",
"217.689 639.262 CURVE SMOOTH",
"213.636 675.666 OFFCURVE",
"183.851 703.924 OFFCURVE",
"147.259 705.931 CURVE SMOOTH",
"107.048 707.609 OFFCURVE",
"77.905 683.114 OFFCURVE",
"69.955 647.309 CURVE SMOOTH",
"60.104 603.334 OFFCURVE",
"-24.648 213.152 OFFCURVE",
"12.048 54.87 CURVE SMOOTH",
"19.946 20.548 OFFCURVE",
"50.113 -2.638 OFFCURVE",
"83.701 -3.224 CURVE SMOOTH"
);
}
);
width = 540;
}
);
unicode = 004E;
},
{
glyphname = O;
lastChange = "2019-04-30 11:37:44 +0000";
layers = (
{
layerId = "E3FE0EAA-297C-4773-BA15-BC72883F874E";
paths = (
{
closed = 1;
nodes = (
"243.047 -16.673 OFFCURVE",
"245.837 -16.673 OFFCURVE",
"248.535 -16.487 CURVE SMOOTH",
"485.421 -8.023 OFFCURVE",
"645.763 112.605 OFFCURVE",
"700.078 322.892 CURVE SMOOTH",
"731.514 444.636 OFFCURVE",
"721.656 561.917 OFFCURVE",
"672.828 644.692 CURVE SMOOTH",
"644.926 691.939 OFFCURVE",
"606.7 723.003 OFFCURVE",
"562.43 734.35 CURVE SMOOTH",
"541.968 739.465 OFFCURVE",
"520.577 735.28 OFFCURVE",
"504.115 723.933 CURVE",
"474.539 753.231 OFFCURVE",
"430.826 766.251 OFFCURVE",
"381.626 760.392 CURVE SMOOTH",
"232.352 741.79 OFFCURVE",
"22.623 549.733 OFFCURVE",
"-9.464 352.188 CURVE SMOOTH",
"-27.693 239.93 OFFCURVE",
"-3.233 139.019 OFFCURVE",
"59.453 68.056 CURVE SMOOTH",
"107.259 13.926 OFFCURVE",
"172.828 -16.673 OFFCURVE",
"240.35 -16.673 CURVE SMOOTH"
);
},
{
closed = 1;
nodes = (
"215.796 121.72 OFFCURVE",
"187.802 138.461 OFFCURVE",
"166.596 162.549 CURVE SMOOTH",
"132.742 200.868 OFFCURVE",
"120.279 260.113 OFFCURVE",
"131.533 329.309 CURVE SMOOTH",
"148.088 430.871 OFFCURVE",
"235.142 528.9 OFFCURVE",
"314.104 580.983 CURVE SMOOTH",
"360.979 611.861 OFFCURVE",
"391.857 618.557 OFFCURVE",
"404.134 619.022 CURVE",
"421.991 587.866 OFFCURVE",
"460.96 574.473 OFFCURVE",
"494.442 589.075 CURVE SMOOTH",
"501.511 592.144 OFFCURVE",
"507.835 596.236 OFFCURVE",
"513.229 600.979 CURVE",
"517.508 598.933 OFFCURVE",
"522.065 597.166 OFFCURVE",
"526.901 595.957 CURVE SMOOTH",
"530.436 595.027 OFFCURVE",
"539.829 588.889 OFFCURVE",
"549.781 572.054 CURVE SMOOTH",
"572.381 533.83 OFFCURVE",
"587.355 457.657 OFFCURVE",
"561.686 358.606 CURVE SMOOTH",
"522.995 208.588 OFFCURVE",
"418.828 132.601 OFFCURVE",
"243.326 126.277 CURVE"
);
}
);
width = 620;
}
);
unicode = 004F;
},
{
glyphname = P;
lastChange = "2019-04-30 11:37:44 +0000";
layers = (
{
layerId = "E3FE0EAA-297C-4773-BA15-BC72883F874E";
paths = (
{
closed = 1;
nodes = (
"241.246 345.548 OFFCURVE",
"243.856 345.734 OFFCURVE",
"246.56 345.92 CURVE",
"420.977 365.451 OFFCURVE",
"619.828 450.831 OFFCURVE",
"606.293 627.914 CURVE SMOOTH",
"601.19 694.878 OFFCURVE",
"569.524 749.566 OFFCURVE",
"514.621 786.024 CURVE SMOOTH",
"389.282 869.543 OFFCURVE",
"178.358 835.317 OFFCURVE",
"84.419 805.927 CURVE SMOOTH",
"46.43 794.023 OFFCURVE",
"24.286 753.844 OFFCURVE",
"34.88 716.27 CURVE SMOOTH",
"45.466 678.509 OFFCURVE",
"84.943 658.42 OFFCURVE",
"123.007 669.767 CURVE SMOOTH",
"206.326 695.994 OFFCURVE",
"362.336 713.107 OFFCURVE",
"432.686 666.232 CURVE SMOOTH",
"452.321 653.212 OFFCURVE",
"461.967 636.471 OFFCURVE",
"463.82 612.289 CURVE SMOOTH",
"469.857 532.118 OFFCURVE",
"296.77 494.729 OFFCURVE",
"235.71 488.033 CURVE SMOOTH",
"196.306 483.569 OFFCURVE",
"166.891 448.226 OFFCURVE",
"169.892 408.978 CURVE SMOOTH",
"172.712 372.52 OFFCURVE",
"202.648 345.548 OFFCURVE",
"238.548 345.548 CURVE SMOOTH"
);
},
{
closed = 1;
nodes = (
"191.385 -6.387 OFFCURVE",
"222.675 18.725 OFFCURVE",
"229.482 53.881 CURVE SMOOTH",
"252.426 172.929 OFFCURVE",
"313.597 635.726 OFFCURVE",
"301.976 753.1 CURVE SMOOTH",
"298.132 792.162 OFFCURVE",
"263.725 818.948 OFFCURVE",
"223.855 814.484 CURVE SMOOTH",
"184.604 809.09 OFFCURVE",
"155.914 773.189 OFFCURVE",
"159.759 734.127 CURVE SMOOTH",
"168.62 644.283 OFFCURVE",
"115.184 211.247 OFFCURVE",
"89.079 76.203 CURVE SMOOTH",
"81.577 37.14 OFFCURVE",
"106.903 0.682 OFFCURVE",
"145.659 -5.457 CURVE",
"149.446 -6.201 OFFCURVE",
"153.16 -6.387 OFFCURVE",
"156.88 -6.387 CURVE SMOOTH"
);
}
);
width = 570;
}
);
rightKerningGroup = T;
unicode = 0050;
},
{
glyphname = Q;
lastChange = "2019-04-30 11:37:44 +0000";
layers = (
{
layerId = "E3FE0EAA-297C-4773-BA15-BC72883F874E";
paths = (
{
closed = 1;
nodes = (
"280.402 -16.69 OFFCURVE",
"283.131 -16.589 OFFCURVE",
"285.768 -16.491 CURVE SMOOTH",
"527.573 -7.855 OFFCURVE",
"684.745 104.191 OFFCURVE",
"737.589 307.07 CURVE SMOOTH",
"766.932 419.124 OFFCURVE",
"750.714 540.266 OFFCURVE",
"692.429 639.092 CURVE SMOOTH",
"655.206 702.253 OFFCURVE",
"605.084 746.151 OFFCURVE",
"554.196 759.074 CURVE SMOOTH",
"533.041 764.531 OFFCURVE",
"510.986 759.588 OFFCURVE",
"494.247 746.53 CURVE",
"456 778.414 OFFCURVE",
"397.457 782.491 OFFCURVE",
"329.736 758.851 CURVE SMOOTH",
"189.481 710.264 OFFCURVE",
"30.432 560.908 OFFCURVE",
"-0.505 370.656 CURVE SMOOTH",
"-18.574 259.968 OFFCURVE",
"8.057 156.779 OFFCURVE",
"75.193 80.705 CURVE SMOOTH",
"128.861 19.736 OFFCURVE",
"203.928 -16.69 OFFCURVE",
"277.673 -16.69 CURVE SMOOTH"
);
},
{
closed = 1;
nodes = (
"621.424 -78.701 OFFCURVE",
"634.406 -75.038 OFFCURVE",
"646.197 -67.458 CURVE SMOOTH",
"678.325 -46.496 OFFCURVE",
"687.434 -3.312 OFFCURVE",
"666.532 28.829 CURVE SMOOTH",
"597.81 134.243 OFFCURVE",
"518.802 260.957 OFFCURVE",
"502.083 295.087 CURVE",
"499.444 308.245 OFFCURVE",
"493 320.582 OFFCURVE",
"482.868 330.713 CURVE SMOOTH",
"455.552 357.714 OFFCURVE",
"411.425 357.477 OFFCURVE",
"384.468 330.204 CURVE SMOOTH",
"336.886 282.057 OFFCURVE",
"349.476 260.979 OFFCURVE",
"549.947 -47.131 CURVE SMOOTH",
"562.986 -67.05 OFFCURVE",
"585.201 -78.701 OFFCURVE",
"608.337 -78.701 CURVE SMOOTH"
);
},
{
closed = 1;
nodes = (
"247.248 121.925 OFFCURVE",
"206.919 141.588 OFFCURVE",
"179.468 172.675 CURVE SMOOTH",
"140.824 216.527 OFFCURVE",
"125.365 278.741 OFFCURVE",
"136.709 348.346 CURVE SMOOTH",
"151.772 440.449 OFFCURVE",
"215.045 531.82 OFFCURVE",
"306.602 592.342 CURVE SMOOTH",
"357.245 625.847 OFFCURVE",
"394.974 635.068 OFFCURVE",
"410.095 635.068 CURVE SMOOTH",
"410.98 635.066 LINE",
"436.248 617.191 OFFCURVE",
"470.25 618.09 OFFCURVE",
"494.18 636.958 CURVE",
"501.519 631.182 OFFCURVE",
"510.077 626.884 OFFCURVE",
"519.896 624.383 CURVE SMOOTH",
"528.677 622.1 OFFCURVE",
"550.918 605.328 OFFCURVE",
"572.582 568.491 CURVE SMOOTH",
"611.305 502.804 OFFCURVE",
"622.967 418.271 OFFCURVE",
"603.108 342.21 CURVE SMOOTH",
"565.638 198.766 OFFCURVE",
"463.551 129.066 OFFCURVE",
"280.713 122.409 CURVE SMOOTH"
);
}
);
width = 670;
}
);
unicode = 0051;
},
{
glyphname = R;
lastChange = "2019-05-02 12:38:52 +0000";
layers = (
{
layerId = "E3FE0EAA-297C-4773-BA15-BC72883F874E";
paths = (
{
closed = 1;
nodes = (
"625.239 39.925 OFFCURVE",
"653.664 62.721 OFFCURVE",
"660.711 93.878 CURVE SMOOTH",
"668.892 130.03 OFFCURVE",
"646.731 164.656 OFFCURVE",
"611.012 171.571 CURVE SMOOTH",
"438.116 205.136 OFFCURVE",
"332.716 262.656 OFFCURVE",
"289.394 296.737 CURVE",
"301.601 304.206 OFFCURVE",
"315.263 312.289 OFFCURVE",
"326.679 318.998 CURVE SMOOTH",
"430.561 380.376 OFFCURVE",
"570.053 462.926 OFFCURVE",
"564.649 589.213 CURVE SMOOTH",
"561.044 672.709 OFFCURVE",
"503.438 738.625 OFFCURVE",
"406.607 769.748 CURVE SMOOTH",
"291.684 807.014 OFFCURVE",
"121.952 792.212 OFFCURVE",
"46.695 704.657 CURVE SMOOTH",
"22.081 676.34 OFFCURVE",
"24.449 634.574 OFFCURVE",
"51.93 611.284 CURVE SMOOTH",
"78.852 587.701 OFFCURVE",
"121.157 591.655 OFFCURVE",
"145.685 620.039 CURVE SMOOTH",
"170.624 648.651 OFFCURVE",
"274.383 671.045 OFFCURVE",
"361.565 643.299 CURVE SMOOTH",
"405.999 628.784 OFFCURVE",
"430.654 606.398 OFFCURVE",
"431.766 578.465 CURVE SMOOTH",
"433.12 545.95 OFFCURVE",
"375.554 499.57 OFFCURVE",
"262.177 432.775 CURVE SMOOTH",
"188.491 389.07 OFFCURVE",
"141.861 361.527 OFFCURVE",
"136.855 309.558 CURVE SMOOTH",
"125.953 193.82 OFFCURVE",
"355.886 84.728 OFFCURVE",
"580.859 41.136 CURVE SMOOTH",
"585.23 40.256 OFFCURVE",
"589.186 39.925 OFFCURVE",
"593.442 39.925 CURVE SMOOTH"
);
},
{
closed = 1;
nodes = (
"122.241 3.467 OFFCURVE",
"150.854 26.929 OFFCURVE",
"157.424 58.814 CURVE SMOOTH",
"199.372 260.465 OFFCURVE",
"214.682 534.209 OFFCURVE",
"210.938 618.221 CURVE SMOOTH",
"209.166 657.041 OFFCURVE",
"181.149 681.566 OFFCURVE",
"141.542 678.932 CURVE SMOOTH",
"104.936 675.99 OFFCURVE",
"76.369 643.723 OFFCURVE",
"78.04 607.14 CURVE SMOOTH",
"81.229 538.074 OFFCURVE",
"67.782 275.73 OFFCURVE",
"27.436 80.972 CURVE SMOOTH",
"19.793 44.912 OFFCURVE",
"42.728 10.75 OFFCURVE",
"78.739 4.51 CURVE SMOOTH",
"82.617 3.798 OFFCURVE",
"86.257 3.467 OFFCURVE",
"89.937 3.467 CURVE SMOOTH"
);
}
);
width = 550;
}
);
unicode = 0052;
},
{
glyphname = S;
lastChange = "2019-04-30 11:37:44 +0000";
layers = (
{
layerId = "E3FE0EAA-297C-4773-BA15-BC72883F874E";
paths = (
{
closed = 1;
nodes = (
"215.565 -3.271 OFFCURVE",
"224.698 -3.138 OFFCURVE",
"233.788 -2.864 CURVE SMOOTH",
"341.188 0.366 OFFCURVE",
"419.924 21.413 OFFCURVE",
"467.81 59.693 CURVE SMOOTH",
"507.721 91.595 OFFCURVE",
"527.028 135.881 OFFCURVE",
"522.178 184.392 CURVE SMOOTH",
"517.889 227.286 OFFCURVE",
"497.619 266.278 OFFCURVE",
"460.211 303.597 CURVE SMOOTH",
"433.527 330.216 OFFCURVE",
"400.733 353.431 OFFCURVE",
"369.018 375.881 CURVE SMOOTH",
"287.934 433.278 OFFCURVE",
"238.733 472.684 OFFCURVE",
"240.329 534.83 CURVE SMOOTH",
"241.43 555.14 OFFCURVE",
"247.869 575.906 OFFCURVE",
"258.492 593.381 CURVE SMOOTH",
"268.819 610.367 OFFCURVE",
"282.226 623.023 OFFCURVE",
"297.263 629.98 CURVE SMOOTH",
"336.872 648.301 OFFCURVE",
"382.871 623.155 OFFCURVE",
"414.488 598.835 CURVE SMOOTH",
"447.32 573.581 OFFCURVE",
"494.408 579.722 OFFCURVE",
"519.664 612.554 CURVE SMOOTH",
"544.919 645.385 OFFCURVE",
"538.776 692.474 OFFCURVE",
"505.945 717.729 CURVE SMOOTH",
"460.161 752.947 OFFCURVE",
"413.179 774.866 OFFCURVE",
"366.303 782.876 CURVE SMOOTH",
"320.537 790.694 OFFCURVE",
"274.887 784.9 OFFCURVE",
"234.284 766.118 CURVE SMOOTH",
"192.122 746.613 OFFCURVE",
"156.172 713.827 OFFCURVE",
"130.32 671.303 CURVE SMOOTH",
"106.472 632.076 OFFCURVE",
"92.693 587.174 OFFCURVE",
"90.473 541.451 CURVE SMOOTH",
"90.452 541.018 OFFCURVE",
"90.434 540.586 OFFCURVE",
"90.421 540.153 CURVE SMOOTH",
"88.337 473.425 OFFCURVE",
"111.208 411.99 OFFCURVE",
"158.396 357.553 CURVE SMOOTH",
"195.091 315.221 OFFCURVE",
"241.451 282.404 OFFCURVE",
"282.353 253.451 CURVE SMOOTH",
"310.22 233.724 OFFCURVE",
"336.541 215.092 OFFCURVE",
"354.271 197.404 CURVE SMOOTH",
"360.723 190.967 OFFCURVE",
"368.286 182.379 OFFCURVE",
"371.46 174.809 CURVE",
"358.672 166.418 OFFCURVE",
"320.029 151.119 OFFCURVE",
"240.203 147.48 CURVE SMOOTH",
"161.977 143.918 OFFCURVE",
"96.342 153.491 OFFCURVE",
"78.584 159.41 CURVE SMOOTH",
"39.289 172.507 OFFCURVE",
"-3.185 151.271 OFFCURVE",
"-16.284 111.976 CURVE SMOOTH",
"-29.382 72.68 OFFCURVE",
"-8.145 30.206 OFFCURVE",
"31.151 17.108 CURVE SMOOTH",
"69.073 4.467 OFFCURVE",
"137.099 -3.271 OFFCURVE",
"206.456 -3.271 CURVE SMOOTH"
);
}
);
width = 516;
}
);
unicode = 0053;
},
{
glyphname = T;
lastChange = "2019-04-30 11:37:44 +0000";
layers = (
{
layerId = "E3FE0EAA-297C-4773-BA15-BC72883F874E";
paths = (
{
closed = 1;
nodes = (
"300.026 -17.261 OFFCURVE",
"329.044 11.664 OFFCURVE",
"329.044 47.378 CURVE SMOOTH",
"329.044 195.536 OFFCURVE",
"404.565 706.325 OFFCURVE",
"405.309 711.44 CURVE SMOOTH",
"410.517 746.783 OFFCURVE",
"386.15 779.614 OFFCURVE",
"350.808 784.822 CURVE",
"316.023 791.519 OFFCURVE",
"282.541 765.756 OFFCURVE",
"277.333 730.414 CURVE SMOOTH",
"274.171 709.022 OFFCURVE",
"199.58 205.023 OFFCURVE",
"199.58 47.378 CURVE SMOOTH",
"199.58 11.664 OFFCURVE",
"228.598 -17.261 OFFCURVE",
"264.312 -17.261 CURVE SMOOTH"
);
},
{
closed = 1;
nodes = (
"353.598 654.242 OFFCURVE",
"464.461 658.706 OFFCURVE",
"551.328 662.147 CURVE SMOOTH",
"601.366 664.193 OFFCURVE",
"641.73 665.868 OFFCURVE",
"663.866 665.868 CURVE SMOOTH",
"699.58 665.868 OFFCURVE",
"728.598 694.792 OFFCURVE",
"728.598 730.507 CURVE SMOOTH",
"728.598 766.221 OFFCURVE",
"699.58 795.146 OFFCURVE",
"663.866 795.146 CURVE SMOOTH",
"640.614 795.146 OFFCURVE",
"598.575 793.472 OFFCURVE",
"546.12 791.333 CURVE SMOOTH",
"401.217 785.659 OFFCURVE",
"159.401 775.708 OFFCURVE",
"56.537 794.123 CURVE SMOOTH",
"20.45 800.912 OFFCURVE",
"-12.102 776.917 OFFCURVE",
"-18.426 741.853 CURVE SMOOTH",
"-24.751 706.697 OFFCURVE",
"-1.313 673.122 OFFCURVE",
"33.843 666.891 CURVE SMOOTH",
"87.043 657.311 OFFCURVE",
"166.284 654.242 OFFCURVE",
"251.663 654.242 CURVE SMOOTH"
);
}
);
width = 560;
}
);
rightKerningGroup = T;
unicode = 0054;
},
{
glyphname = U;
lastChange = "2019-04-30 11:37:44 +0000";
layers = (
{
layerId = "E3FE0EAA-297C-4773-BA15-BC72883F874E";
paths = (
{
closed = 1;
nodes = (
"347.309 -10.955 OFFCURVE",
"515.473 287.873 OFFCURVE",
"535.59 324.983 CURVE SMOOTH",
"612.348 466.194 OFFCURVE",
"621.82 549.006 OFFCURVE",
"566.254 593.537 CURVE SMOOTH",
"534.516 619.123 OFFCURVE",
"487.641 614.045 OFFCURVE",
"461.957 581.819 CURVE SMOOTH",
"443.988 559.553 OFFCURVE",
"441.156 529.866 OFFCURVE",
"451.996 505.451 CURVE",
"440.375 442.366 OFFCURVE",
"327.094 237.873 OFFCURVE",
"215.668 159.358 CURVE SMOOTH",
"192.133 142.756 OFFCURVE",
"176.996 138.264 OFFCURVE",
"175.531 133.772 CURVE",
"155.316 182.795 OFFCURVE",
"187.641 384.748 OFFCURVE",
"245.844 567.951 CURVE SMOOTH",
"258.246 607.014 OFFCURVE",
"236.664 648.616 OFFCURVE",
"197.602 661.116 CURVE SMOOTH",
"158.441 673.811 OFFCURVE",
"116.742 651.936 OFFCURVE",
"104.438 612.873 CURVE SMOOTH",
"24.262 360.92 OFFCURVE",
"-38.434 49.592 OFFCURVE",
"118.402 -2.752 CURVE SMOOTH",
"135.004 -8.416 OFFCURVE",
"151.606 -10.955 OFFCURVE",
"168.207 -10.955 CURVE SMOOTH"
);
}
);
width = 490;
}
);
unicode = 0055;
},
{
glyphname = V;
lastChange = "2019-04-30 11:37:44 +0000";
layers = (
{
layerId = "E3FE0EAA-297C-4773-BA15-BC72883F874E";
paths = (
{
closed = 1;
nodes = (
"287.88 -31.408 OFFCURVE",
"339.833 64.881 OFFCURVE",
"518.935 410.585 CURVE SMOOTH",
"560.536 490.858 OFFCURVE",
"602.138 571.327 OFFCURVE",
"639.052 638.905 CURVE SMOOTH",
"657.802 673.28 OFFCURVE",
"645.106 716.444 OFFCURVE",
"610.731 735.194 CURVE SMOOTH",
"576.356 753.749 OFFCURVE",
"533.388 740.858 OFFCURVE",
"514.638 706.874 CURVE SMOOTH",
"477.333 638.319 OFFCURVE",
"435.145 557.069 OFFCURVE",
"393.153 475.819 CURVE SMOOTH",
"344.52 382.069 OFFCURVE",
"284.364 265.858 OFFCURVE",
"239.247 186.952 CURVE",
"228.114 232.069 OFFCURVE",
"216.395 284.217 OFFCURVE",
"207.02 326.014 CURVE SMOOTH",
"184.755 425.428 OFFCURVE",
"161.708 528.358 OFFCURVE",
"139.931 589.295 CURVE SMOOTH",
"126.845 626.014 OFFCURVE",
"86.22 645.155 OFFCURVE",
"49.403 632.264 CURVE SMOOTH",
"12.587 618.983 OFFCURVE",
"-6.651 578.553 OFFCURVE",
"6.532 541.639 CURVE SMOOTH",
"25.38 488.905 OFFCURVE",
"47.45 390.272 OFFCURVE",
"68.739 294.96 CURVE SMOOTH",
"125.575 41.249 OFFCURVE",
"139.931 -5.431 OFFCURVE",
"192.274 -24.767 CURVE SMOOTH",
"203.603 -28.869 OFFCURVE",
"213.954 -31.408 OFFCURVE",
"224.11 -31.408 CURVE SMOOTH"
);
}
);
width = 440;
}
);
unicode = 0056;
},
{
glyphname = W;
lastChange = "2019-04-30 11:37:44 +0000";
layers = (
{
layerId = "E3FE0EAA-297C-4773-BA15-BC72883F874E";
paths = (
{
closed = 1;
nodes = (
"512.787 -20.056 OFFCURVE",
"558.691 1.568 OFFCURVE",
"598.026 42.562 CURVE SMOOTH",
"699.011 147.805 OFFCURVE",
"755.042 378.138 OFFCURVE",
"743.536 643.195 CURVE SMOOTH",
"741.64 686.881 OFFCURVE",
"708.164 717.054 OFFCURVE",
"667.958 711.553 CURVE",
"627.246 709.021 OFFCURVE",
"596.116 674.553 OFFCURVE",
"597.914 634.375 CURVE SMOOTH",
"609.148 383.308 OFFCURVE",
"551.495 203.088 OFFCURVE",
"493.438 142.551 CURVE SMOOTH",
"485.004 133.757 OFFCURVE",
"474.338 125.68 OFFCURVE",
"468.949 124.907 CURVE",
"442.918 134.568 OFFCURVE",
"415.017 239.864 OFFCURVE",
"412.841 331.779 CURVE SMOOTH",
"412.005 367.099 OFFCURVE",
"385.443 396.455 OFFCURVE",
"350.538 400.852 CURVE",
"315.611 406.931 OFFCURVE",
"282.225 385.733 OFFCURVE",
"270.56 350.189 CURVE SMOOTH",
"249.526 286.099 OFFCURVE",
"218.779 218.15 OFFCURVE",
"194.505 178.315 CURVE",
"178.015 267.775 OFFCURVE",
"179.935 465.618 OFFCURVE",
"208.571 621.147 CURVE SMOOTH",
"215.88 660.843 OFFCURVE",
"189.631 698.284 OFFCURVE",
"149.944 705.014 CURVE SMOOTH",
"108.857 711.981 OFFCURVE",
"72.367 685.244 OFFCURVE",
"65.044 644.944 CURVE SMOOTH",
"63.962 638.988 OFFCURVE",
"-38.321 51.499 OFFCURVE",
"151.846 4.202 CURVE SMOOTH",
"209.643 -10.173 OFFCURVE",
"262.475 19.875 OFFCURVE",
"312.887 94.902 CURVE",
"347.565 17.964 OFFCURVE",
"399.115 -20.056 OFFCURVE",
"464.811 -20.056 CURVE SMOOTH"
);
},
{
closed = 1;
nodes = (
"212.536 142.776 LINE",
"214.382 142.776 LINE",
"214.207 132.776 LINE",
"212.362 132.776 LINE"
);
}
);
width = 710;
}
);
unicode = 0057;
},
{
glyphname = X;
lastChange = "2019-04-30 11:37:44 +0000";
layers = (
{
layerId = "E3FE0EAA-297C-4773-BA15-BC72883F874E";
paths = (
{
closed = 1;
nodes = (
"96.596 8.789 OFFCURVE",
"117.885 17.969 OFFCURVE",
"132.729 35.742 CURVE SMOOTH",
"145.62 51.172 OFFCURVE",
"449.135 416.992 OFFCURVE",
"575.698 697.265 CURVE SMOOTH",
"592.788 734.961 OFFCURVE",
"575.991 779.492 OFFCURVE",
"538.198 796.484 CURVE SMOOTH",
"500.502 813.281 OFFCURVE",
"456.069 796.875 OFFCURVE",
"438.979 758.984 CURVE SMOOTH",
"320.815 497.461 OFFCURVE",
"20.522 135.352 OFFCURVE",
"17.495 131.836 CURVE SMOOTH",
"-8.97 100 OFFCURVE",
"-4.673 52.734 OFFCURVE",
"27.065 26.172 CURVE SMOOTH",
"41.127 14.453 OFFCURVE",
"58.12 8.789 OFFCURVE",
"75.112 8.789 CURVE SMOOTH"
);
},
{
closed = 1;
nodes = (
"464.956 0 OFFCURVE",
"476.088 2.344 OFFCURVE",
"486.635 7.422 CURVE SMOOTH",
"523.94 25.586 OFFCURVE",
"539.467 70.508 OFFCURVE",
"521.401 107.812 CURVE SMOOTH",
"239.467 689.258 LINE SMOOTH",
"221.499 726.172 OFFCURVE",
"176.87 741.992 OFFCURVE",
"139.272 724.023 CURVE SMOOTH",
"101.967 705.859 OFFCURVE",
"86.44 660.938 OFFCURVE",
"104.506 623.633 CURVE SMOOTH",
"386.44 42.188 LINE SMOOTH",
"399.428 15.625 OFFCURVE",
"426.088 0 OFFCURVE",
"454.018 0 CURVE SMOOTH"
);
}
);
width = 510;
}
);
unicode = 0058;
},
{
glyphname = Y;
lastChange = "2019-04-30 11:37:44 +0000";
layers = (
{
layerId = "E3FE0EAA-297C-4773-BA15-BC72883F874E";
paths = (
{
closed = 1;
nodes = (
"221.048 -1.027 OFFCURVE",
"254.348 31.005 OFFCURVE",
"255.813 71.434 CURVE SMOOTH",
"255.911 74.95 OFFCURVE",
"270.559 427.88 OFFCURVE",
"495.266 764.989 CURVE SMOOTH",
"518.215 799.364 OFFCURVE",
"508.938 846.044 OFFCURVE",
"474.465 868.895 CURVE SMOOTH",
"440.09 892.137 OFFCURVE",
"393.411 882.762 OFFCURVE",
"370.461 848.192 CURVE SMOOTH",
"121.048 474.169 OFFCURVE",
"106.399 92.333 OFFCURVE",
"105.813 76.317 CURVE SMOOTH",
"104.544 34.911 OFFCURVE",
"136.965 0.34 OFFCURVE",
"178.372 -0.831 CURVE",
"179.153 -1.027 OFFCURVE",
"180.032 -1.027 OFFCURVE",
"180.813 -1.027 CURVE SMOOTH"
);
},
{
closed = 1;
nodes = (
"266.067 383.348 OFFCURVE",
"284.036 389.794 OFFCURVE",
"298.391 402.684 CURVE SMOOTH",
"329.153 430.223 OFFCURVE",
"331.692 477.684 OFFCURVE",
"303.958 508.544 CURVE SMOOTH",
"66.946 772.02 LINE SMOOTH",
"39.016 802.88 OFFCURVE",
"-8.249 805.223 OFFCURVE",
"-39.011 777.489 CURVE SMOOTH",
"-69.773 749.95 OFFCURVE",
"-72.312 702.489 OFFCURVE",
"-44.577 671.63 CURVE SMOOTH",
"192.434 408.153 LINE SMOOTH",
"207.278 391.747 OFFCURVE",
"227.688 383.348 OFFCURVE",
"248.196 383.348 CURVE SMOOTH"
);
}
);
width = 360;
}
);
unicode = 0059;
},
{
glyphname = Z;
lastChange = "2019-04-30 11:37:44 +0000";
layers = (
{
layerId = "E3FE0EAA-297C-4773-BA15-BC72883F874E";
paths = (
{
closed = 1;
nodes = (
"350.648 -18.027 OFFCURVE",
"411.781 -7.48 OFFCURVE",
"433.265 -3.28 CURVE SMOOTH",
"473.89 4.63 OFFCURVE",
"500.257 43.985 OFFCURVE",
"492.445 84.61 CURVE SMOOTH",
"484.437 125.235 OFFCURVE",
"444.398 151.407 OFFCURVE",
"404.554 143.985 CURVE SMOOTH",
"318.617 127.481 OFFCURVE",
"181.703 124.942 OFFCURVE",
"146.742 162.149 CURVE SMOOTH",
"138.929 170.645 OFFCURVE",
"137.953 186.954 OFFCURVE",
"144.203 210.684 CURVE SMOOTH",
"186.195 370.157 OFFCURVE",
"445.57 462.247 OFFCURVE",
"542.054 484.22 CURVE SMOOTH",
"580.336 492.911 OFFCURVE",
"605.336 529.63 OFFCURVE",
"599.671 568.399 CURVE SMOOTH",
"593.812 607.071 OFFCURVE",
"560.023 634.415 OFFCURVE",
"520.179 632.169 CURVE",
"518.617 631.973 OFFCURVE",
"351.234 620.548 OFFCURVE",
"223.695 643.79 CURVE SMOOTH",
"180.531 650.919 OFFCURVE",
"143.812 623.966 OFFCURVE",
"136.39 583.341 CURVE SMOOTH",
"129.164 543.106 OFFCURVE",
"155.336 504.63 OFFCURVE",
"195.179 496.524 CURVE",
"107.093 437.637 OFFCURVE",
"27.601 356.778 OFFCURVE",
"-0.719 248.868 CURVE SMOOTH",
"-26.11 152.97 OFFCURVE",
"6.117 93.009 OFFCURVE",
"37.367 59.513 CURVE SMOOTH",
"95.375 -2.304 OFFCURVE",
"194.789 -18.027 OFFCURVE",
"280.336 -18.027 CURVE SMOOTH"
);
}
);
width = 440;
}
);
unicode = 005A;
},
{
glyphname = a;
lastChange = "2019-04-30 11:37:44 +0000";
layers = (
{
anchors = (
{
name = bottom;
position = "{254.972, 0}";
},
{
name = ogonek;
position = "{461.505, 10}";
},
{
name = top;
position = "{300.731, 450}";
}
);
layerId = "E3FE0EAA-297C-4773-BA15-BC72883F874E";
paths = (
{
closed = 1;
nodes = (
"243.8 -4.654 OFFCURVE",
"293.819 16.937 OFFCURVE",
"339.015 61.18 CURVE",
"338.655 62.396 LINE",
"339.987 60.414 OFFCURVE",
"341.403 58.305 OFFCURVE",
"342.762 56.382 CURVE",
"391.377 5.039 OFFCURVE",
"457.623 -11.891 OFFCURVE",
"539.241 5.039 CURVE SMOOTH",
"574.841 12.423 OFFCURVE",
"587.841 49.461 OFFCURVE",
"567.842 86.554 CURVE SMOOTH",
"548.569 122.301 OFFCURVE",
"504.542 146.636 OFFCURVE",
"472.901 138.979 CURVE SMOOTH",
"470.131 138.308 OFFCURVE",
"444.863 133.023 OFFCURVE",
"439.08 132.618 CURVE",
"437.12 153.903 OFFCURVE",
"443.839 198.469 OFFCURVE",
"455.921 238.82 CURVE",
"469.477 269.609 OFFCURVE",
"477.605 291.958 OFFCURVE",
"479.646 303.77 CURVE",
"490.831 334.347 OFFCURVE",
"470.338 374.282 OFFCURVE",
"433.717 393.122 CURVE",
"399.812 413.518 OFFCURVE",
"361.442 408.131 OFFCURVE",
"345.609 380.726 CURVE",
"330.256 403.609 OFFCURVE",
"304.053 421.689 OFFCURVE",
"277.864 424.846 CURVE SMOOTH",
"167.496 438.148 OFFCURVE",
"64.352 345.216 OFFCURVE",
"25.921 253.506 CURVE SMOOTH",
"-5.533 178.447 OFFCURVE",
"-2.049 116.868 OFFCURVE",
"37.661 67.027 CURVE SMOOTH",
"73.399 22.172 OFFCURVE",
"122.318 -1.663 OFFCURVE",
"182.779 -4.642 CURVE",
"186.083 -4.654 OFFCURVE",
"188.595 -4.654 OFFCURVE",
"190.854 -4.654 CURVE SMOOTH"
);
},
{
closed = 1;
nodes = (
"148.981 146.678 OFFCURVE",
"159.912 178.441 OFFCURVE",
"167.253 190.757 CURVE SMOOTH",
"204.984 254.05 OFFCURVE",
"262.254 296.779 OFFCURVE",
"300.731 291.624 CURVE SMOOTH",
"304.082 291.175 OFFCURVE",
"307.334 290.951 OFFCURVE",
"310.476 290.939 CURVE",
"258.997 185.3 OFFCURVE",
"196.212 126.459 OFFCURVE",
"145.12 131.889 CURVE"
);
}
);
width = 524.03;
}
);
leftKerningGroup = a;
unicode = 0061;
},
{
glyphname = b;
lastChange = "2019-04-30 11:37:44 +0000";
layers = (
{
layerId = "E3FE0EAA-297C-4773-BA15-BC72883F874E";
paths = (
{
closed = 1;
nodes = (
"455.576 -11 OFFCURVE",
"537.947 113.57 OFFCURVE",
"540.01 231.743 CURVE SMOOTH",
"540.831 278.794 OFFCURVE",
"528.673 321.07 OFFCURVE",
"504.416 353.464 CURVE SMOOTH",
"474.889 392.711 OFFCURVE",
"429.233 414.645 OFFCURVE",
"375.048 414.645 CURVE SMOOTH",
"295.877 414.645 OFFCURVE",
"229.298 383.23 OFFCURVE",
"174.31 340.191 CURVE",
"187.429 461.756 OFFCURVE",
"185.834 542.833 OFFCURVE",
"169.421 576.847 CURVE SMOOTH",
"152.541 612.114 OFFCURVE",
"109.649 627.363 OFFCURVE",
"75.198 610.376 CURVE SMOOTH",
"39.524 592.646 OFFCURVE",
"24.751 552.318 OFFCURVE",
"41.502 518.282 CURVE",
"52.786 477.519 OFFCURVE",
"27.787 269.38 OFFCURVE",
"-2.32 101.866 CURVE SMOOTH",
"-8.573 67 OFFCURVE",
"12.053 33.389 OFFCURVE",
"45.72 23.566 CURVE SMOOTH",
"73.969 15.093 OFFCURVE",
"105.182 25.674 OFFCURVE",
"122.928 50.225 CURVE",
"179.052 9.769 OFFCURVE",
"251.423 -11 OFFCURVE",
"335.706 -11 CURVE SMOOTH"
);
},
{
closed = 1;
nodes = (
"261.747 129 OFFCURVE",
"218.257 153.792 OFFCURVE",
"198.381 170.133 CURVE",
"240.316 222.105 OFFCURVE",
"301.02 274.645 OFFCURVE",
"372.43 274.645 CURVE SMOOTH",
"387.799 274.645 OFFCURVE",
"400.407 254.42 OFFCURVE",
"400.008 231.569 CURVE SMOOTH",
"399.15 182.421 OFFCURVE",
"367.822 129 OFFCURVE",
"338.324 129 CURVE SMOOTH"
);
}
);
width = 510;
}
);
unicode = 0062;
},
{
glyphname = c;
lastChange = "2019-04-30 11:37:44 +0000";
layers = (
{
anchors = (
{
name = bottom;
position = "{142.378, 0}";
},
{
name = top;
position = "{205.622, 450}";
}
);
layerId = "E3FE0EAA-297C-4773-BA15-BC72883F874E";
paths = (
{
closed = 1;
nodes = (
"275.756 -4 OFFCURVE",
"344.31 32.914 OFFCURVE",
"351.732 37.113 CURVE SMOOTH",
"382.982 54.594 OFFCURVE",
"393.92 93.949 OFFCURVE",
"376.732 125.297 CURVE SMOOTH",
"359.252 156.742 OFFCURVE",
"319.603 168.461 OFFCURVE",
"288.353 151.078 CURVE",
"287.865 150.883 OFFCURVE",
"241.869 126.469 OFFCURVE",
"176.342 126.469 CURVE SMOOTH",
"154.76 126.469 OFFCURVE",
"138.744 133.109 OFFCURVE",
"127.22 146.879 CURVE SMOOTH",
"112.084 164.848 OFFCURVE",
"108.275 190.629 OFFCURVE",
"111.205 207.133 CURVE SMOOTH",
"114.525 226.273 OFFCURVE",
"145.482 279.008 OFFCURVE",
"190.209 307.035 CURVE SMOOTH",
"211.986 320.707 OFFCURVE",
"231.615 324.711 OFFCURVE",
"248.314 320.316 CURVE SMOOTH",
"283.275 309.965 OFFCURVE",
"319.017 330.473 OFFCURVE",
"328.881 365.141 CURVE SMOOTH",
"338.842 399.809 OFFCURVE",
"318.724 435.844 OFFCURVE",
"284.056 445.707 CURVE SMOOTH",
"230.834 461.234 OFFCURVE",
"174.389 451.176 OFFCURVE",
"120.97 417.582 CURVE SMOOTH",
"53.49 375.297 OFFCURVE",
"-5.983 294.438 OFFCURVE",
"-17.311 229.691 CURVE SMOOTH",
"-27.565 171.781 OFFCURVE",
"-10.475 107.914 OFFCURVE",
"27.22 62.992 CURVE SMOOTH",
"63.451 19.828 OFFCURVE",
"116.478 -4 OFFCURVE",
"176.342 -4 CURVE SMOOTH"
);
}
);
width = 348;
}
);
leftKerningGroup = a;
unicode = 0063;
},
{
glyphname = d;
lastChange = "2019-04-30 11:37:44 +0000";
layers = (
{
layerId = "E3FE0EAA-297C-4773-BA15-BC72883F874E";
paths = (
{
closed = 1;
nodes = (
"628.683 7.407 OFFCURVE",
"646.443 51.46 OFFCURVE",
"630.251 89.567 CURVE SMOOTH",
"595.161 171.985 OFFCURVE",
"613.779 348.107 OFFCURVE",
"639.583 476.621 CURVE",
"649.85 515.785 OFFCURVE",
"655.479 544.827 OFFCURVE",
"656.863 552.578 CURVE SMOOTH",
"664.323 592.281 OFFCURVE",
"638.958 630.771 OFFCURVE",
"599.517 639.487 CURVE SMOOTH",
"559.726 649.005 OFFCURVE",
"520.785 624.349 OFFCURVE",
"510.615 585.179 CURVE SMOOTH",
"508.184 576.114 OFFCURVE",
"501.641 550.152 OFFCURVE",
"494.042 513.389 CURVE",
"481.206 464.385 OFFCURVE",
"461.762 403.111 OFFCURVE",
"437.515 354.705 CURVE",
"390.521 398.435 OFFCURVE",
"339.369 420.674 OFFCURVE",
"279.587 423.807 CURVE SMOOTH",
"196.206 428.177 OFFCURVE",
"117.353 356.619 OFFCURVE",
"87.369 325.627 CURVE SMOOTH",
"58.735 296.128 OFFCURVE",
"-8.209 218.568 OFFCURVE",
"-12.568 135.381 CURVE SMOOTH",
"-15.839 72.967 OFFCURVE",
"20.029 -2.06 OFFCURVE",
"131.888 -7.922 CURVE SMOOTH",
"280.707 -15.721 OFFCURVE",
"384.515 54.332 OFFCURVE",
"465.357 141.432 CURVE",
"469.893 101.1 OFFCURVE",
"478.38 63.397 OFFCURVE",
"492.225 30.89 CURVE SMOOTH",
"508.32 -7.212 OFFCURVE",
"552.383 -24.776 OFFCURVE",
"590.577 -8.785 CURVE SMOOTH"
);
},
{
closed = 1;
nodes = (
"157.343 190.432 OFFCURVE",
"236.342 272.249 OFFCURVE",
"271.737 274.012 CURVE",
"291.046 273 OFFCURVE",
"314.093 268.663 OFFCURVE",
"346.021 234.132 CURVE",
"281.477 168.769 OFFCURVE",
"220.106 141.572 OFFCURVE",
"140.405 143.402 CURVE"
);
}
);
width = 660;
}
);
leftKerningGroup = a;
unicode = 0064;
},
{
glyphname = e;
lastChange = "2019-04-30 11:37:44 +0000";
layers = (
{
anchors = (
{
name = bottom;
position = "{133.378, 0}";
},
{
name = ogonek;
position = "{274.784, 10}";
},
{
name = top;
position = "{196.622, 450}";
}
);
layerId = "E3FE0EAA-297C-4773-BA15-BC72883F874E";
paths = (
{
closed = 1;
nodes = (
"249.79 -12.093 OFFCURVE",
"318.215 17.778 OFFCURVE",
"325.708 21.183 CURVE SMOOTH",
"356.949 35.384 OFFCURVE",
"370.762 72.221 OFFCURVE",
"356.562 103.461 CURVE SMOOTH",
"342.363 134.701 OFFCURVE",
"305.524 148.513 OFFCURVE",
"274.285 134.315 CURVE SMOOTH",
"273.798 134.094 OFFCURVE",
"223.686 112.177 OFFCURVE",
"155.918 112.177 CURVE SMOOTH",
"144.54 112.177 OFFCURVE",
"135.247 115.191 OFFCURVE",
"126.878 129.901 CURVE SMOOTH",
"120.679 140.796 OFFCURVE",
"116.627 155.477 OFFCURVE",
"115.035 172.134 CURVE",
"151.816 186.504 OFFCURVE",
"188.723 205.664 OFFCURVE",
"222.204 228.081 CURVE SMOOTH",
"294.014 276.163 OFFCURVE",
"328.271 324.224 OFFCURVE",
"324.023 370.929 CURVE SMOOTH",
"321.346 400.365 OFFCURVE",
"303.683 425.221 OFFCURVE",
"275.565 439.126 CURVE SMOOTH",
"257.73 447.945 OFFCURVE",
"235.621 452.487 OFFCURVE",
"207.973 453.011 CURVE SMOOTH",
"169.663 453.738 OFFCURVE",
"134.056 443.491 OFFCURVE",
"102.1 422.561 CURVE SMOOTH",
"74.696 404.612 OFFCURVE",
"51.341 379.594 OFFCURVE",
"32.686 348.203 CURVE SMOOTH",
"17.586 322.796 OFFCURVE",
"6.431 294.644 OFFCURVE",
"-0.682 265.638 CURVE",
"-24.38 253.069 OFFCURVE",
"-38.038 226.004 OFFCURVE",
"-32.428 198.378 CURVE SMOOTH",
"-29.262 182.789 OFFCURVE",
"-20.517 169.757 OFFCURVE",
"-8.694 160.943 CURVE",
"-5.475 127.069 OFFCURVE",
"3.659 95.175 OFFCURVE",
"18.866 68.447 CURVE SMOOTH",
"32.801 43.955 OFFCURVE",
"51.145 24.53 OFFCURVE",
"73.389 10.711 CURVE SMOOTH",
"97.745 -4.421 OFFCURVE",
"125.512 -12.093 OFFCURVE",
"155.918 -12.093 CURVE SMOOTH"
);
}
);
width = 340;
}
);
leftKerningGroup = a;
unicode = 0065;
},
{
glyphname = f;
lastChange = "2019-04-30 11:37:44 +0000";
layers = (
{
layerId = "E3FE0EAA-297C-4773-BA15-BC72883F874E";
paths = (
{
closed = 1;
nodes = (
"169.29 -108.453 LINE SMOOTH",
"205.38 -107.672 OFFCURVE",
"235.982 -77.789 OFFCURVE",
"237.717 -41.754 CURVE SMOOTH",
"261.643 464.477 OFFCURVE",
"352.916 604.245 OFFCURVE",
"390.992 641.547 CURVE SMOOTH",
"410.034 659.711 OFFCURVE",
"425.138 662.055 OFFCURVE",
"431.631 662.739 CURVE",
"441.194 658.442 OFFCURVE",
"458.977 630.61 OFFCURVE",
"467.463 606.684 CURVE SMOOTH",
"479.312 573.578 OFFCURVE",
"516.119 558.051 OFFCURVE",
"550.486 571.918 CURVE SMOOTH",
"584.566 585.883 OFFCURVE",
"602.843 623.871 OFFCURVE",
"591.392 657.074 CURVE SMOOTH",
"583.501 679.731 OFFCURVE",
"539.521 792.524 OFFCURVE",
"445.185 792.524 CURVE SMOOTH",
"393.818 792.524 OFFCURVE",
"345.009 771.821 OFFCURVE",
"304.098 732.758 CURVE SMOOTH",
"193.905 627.687 OFFCURVE",
"130.916 369.5 OFFCURVE",
"107.044 -44.683 CURVE SMOOTH",
"105.343 -80.23 OFFCURVE",
"132.474 -108.453 OFFCURVE",
"167.825 -108.453 CURVE SMOOTH"
);
},
{
closed = 1;
nodes = (
"448.282 211.664 OFFCURVE",
"460.614 212.055 OFFCURVE",
"470.629 212.836 CURVE SMOOTH",
"506.757 215.571 OFFCURVE",
"535.809 247.016 OFFCURVE",
"535.577 282.856 CURVE SMOOTH",
"535.358 318.891 OFFCURVE",
"503.948 344.574 OFFCURVE",
"469.751 342.914 CURVE SMOOTH",
"380 337.25 OFFCURVE",
"66.355 368.403 OFFCURVE",
"3.605 384.418 CURVE SMOOTH",
"-29.793 392.817 OFFCURVE",
"-67.482 371.918 OFFCURVE",
"-78.81 336.957 CURVE SMOOTH",
"-90.04 301.996 OFFCURVE",
"-71.22 266.645 OFFCURVE",
"-36.871 257.856 CURVE SMOOTH",
"29.233 240.961 OFFCURVE",
"305.899 211.664 OFFCURVE",
"434.121 211.664 CURVE SMOOTH"
);
}
);
width = 360;
}
);
unicode = 0066;
},
{
glyphname = g;
lastChange = "2019-05-07 08:26:27 +0000";
layers = (
{
layerId = "E3FE0EAA-297C-4773-BA15-BC72883F874E";
paths = (
{
closed = 1;
nodes = (
"210.858 -531.903 OFFCURVE",
"226.633 -530.305 OFFCURVE",
"243.547 -526.593 CURVE SMOOTH",
"346.946 -504.428 OFFCURVE",
"451.629 -410.06 OFFCURVE",
"451.382 -290.668 CURVE",
"452.695 -259.378 OFFCURVE",
"490.955 220.724 OFFCURVE",
"490.963 220.838 CURVE SMOOTH",
"493.311 250.375 OFFCURVE",
"477.725 277.823 OFFCURVE",
"450.8 289.66 CURVE SMOOTH",
"429.781 298.896 OFFCURVE",
"405.021 297.151 OFFCURVE",
"383.879 285.698 CURVE",
"379.655 289.426 LINE",
"390.61 317.505 OFFCURVE",
"385.05 347.726 OFFCURVE",
"364.329 367.672 CURVE SMOOTH",
"321.448 409.137 OFFCURVE",
"254.237 416.166 OFFCURVE",
"179.714 387.81 CURVE SMOOTH",
"95.232 355.453 OFFCURVE",
"4.57 279.639 OFFCURVE",
"-8.681 195.611 CURVE SMOOTH",
"-16.77 144.174 OFFCURVE",
"-2.523 90.083 OFFCURVE",
"29.958 51.719 CURVE SMOOTH",
"99.492 -30.548 OFFCURVE",
"230.148 3.801 OFFCURVE",
"329.323 65.758 CURVE",
"301.572 -286.238 OFFCURVE",
"301.581 -296.749 OFFCURVE",
"301.664 -300.261 CURVE SMOOTH",
"301.76 -334.239 OFFCURVE",
"264.367 -371.729 OFFCURVE",
"222.845 -380.743 CURVE SMOOTH",
"194.488 -386.591 OFFCURVE",
"178.239 -377.626 OFFCURVE",
"169.471 -349.627 CURVE SMOOTH",
"158.081 -311.799 OFFCURVE",
"116.688 -291.927 OFFCURVE",
"76.868 -306.357 CURVE SMOOTH",
"36.533 -321.072 OFFCURVE",
"14.162 -364.437 OFFCURVE",
"25.908 -402.882 CURVE SMOOTH",
"50.364 -483.354 OFFCURVE",
"113.518 -531.903 OFFCURVE",
"195.435 -531.903 CURVE SMOOTH"
);
},
{
closed = 1;
nodes = (
"144.76 150.77 OFFCURVE",
"136.541 169.762 OFFCURVE",
"138.731 181.555 CURVE",
"148.799 210.373 OFFCURVE",
"218.531 255.888 OFFCURVE",
"251.3 255.888 CURVE SMOOTH",
"253.238 255.888 OFFCURVE",
"255.857 255.814 OFFCURVE",
"257.738 254.829 CURVE",
"273.366 240.864 OFFCURVE",
"294.787 235.05 OFFCURVE",
"315.937 238.231 CURVE",
"318.2 232.877 LINE",
"247.181 178.838 OFFCURVE",
"186.489 147.539 OFFCURVE",
"154.34 148.051 CURVE"
);
}
);
width = 500;
}
);
leftKerningGroup = a;
unicode = 0067;
},
{
glyphname = h;
lastChange = "2019-04-30 11:37:44 +0000";
layers = (
{
layerId = "E3FE0EAA-297C-4773-BA15-BC72883F874E";
paths = (
{
closed = 1;
nodes = (
"75.704 -4.324 OFFCURVE",
"97.755 7.955 OFFCURVE",
"109.746 28.421 CURVE SMOOTH",
"143.412 86.022 OFFCURVE",
"261.786 248.703 OFFCURVE",
"363.245 248.703 CURVE SMOOTH",
"385.862 248.703 OFFCURVE",
"394.18 241.838 OFFCURVE",
"399.94 234.965 CURVE SMOOTH",
"427.006 202.578 OFFCURVE",
"423.207 121.652 OFFCURVE",
"416.918 87.018 CURVE SMOOTH",
"410.466 51.16 OFFCURVE",
"434.235 16.745 OFFCURVE",
"469.962 10.211 CURVE SMOOTH",
"506.104 3.189 OFFCURVE",
"540.101 26.561 OFFCURVE",
"546.776 63.057 CURVE SMOOTH",
"549.905 79.68 OFFCURVE",
"575.394 230.525 OFFCURVE",
"501.561 319.303 CURVE SMOOTH",
"433.225 401.635 OFFCURVE",
"294.979 387.795 OFFCURVE",
"197.824 322.474 CURVE",
"220.273 424.061 OFFCURVE",
"233.095 528.35 OFFCURVE",
"211.715 589.532 CURVE SMOOTH",
"199.634 624.079 OFFCURVE",
"162.086 642.191 OFFCURVE",
"127.607 630.101 CURVE SMOOTH",
"93.181 618.063 OFFCURVE",
"75.012 580.397 OFFCURVE",
"87.041 545.998 CURVE SMOOTH",
"110.456 479 OFFCURVE",
"44.896 235.765 OFFCURVE",
"-9.431 84.001 CURVE SMOOTH",
"-20.953 51.866 OFFCURVE",
"-6.158 16.383 OFFCURVE",
"24.799 1.908 CURVE SMOOTH",
"33.368 -2.124 OFFCURVE",
"42.551 -4.324 OFFCURVE",
"52.698 -4.324 CURVE SMOOTH"
);
}
);
width = 549;
}
);
unicode = 0068;
},
{
glyphname = i;
lastChange = "2019-05-07 14:11:05 +0000";
layers = (
{
layerId = "E3FE0EAA-297C-4773-BA15-BC72883F874E";
paths = (
{
closed = 1;
nodes = (
"125.294 -1.334 OFFCURVE",
"157.07 24.665 OFFCURVE",
"163.184 61.348 CURVE SMOOTH",
"204.846 311.318 LINE SMOOTH",
"211.655 352.175 OFFCURVE",
"184.053 390.818 OFFCURVE",
"143.196 397.627 CURVE SMOOTH",
"102.336 404.438 OFFCURVE",
"63.696 376.835 OFFCURVE",
"56.886 335.978 CURVE SMOOTH",
"15.225 86.008 LINE SMOOTH",
"8.415 45.15 OFFCURVE",
"36.017 6.508 OFFCURVE",
"76.874 -0.302 CURVE SMOOTH",
"81.049 -0.997 OFFCURVE",
"85.198 -1.334 OFFCURVE",
"89.294 -1.334 CURVE SMOOTH"
);
},
{
closed = 1;
nodes = (
"241.307 519.949 OFFCURVE",
"273.232 546.411 OFFCURVE",
"278.991 583.433 CURVE SMOOTH",
"285.357 624.362 OFFCURVE",
"257.338 662.703 OFFCURVE",
"216.409 669.069 CURVE SMOOTH",
"180.447 674.663 LINE SMOOTH",
"139.514 681.03 OFFCURVE",
"101.177 653.009 OFFCURVE",
"94.81 612.081 CURVE SMOOTH",
"88.444 571.152 OFFCURVE",
"116.463 532.811 OFFCURVE",
"157.392 526.445 CURVE SMOOTH",
"193.354 520.851 LINE SMOOTH",
"197.262 520.243 OFFCURVE",
"201.14 519.949 OFFCURVE",
"204.975 519.949 CURVE SMOOTH"
);
}
);
width = 207.63;
}
);
rightKerningGroup = l;
unicode = 0069;
},
{
glyphname = idotless;
lastChange = "2019-04-30 11:37:44 +0000";
layers = (
{
anchors = (
{
name = bottom;
position = "{64.378, 0}";
},
{
name = ogonek;
position = "{142.784, 10}";
},
{
name = top;
position = "{127.622, 450}";
}
);
layerId = "E3FE0EAA-297C-4773-BA15-BC72883F874E";
paths = (
{
closed = 1;
nodes = (
"125.294 -1.334 OFFCURVE",
"157.07 24.665 OFFCURVE",
"163.184 61.348 CURVE SMOOTH",
"204.846 311.318 LINE SMOOTH",
"211.655 352.175 OFFCURVE",
"184.053 390.818 OFFCURVE",
"143.196 397.627 CURVE SMOOTH",
"102.336 404.438 OFFCURVE",
"63.696 376.835 OFFCURVE",
"56.886 335.978 CURVE SMOOTH",
"15.225 86.008 LINE SMOOTH",
"8.415 45.15 OFFCURVE",
"36.017 6.508 OFFCURVE",
"76.874 -0.302 CURVE SMOOTH",
"81.049 -0.997 OFFCURVE",
"85.198 -1.334 OFFCURVE",
"89.294 -1.334 CURVE SMOOTH"
);
}
);
width = 207.63;
}
);
leftMetricsKey = i;
widthMetricsKey = i;
unicode = 0131;
},
{
glyphname = j;
lastChange = "2019-04-30 11:37:44 +0000";
layers = (
{
layerId = "E3FE0EAA-297C-4773-BA15-BC72883F874E";
paths = (
{
closed = 1;
nodes = (
"-102.648 -512.604 OFFCURVE",
"-67.667 -510.558 OFFCURVE",
"-34.849 -498.252 CURVE SMOOTH",
"12.094 -480.649 OFFCURVE",
"55.048 -442.254 OFFCURVE",
"92.82 -384.134 CURVE SMOOTH",
"124.489 -335.404 OFFCURVE",
"153.557 -271.405 OFFCURVE",
"179.217 -193.913 CURVE SMOOTH",
"228.295 -46.424 OFFCURVE",
"265.12 152.704 OFFCURVE",
"285.301 379.101 CURVE SMOOTH",
"288.976 420.359 OFFCURVE",
"258.515 456.782 OFFCURVE",
"217.25 460.459 CURVE SMOOTH",
"175.992 464.134 OFFCURVE",
"139.567 433.667 OFFCURVE",
"135.892 392.408 CURVE SMOOTH",
"116.764 177.646 OFFCURVE",
"82.506 -8.795 OFFCURVE",
"36.821 -146.761 CURVE SMOOTH",
"-22.345 -325.437 OFFCURVE",
"-77.134 -353.908 OFFCURVE",
"-87.516 -357.802 CURVE SMOOTH",
"-92.566 -359.696 OFFCURVE",
"-96.56 -359.84 OFFCURVE",
"-101.766 -358.313 CURVE SMOOTH",
"-111.146 -355.561 OFFCURVE",
"-123.099 -347.538 OFFCURVE",
"-135.424 -335.718 CURVE SMOOTH",
"-165.322 -307.05 OFFCURVE",
"-212.799 -308.046 OFFCURVE",
"-241.467 -337.942 CURVE SMOOTH",
"-270.136 -367.839 OFFCURVE",
"-269.141 -415.315 OFFCURVE",
"-239.244 -443.984 CURVE SMOOTH",
"-209.014 -472.974 OFFCURVE",
"-176.963 -492.576 OFFCURVE",
"-143.981 -502.249 CURVE SMOOTH",
"-141.491 -502.98 OFFCURVE",
"-138.996 -503.653 OFFCURVE",
"-136.491 -504.27 CURVE SMOOTH"
);
},
{
closed = 1;
nodes = (
"243.99 597.364 OFFCURVE",
"256.406 597.237 OFFCURVE",
"268.758 600.374 CURVE SMOOTH",
"304.034 609.331 LINE SMOOTH",
"344.181 619.525 OFFCURVE",
"368.462 660.336 OFFCURVE",
"358.268 700.483 CURVE SMOOTH",
"348.073 740.63 OFFCURVE",
"307.263 764.913 OFFCURVE",
"267.116 754.717 CURVE SMOOTH",
"231.841 745.76 LINE SMOOTH",
"191.693 735.565 OFFCURVE",
"167.412 694.755 OFFCURVE",
"177.607 654.608 CURVE SMOOTH",
"184.664 626.813 OFFCURVE",
"206.396 606.623 OFFCURVE",
"232.423 600.213 CURVE SMOOTH"
);
}
);
width = 277.72;
}
);
unicode = 006A;
},
{
glyphname = k;
lastChange = "2019-04-30 11:37:44 +0000";
layers = (
{
layerId = "E3FE0EAA-297C-4773-BA15-BC72883F874E";
paths = (
{
closed = 1;
nodes = (
"51.963 -0.16 OFFCURVE",
"54.234 -0.058 OFFCURVE",
"56.504 0.149 CURVE SMOOTH",
"92.25 3.399 OFFCURVE",
"129.742 23.008 OFFCURVE",
"178.069 63.734 CURVE SMOOTH",
"208.024 88.977 OFFCURVE",
"242.687 122.994 OFFCURVE",
"281.094 164.84 CURVE SMOOTH",
"344.866 234.322 OFFCURVE",
"397.455 301.793 OFFCURVE",
"399.662 304.631 CURVE SMOOTH",
"425.089 337.323 OFFCURVE",
"419.2 384.434 OFFCURVE",
"386.511 409.867 CURVE SMOOTH",
"353.823 435.299 OFFCURVE",
"306.703 429.416 OFFCURVE",
"281.266 396.731 CURVE SMOOTH",
"280.802 396.135 OFFCURVE",
"234.294 336.493 OFFCURVE",
"178.153 274.566 CURVE SMOOTH",
"175.602 271.752 OFFCURVE",
"173.084 268.991 OFFCURVE",
"170.615 266.301 CURVE",
"191.034 367.009 OFFCURVE",
"210.14 482.704 OFFCURVE",
"210.04 562.652 CURVE SMOOTH",
"209.919 661.173 OFFCURVE",
"59.918 661.608 OFFCURVE",
"60.04 562.465 CURVE SMOOTH",
"60.116 502.258 OFFCURVE",
"45.988 402.763 OFFCURVE",
"19.186 274.735 CURVE SMOOTH",
"-1.555 175.66 OFFCURVE",
"-22.646 94.584 OFFCURVE",
"-22.855 93.781 CURVE SMOOTH",
"-29.024 70.145 OFFCURVE",
"-23.295 44.984 OFFCURVE",
"-7.5 26.349 CURVE SMOOTH",
"6.821 9.452 OFFCURVE",
"27.784 -0.16 OFFCURVE",
"49.706 -0.16 CURVE SMOOTH"
);
},
{
closed = 1;
nodes = (
"405.648 -7.332 OFFCURVE",
"428.526 3.398 OFFCURVE",
"443.199 23.603 CURVE SMOOTH",
"467.538 57.119 OFFCURVE",
"460.1 104.02 OFFCURVE",
"426.583 128.359 CURVE SMOOTH",
"381.526 161.081 OFFCURVE",
"353.091 185.261 OFFCURVE",
"336.944 266.543 CURVE SMOOTH",
"328.872 307.171 OFFCURVE",
"289.391 333.566 OFFCURVE",
"248.767 325.492 CURVE SMOOTH",
"208.14 317.421 OFFCURVE",
"181.748 277.943 OFFCURVE",
"189.819 237.316 CURVE SMOOTH",
"216.06 105.224 OFFCURVE",
"275.095 52.991 OFFCURVE",
"338.443 6.987 CURVE SMOOTH",
"351.753 -2.679 OFFCURVE",
"367.169 -7.332 OFFCURVE",
"382.452 -7.332 CURVE SMOOTH"
);
}
);
width = 422.84;
}
);
unicode = 006B;
},
{
glyphname = l;
lastChange = "2019-05-07 14:09:23 +0000";
layers = (
{
layerId = "E3FE0EAA-297C-4773-BA15-BC72883F874E";
paths = (
{
closed = 1;
nodes = (
"138.418 -1.863 OFFCURVE",
"171.282 28.046 OFFCURVE",
"174.309 67.386 CURVE SMOOTH",
"175.859 87.54 OFFCURVE",
"169.292 106.445 OFFCURVE",
"157.364 120.89 CURVE",
"157.743 143.487 OFFCURVE",
"163.299 200.185 OFFCURVE",
"195.448 329.789 CURVE SMOOTH",
"219.209 425.572 OFFCURVE",
"245.422 511.967 OFFCURVE",
"245.76 513.078 CURVE SMOOTH",
"257.82 552.705 OFFCURVE",
"235.474 594.606 OFFCURVE",
"195.847 606.666 CURVE SMOOTH",
"156.221 618.725 OFFCURVE",
"114.319 596.379 OFFCURVE",
"102.259 556.752 CURVE SMOOTH",
"100.988 552.576 OFFCURVE",
"70.831 453.233 OFFCURVE",
"44.82 345.293 CURVE SMOOTH",
"29.254 280.693 OFFCURVE",
"18.427 226.354 OFFCURVE",
"12.644 183.782 CURVE SMOOTH",
"2.601 109.868 OFFCURVE",
"6.958 67.346 OFFCURVE",
"27.679 37.011 CURVE SMOOTH",
"43.059 14.496 OFFCURVE",
"67.151 0.408 OFFCURVE",
"93.777 -1.641 CURVE SMOOTH",
"95.736 -1.791 OFFCURVE",
"97.678 -1.865 OFFCURVE",
"99.61 -1.865 CURVE SMOOTH"
);
}
);
width = 226.88;
}
);
rightKerningGroup = l;
unicode = 006C;
},
{
glyphname = m;
lastChange = "2019-04-30 11:37:44 +0000";
layers = (
{
layerId = "E3FE0EAA-297C-4773-BA15-BC72883F874E";
paths = (
{
closed = 1;
nodes = (
"786.698 -3.15 OFFCURVE",
"814.076 16.435 OFFCURVE",
"822.689 46.479 CURVE SMOOTH",
"839.505 105.029 OFFCURVE",
"889.032 303.544 OFFCURVE",
"821.971 400.649 CURVE SMOOTH",
"799.207 433.666 OFFCURVE",
"764.652 453.662 OFFCURVE",
"724.662 457.045 CURVE SMOOTH",
"642.938 462.993 OFFCURVE",
"565.829 418.183 OFFCURVE",
"501.229 352.148 CURVE",
"496.717 362.402 OFFCURVE",
"491.283 372.04 OFFCURVE",
"485.13 381.064 CURVE SMOOTH",
"463.495 412.646 OFFCURVE",
"421.146 451.406 OFFCURVE",
"341.781 457.045 CURVE SMOOTH",
"269.08 462.685 OFFCURVE",
"201.302 416.747 OFFCURVE",
"147.572 355.839 CURVE",
"138.138 386.498 OFFCURVE",
"107.684 406.699 OFFCURVE",
"75.282 403.828 CURVE SMOOTH",
"37.65 400.034 OFFCURVE",
"10.169 366.401 OFFCURVE",
"13.963 328.769 CURVE SMOOTH",
"23.499 234.33 OFFCURVE",
"-5.929 85.239 OFFCURVE",
"-6.237 83.701 CURVE SMOOTH",
"-13.21 48.837 OFFCURVE",
"7.606 14.384 OFFCURVE",
"41.751 4.54 CURVE SMOOTH",
"76.102 -5.201 OFFCURVE",
"111.888 12.538 OFFCURVE",
"124.808 45.556 CURVE SMOOTH",
"175.667 177.011 OFFCURVE",
"271.541 320.463 OFFCURVE",
"329.681 320.463 CURVE SMOOTH",
"332.039 320.463 LINE",
"362.083 318.31 OFFCURVE",
"369.364 307.646 OFFCURVE",
"372.132 303.647 CURVE SMOOTH",
"379.105 293.393 OFFCURVE",
"397.87 252.07 OFFCURVE",
"364.749 130.048 CURVE",
"361.058 118.769 OFFCURVE",
"357.879 107.695 OFFCURVE",
"355.213 96.928 CURVE SMOOTH",
"346.6 60.937 OFFCURVE",
"368.133 24.638 OFFCURVE",
"403.817 14.897 CURVE SMOOTH",
"439.808 5.053 OFFCURVE",
"476.517 25.458 OFFCURVE",
"487.386 60.834 CURVE SMOOTH",
"490.462 70.883 OFFCURVE",
"493.333 80.727 OFFCURVE",
"495.897 90.366 CURVE",
"532.913 197.621 OFFCURVE",
"644.579 327.744 OFFCURVE",
"709.076 323.129 CURVE",
"728.25 300.161 OFFCURVE",
"719.432 184.086 OFFCURVE",
"691.029 84.213 CURVE SMOOTH",
"680.672 47.812 OFFCURVE",
"701.693 9.872 OFFCURVE",
"737.992 -0.484 CURVE SMOOTH",
"744.349 -2.33 OFFCURVE",
"750.706 -3.15 OFFCURVE",
"756.961 -3.15 CURVE SMOOTH"
);
}
);
width = 860;
}
);
unicode = 006D;
},
{
glyphname = n;
lastChange = "2019-04-30 11:37:44 +0000";
layers = (
{
layerId = "E3FE0EAA-297C-4773-BA15-BC72883F874E";
paths = (
{
closed = 1;
nodes = (
"96.298 -15.19 OFFCURVE",
"122.702 0.528 OFFCURVE",
"135.519 26.663 CURVE SMOOTH",
"178.885 115.298 OFFCURVE",
"299.021 298.333 OFFCURVE",
"393.515 298.333 CURVE SMOOTH",
"409.419 298.333 OFFCURVE",
"416.963 293.311 OFFCURVE",
"423.393 285.685 CURVE SMOOTH",
"456.808 246.436 OFFCURVE",
"457.251 136.596 OFFCURVE",
"446.877 71.213 CURVE SMOOTH",
"440.674 32.057 OFFCURVE",
"467.239 -3.564 OFFCURVE",
"506.13 -8.493 CURVE SMOOTH",
"544.193 -13.144 OFFCURVE",
"581.798 14.386 OFFCURVE",
"587.998 53.449 CURVE SMOOTH",
"591.67 76.049 OFFCURVE",
"621.015 277.221 OFFCURVE",
"533.925 380.086 CURVE SMOOTH",
"500.072 420.078 OFFCURVE",
"453.283 441.19 OFFCURVE",
"398.502 441.19 CURVE SMOOTH",
"322.051 441.19 OFFCURVE",
"252.045 399.338 OFFCURVE",
"192.921 344.185 CURVE",
"192.29 352.742 OFFCURVE",
"191.27 360.833 OFFCURVE",
"189.666 368.181 CURVE SMOOTH",
"181.514 406.406 OFFCURVE",
"143.635 429.658 OFFCURVE",
"104.797 420.078 CURVE SMOOTH",
"66.237 410.499 OFFCURVE",
"41.631 371.715 OFFCURVE",
"49.873 333.397 CURVE SMOOTH",
"57.401 298.612 OFFCURVE",
"31.751 171.287 OFFCURVE",
"3.067 74.282 CURVE SMOOTH",
"-7.58 38.382 OFFCURVE",
"10.842 1.272 OFFCURVE",
"45.287 -11.097 CURVE SMOOTH",
"53.095 -13.888 OFFCURVE",
"61.141 -15.19 OFFCURVE",
"69.047 -15.19 CURVE SMOOTH"
);
}
);
width = 610;
}
);
unicode = 006E;
},
{
glyphname = o;
lastChange = "2019-04-30 11:37:44 +0000";
layers = (
{
anchors = (
{
name = bottom;
position = "{216.378, 0}";
},
{
name = center;
position = "{248, 225}";
},
{
name = ogonek;
position = "{416.784, 10}";
},
{
name = top;
position = "{286.33, 471.843}";
},
{
name = topright;
position = "{508.172, 450}";
}
);
layerId = "E3FE0EAA-297C-4773-BA15-BC72883F874E";
paths = (
{
closed = 1;
nodes = (
"245.061 -12.43 OFFCURVE",
"291.355 3.222 OFFCURVE",
"336.164 32.709 CURVE SMOOTH",
"377.954 60.211 OFFCURVE",
"418.831 100.059 OFFCURVE",
"451.34 145.953 CURVE SMOOTH",
"476.84 181.953 OFFCURVE",
"495.033 218.599 OFFCURVE",
"504.855 252.314 CURVE SMOOTH",
"518.141 297.923 OFFCURVE",
"516.304 340.44 OFFCURVE",
"498.802 374.183 CURVE SMOOTH",
"475.642 418.837 OFFCURVE",
"429.258 443.489 OFFCURVE",
"368.601 443.488 CURVE SMOOTH",
"353.203 443.45 OFFCURVE",
"337.701 438.313 OFFCURVE",
"325.055 428.17 CURVE",
"314.587 442.644 OFFCURVE",
"298.776 452.84 OFFCURVE",
"280.485 456.058 CURVE SMOOTH",
"241.224 462.964 OFFCURVE",
"200.462 456.399 OFFCURVE",
"162.834 437.692 CURVE SMOOTH",
"131.384 422.056 OFFCURVE",
"101.506 397.456 OFFCURVE",
"76.898 367.421 CURVE SMOOTH",
"48.11 332.287 OFFCURVE",
"25.602 288.506 OFFCURVE",
"14.284 244.769 CURVE SMOOTH",
"1.31 194.635 OFFCURVE",
"2.749 145.955 OFFCURVE",
"18.973 104.38 CURVE SMOOTH",
"43.651 41.14 OFFCURVE",
"98.934 0.199 OFFCURVE",
"176.03 -10.687 CURVE SMOOTH",
"184.334 -11.859 OFFCURVE",
"192.586 -12.43 OFFCURVE",
"201.112 -12.43 CURVE SMOOTH"
);
},
{
closed = 1;
nodes = (
"170.631 131.464 OFFCURVE",
"155.334 140.054 OFFCURVE",
"149.395 155.274 CURVE SMOOTH",
"144.235 168.493 OFFCURVE",
"144.227 188.087 OFFCURVE",
"149.818 209.694 CURVE SMOOTH",
"156.079 233.883 OFFCURVE",
"168.37 258.165 OFFCURVE",
"185.189 278.693 CURVE SMOOTH",
"205.642 303.654 OFFCURVE",
"229.633 318.748 OFFCURVE",
"249.538 318.748 CURVE SMOOTH",
"251.091 318.748 OFFCURVE",
"253.48 318.658 OFFCURVE",
"256.235 318.173 CURVE SMOOTH",
"276.394 314.628 OFFCURVE",
"296.534 320.046 OFFCURVE",
"312.054 332.426 CURVE",
"325.98 313.278 OFFCURVE",
"348.621 302.1 OFFCURVE",
"373.207 303.627 CURVE",
"371.485 291.896 OFFCURVE",
"366.158 277.514 OFFCURVE",
"359.311 263.705 CURVE SMOOTH",
"345.852 236.564 OFFCURVE",
"325.381 208.79 OFFCURVE",
"302.538 185.688 CURVE SMOOTH",
"264.687 147.407 OFFCURVE",
"222.117 124.191 OFFCURVE",
"195.602 127.938 CURVE SMOOTH"
);
}
);
width = 496.55;
}
);
leftKerningGroup = a;
unicode = 006F;
},
{
glyphname = odieresis;
lastChange = "2019-04-30 11:37:44 +0000";
layers = (
{
anchors = (
{
name = _top;
position = "{279.622, 450}";
},
{
name = top;
position = "{323.401, 761.509}";
}
);
components = (
{
name = o;
}
);
layerId = "E3FE0EAA-297C-4773-BA15-BC72883F874E";
paths = (
{
closed = 1;
nodes = (
"474.746 508.633 OFFCURVE",
"512.593 538.033 OFFCURVE",
"519.992 577.72 CURVE SMOOTH",
"524.611 602.771 OFFCURVE",
"541.876 681.639 OFFCURVE",
"539.9 735.552 CURVE SMOOTH",
"538.576 771.69 OFFCURVE",
"511.095 800.33 OFFCURVE",
"476.279 804.222 CURVE SMOOTH",
"472.3 804.666 OFFCURVE",
"468.277 804.723 OFFCURVE",
"464.136 804.596 CURVE SMOOTH",
"423.802 802.418 OFFCURVE",
"392.193 767.994 OFFCURVE",
"393.695 727.901 CURVE SMOOTH",
"394.69 699.863 OFFCURVE",
"386.51 657.739 OFFCURVE",
"376.155 602.059 CURVE SMOOTH",
"368.756 562.372 OFFCURVE",
"394.961 524.632 OFFCURVE",
"434.739 518.022 CURVE"
);
},
{
closed = 1;
nodes = (
"248.652 528.744 OFFCURVE",
"282.41 560.764 OFFCURVE",
"283.796 601.123 CURVE SMOOTH",
"287.814 723.397 LINE SMOOTH",
"288.972 761.225 OFFCURVE",
"261.091 792.859 OFFCURVE",
"224.141 796.99 CURVE SMOOTH",
"221.813 797.25 OFFCURVE",
"219.46 797.316 OFFCURVE",
"217.011 797.393 CURVE SMOOTH",
"176.649 797.972 OFFCURVE",
"142.892 765.951 OFFCURVE",
"141.505 725.592 CURVE SMOOTH",
"137.487 603.318 LINE SMOOTH",
"136.295 562.937 OFFCURVE",
"167.951 529.308 OFFCURVE",
"208.291 529.322 CURVE SMOOTH"
);
}
);
width = 496.55;
}
);
unicode = 00F6;
},
{
glyphname = p;
lastChange = "2019-04-30 11:37:44 +0000";
layers = (
{
layerId = "E3FE0EAA-297C-4773-BA15-BC72883F874E";
paths = (
{
closed = 1;
nodes = (
"279.009 -19.875 OFFCURVE",
"303.125 -18.007 OFFCURVE",
"326.952 -14.274 CURVE SMOOTH",
"424.336 0.984 OFFCURVE",
"500.981 43.509 OFFCURVE",
"537.233 102.4 CURVE SMOOTH",
"551.977 126.351 OFFCURVE",
"560.284 155.279 OFFCURVE",
"561.258 186.054 CURVE SMOOTH",
"562.105 212.868 OFFCURVE",
"557.39 241.289 OFFCURVE",
"547.619 268.245 CURVE SMOOTH",
"537.48 296.215 OFFCURVE",
"521.954 322.514 OFFCURVE",
"502.718 344.298 CURVE SMOOTH",
"480.863 369.049 OFFCURVE",
"454.082 388.097 OFFCURVE",
"425.271 399.386 CURVE SMOOTH",
"373.921 419.503 OFFCURVE",
"314.963 417.749 OFFCURVE",
"245.027 394.024 CURVE SMOOTH",
"192.249 376.118 OFFCURVE",
"131.759 345.535 OFFCURVE",
"54.663 297.777 CURVE SMOOTH",
"20.26 276.466 OFFCURVE",
"11.155 230.396 OFFCURVE",
"34.326 194.878 CURVE SMOOTH",
"42.847 181.817 OFFCURVE",
"54.546 172 OFFCURVE",
"67.644 165.869 CURVE",
"56.941 161.153 OFFCURVE",
"47.343 153.749 OFFCURVE",
"39.909 143.781 CURVE SMOOTH",
"15.767 111.406 OFFCURVE",
"23.538 64.215 OFFCURVE",
"57.266 38.377 CURVE SMOOTH",
"92.283 11.552 OFFCURVE",
"136.466 -6.304 OFFCURVE",
"188.588 -14.694 CURVE SMOOTH",
"210.049 -18.149 OFFCURVE",
"232.486 -19.875 OFFCURVE",
"255.291 -19.875 CURVE SMOOTH"
);
},
{
closed = 1;
nodes = (
"10.441 -292.13 OFFCURVE",
"36.135 -276.936 OFFCURVE",
"47.899 -250.656 CURVE SMOOTH",
"60.879 -221.658 OFFCURVE",
"97.872 -92.025 OFFCURVE",
"127.064 26.761 CURVE SMOOTH",
"144.775 98.828 OFFCURVE",
"158.293 161.125 OFFCURVE",
"167.241 211.92 CURVE SMOOTH",
"183.178 302.378 OFFCURVE",
"180.93 337.152 OFFCURVE",
"177.191 357.341 CURVE SMOOTH",
"169.586 398.402 OFFCURVE",
"130.37 427.264 OFFCURVE",
"89.591 421.812 CURVE SMOOTH",
"48.936 416.373 OFFCURVE",
"22.084 378.873 OFFCURVE",
"29.465 337.952 CURVE",
"29.801 335.201 OFFCURVE",
"31.572 313.997 OFFCURVE",
"18.512 241.12 CURVE SMOOTH",
"10.168 194.557 OFFCURVE",
"-2.877 134.853 OFFCURVE",
"-19.211 68.463 CURVE SMOOTH",
"-49.63 -55.17 OFFCURVE",
"-82.652 -166.478 OFFCURVE",
"-89.871 -183.782 CURVE SMOOTH",
"-106.295 -220.79 OFFCURVE",
"-88.914 -265.707 OFFCURVE",
"-50.968 -284.196 CURVE SMOOTH",
"-39.917 -289.58 OFFCURVE",
"-28.342 -292.131 OFFCURVE",
"-17.069 -292.131 CURVE SMOOTH"
);
},
{
closed = 1;
nodes = (
"179.453 137.459 OFFCURVE",
"158.081 145.361 OFFCURVE",
"144.693 155.617 CURVE SMOOTH",
"140.003 159.21 OFFCURVE",
"135.058 162.201 OFFCURVE",
"129.955 164.601 CURVE",
"132.895 165.904 OFFCURVE",
"135.775 167.421 OFFCURVE",
"138.572 169.153 CURVE SMOOTH",
"205.41 210.556 OFFCURVE",
"258.185 237.565 OFFCURVE",
"299.913 251.721 CURVE SMOOTH",
"333.907 263.253 OFFCURVE",
"361.233 266.235 OFFCURVE",
"376.855 260.114 CURVE SMOOTH",
"388.654 255.492 OFFCURVE",
"400.359 241.244 OFFCURVE",
"406.676 223.817 CURVE SMOOTH",
"412.738 207.093 OFFCURVE",
"411.998 191.99 OFFCURVE",
"408.136 185.716 CURVE SMOOTH",
"396.906 167.473 OFFCURVE",
"357.073 143.491 OFFCURVE",
"296.157 133.947 CURVE SMOOTH",
"264.7 129.019 OFFCURVE",
"233.135 128.818 OFFCURVE",
"204.871 133.368 CURVE SMOOTH"
);
}
);
width = 560;
}
);
unicode = 0070;
},
{
glyphname = q;
lastChange = "2019-04-30 11:37:44 +0000";
layers = (
{
layerId = "E3FE0EAA-297C-4773-BA15-BC72883F874E";
paths = (
{
closed = 1;
nodes = (
"349.779 -365.022 OFFCURVE",
"350.951 -365.022 OFFCURVE",
"352.214 -364.925 CURVE SMOOTH",
"393.386 -362.971 OFFCURVE",
"422.865 -327.815 OFFCURVE",
"418.021 -286.409 CURVE SMOOTH",
"406.708 -190.12 OFFCURVE",
"467.477 121.404 OFFCURVE",
"508.374 295.134 CURVE SMOOTH",
"516.977 331.364 OFFCURVE",
"496.49 370.232 OFFCURVE",
"460.647 385.661 CURVE SMOOTH",
"435.581 396.404 OFFCURVE",
"408.065 393.279 OFFCURVE",
"388.273 378.825 CURVE",
"333.708 424.626 OFFCURVE",
"277.409 446.306 OFFCURVE",
"214.323 446.306 CURVE SMOOTH",
"86.101 446.306 OFFCURVE",
"-49.518 262.712 OFFCURVE",
"-41.159 142.986 CURVE SMOOTH",
"-36.795 80.486 OFFCURVE",
"8.051 7.439 OFFCURVE",
"120.063 7.439 CURVE SMOOTH",
"190.473 7.439 OFFCURVE",
"252.159 30.29 OFFCURVE",
"304.29 62.712 CURVE",
"280.178 -70.296 OFFCURVE",
"259.623 -216.487 OFFCURVE",
"268.721 -293.636 CURVE SMOOTH",
"273.378 -333.772 OFFCURVE",
"308.764 -365.022 OFFCURVE",
"348.509 -365.022 CURVE SMOOTH"
);
},
{
closed = 1;
nodes = (
"121.452 207.146 OFFCURVE",
"189.892 292.693 OFFCURVE",
"224.796 296.306 CURVE",
"243.644 296.306 OFFCURVE",
"266.212 293.376 OFFCURVE",
"300.337 263.396 CURVE",
"255.483 214.861 OFFCURVE",
"190.16 164.372 OFFCURVE",
"110.144 159.294 CURVE"
);
}
);
width = 480;
}
);
leftKerningGroup = a;
unicode = 0071;
},
{
glyphname = r;
lastChange = "2019-04-30 11:37:44 +0000";
layers = (
{
layerId = "E3FE0EAA-297C-4773-BA15-BC72883F874E";
paths = (
{
closed = 1;
nodes = (
"81.235 -9.06 OFFCURVE",
"104.581 8.616 OFFCURVE",
"111.544 35.332 CURVE SMOOTH",
"124.235 85.336 LINE SMOOTH",
"167.139 256.286 OFFCURVE",
"188.231 312.71 OFFCURVE",
"267.595 312.71 CURVE SMOOTH",
"336.086 312.71 OFFCURVE",
"386.716 284.117 OFFCURVE",
"386.881 283.935 CURVE",
"420.208 263.811 OFFCURVE",
"461.052 273.13 OFFCURVE",
"477.629 304.444 CURVE SMOOTH",
"494.197 335.477 OFFCURVE",
"480.852 376.561 OFFCURVE",
"447.892 396.239 CURVE SMOOTH",
"439.459 401.319 OFFCURVE",
"361.249 446.115 OFFCURVE",
"254.671 446.115 CURVE SMOOTH",
"73.456 446.115 OFFCURVE",
"36.051 297.154 OFFCURVE",
"-6.122 129.079 CURVE SMOOTH",
"-18.565 79.919 LINE SMOOTH",
"-27.518 45.428 OFFCURVE",
"-5.862 7.426 OFFCURVE",
"29.828 -5.083 CURVE SMOOTH",
"36.687 -7.453 OFFCURVE",
"44.749 -9.06 OFFCURVE",
"52.956 -9.06 CURVE SMOOTH"
);
}
);
width = 350;
}
);
leftKerningGroup = a;
unicode = 0072;
},
{
glyphname = s;
lastChange = "2019-05-02 12:37:30 +0000";
layers = (
{
layerId = "E3FE0EAA-297C-4773-BA15-BC72883F874E";
paths = (
{
closed = 1;
nodes = (
"224.013 -25.234 OFFCURVE",
"291.174 -8.936 OFFCURVE",
"326.336 36.593 CURVE SMOOTH",
"385.154 112.858 OFFCURVE",
"305.425 183.365 OFFCURVE",
"247.244 234.917 CURVE SMOOTH",
"220.377 258.655 OFFCURVE",
"164.55 308.081 OFFCURVE",
"162.129 326.683 CURVE",
"163.187 331.466 OFFCURVE",
"164.764 335.54 OFFCURVE",
"173.432 339.881 CURVE SMOOTH",
"201.132 353.699 OFFCURVE",
"251.865 347.41 OFFCURVE",
"266.102 340.944 CURVE",
"299.559 324.291 OFFCURVE",
"340.364 337.843 OFFCURVE",
"357.78 371.414 CURVE SMOOTH",
"375.195 404.985 OFFCURVE",
"362.269 445.907 OFFCURVE",
"328.992 462.737 CURVE SMOOTH",
"287.723 483.553 OFFCURVE",
"191.783 498.079 OFFCURVE",
"117.65 462.914 CURVE SMOOTH",
"72.009 441.301 OFFCURVE",
"40.784 403.125 OFFCURVE",
"29.588 355.47 CURVE SMOOTH",
"8.049 263.261 OFFCURVE",
"90.132 190.628 OFFCURVE",
"156.079 132.345 CURVE SMOOTH",
"163.145 126.056 OFFCURVE",
"171.605 118.526 OFFCURVE",
"179.713 111.086 CURVE",
"140.969 109.049 OFFCURVE",
"88.896 114.718 OFFCURVE",
"71.02 125.79 CURVE SMOOTH",
"39.305 145.897 OFFCURVE",
"-2.679 135.799 OFFCURVE",
"-23.075 104 CURVE SMOOTH",
"-43.473 72.112 OFFCURVE",
"-34.461 30.215 OFFCURVE",
"-2.921 10.285 CURVE SMOOTH",
"27.918 -9.202 OFFCURVE",
"92.477 -25.234 OFFCURVE",
"158.023 -25.234 CURVE SMOOTH"
);
}
);
width = 350;
}
);
leftKerningGroup = a;
unicode = 0073;
},
{
glyphname = t;
lastChange = "2019-05-07 14:11:01 +0000";
layers = (
{
layerId = "E3FE0EAA-297C-4773-BA15-BC72883F874E";
paths = (
{
closed = 1;
nodes = (
"236.377 4.971 OFFCURVE",
"269.039 34.047 OFFCURVE",
"272.736 72.864 CURVE SMOOTH",
"287.471 227.586 OFFCURVE",
"362.85 500.276 OFFCURVE",
"363.673 503.243 CURVE SMOOTH",
"374.76 543.154 OFFCURVE",
"351.393 584.494 OFFCURVE",
"311.483 595.58 CURVE SMOOTH",
"271.576 606.667 OFFCURVE",
"230.232 583.301 OFFCURVE",
"219.145 543.39 CURVE SMOOTH",
"215.897 531.696 OFFCURVE",
"139.411 255.077 OFFCURVE",
"123.412 87.085 CURVE SMOOTH",
"119.485 45.85 OFFCURVE",
"149.729 9.239 OFFCURVE",
"190.963 5.312 CURVE SMOOTH",
"193.382 5.081 OFFCURVE",
"195.781 4.969 OFFCURVE",
"198.163 4.969 CURVE SMOOTH"
);
},
{
closed = 1;
nodes = (
"323.988 227.997 OFFCURVE",
"384.392 230.213 OFFCURVE",
"418.297 234.097 CURVE SMOOTH",
"459.449 238.813 OFFCURVE",
"488.988 275.995 OFFCURVE",
"484.273 317.148 CURVE SMOOTH",
"479.558 358.299 OFFCURVE",
"442.379 387.839 OFFCURVE",
"401.223 383.123 CURVE SMOOTH",
"333.318 375.341 OFFCURVE",
"126.533 375.369 OFFCURVE",
"42.651 389.097 CURVE SMOOTH",
"1.773 395.787 OFFCURVE",
"-36.788 368.073 OFFCURVE",
"-43.478 327.195 CURVE SMOOTH",
"-50.168 286.318 OFFCURVE",
"-22.453 247.757 OFFCURVE",
"18.424 241.067 CURVE SMOOTH",
"74.293 231.923 OFFCURVE",
"170.966 227.997 OFFCURVE",
"258.357 227.997 CURVE SMOOTH"
);
}
);
width = 432.19001;
}
);
unicode = 0074;
},
{
glyphname = u;
lastChange = "2019-04-30 11:37:44 +0000";
layers = (
{
anchors = (
{
name = bottom;
position = "{217.378, 0}";
},
{
name = ogonek;
position = "{417.784, 10}";
},
{
name = top;
position = "{280.622, 450}";
},
{
name = topright;
position = "{508.972, 450}";
}
);
layerId = "E3FE0EAA-297C-4773-BA15-BC72883F874E";
paths = (
{
closed = 1;
nodes = (
"491.354 -9.316 OFFCURVE",
"517.788 -4.064 OFFCURVE",
"547.128 6.639 CURVE SMOOTH",
"582.817 19.655 OFFCURVE",
"592.292 62.085 OFFCURVE",
"568.295 101.408 CURVE SMOOTH",
"544.296 140.73 OFFCURVE",
"495.909 162.055 OFFCURVE",
"460.222 149.04 CURVE SMOOTH",
"459.224 148.676 OFFCURVE",
"458.247 148.327 OFFCURVE",
"457.294 147.994 CURVE",
"458.239 160.746 OFFCURVE",
"460.53 177.379 OFFCURVE",
"465.281 198.581 CURVE SMOOTH",
"466.692 204.879 OFFCURVE",
"468.19 210.983 OFFCURVE",
"469.707 216.783 CURVE",
"482.248 249.74 OFFCURVE",
"487.374 273.735 OFFCURVE",
"487.725 275.417 CURVE SMOOTH",
"495.157 310.964 OFFCURVE",
"469.938 353.881 OFFCURVE",
"430.103 373.479 CURVE SMOOTH",
"390.262 393.079 OFFCURVE",
"349.512 382.616 OFFCURVE",
"336.982 349.578 CURVE SMOOTH",
"336.473 348.235 OFFCURVE",
"328.046 325.864 OFFCURVE",
"319.502 294.374 CURVE",
"312.483 276.66 OFFCURVE",
"302.734 255.881 OFFCURVE",
"289.693 235.604 CURVE SMOOTH",
"255.606 182.601 OFFCURVE",
"213.677 154.014 OFFCURVE",
"164.833 150.393 CURVE",
"168.1 166.169 OFFCURVE",
"175.355 189.616 OFFCURVE",
"191.012 222.384 CURVE SMOOTH",
"210.935 264.081 OFFCURVE",
"233.489 297.571 OFFCURVE",
"233.714 297.905 CURVE SMOOTH",
"253.979 327.82 OFFCURVE",
"239.694 375.274 OFFCURVE",
"201.793 403.915 CURVE SMOOTH",
"163.877 432.567 OFFCURVE",
"116.687 431.542 OFFCURVE",
"96.389 401.629 CURVE SMOOTH",
"95.092 399.716 OFFCURVE",
"64.319 354.146 OFFCURVE",
"39.488 298.553 CURVE SMOOTH",
"24.049 263.989 OFFCURVE",
"13.932 232.217 OFFCURVE",
"9.414 204.118 CURVE SMOOTH",
"6.206 184.155 OFFCURVE",
"5.68 165.909 OFFCURVE",
"7.806 148.335 CURVE SMOOTH",
"10.884 122.898 OFFCURVE",
"19.647 99.285 OFFCURVE",
"33.854 78.15 CURVE SMOOTH",
"51.96 51.211 OFFCURVE",
"94.824 5.303 OFFCURVE",
"178.591 0.506 CURVE SMOOTH",
"184.433 0.166 OFFCURVE",
"190.247 -0.004 OFFCURVE",
"196.068 -0.004 CURVE SMOOTH",
"251.584 0 OFFCURVE",
"301.805 15.463 OFFCURVE",
"345.21 45.575 CURVE",
"348.236 42.175 OFFCURVE",
"351.419 38.878 OFFCURVE",
"354.752 35.692 CURVE SMOOTH",
"374.375 16.93 OFFCURVE",
"407.937 -6.055 OFFCURVE",
"456.385 -9.005 CURVE SMOOTH",
"459.786 -9.212 OFFCURVE",
"463.219 -9.316 OFFCURVE",
"466.688 -9.316 CURVE SMOOTH"
);
}
);
width = 497.34999;
}
);
leftKerningGroup = a;
unicode = 0075;
},
{
glyphname = udieresis;
lastChange = "2019-04-30 11:37:44 +0000";
layers = (
{
anchors = (
{
name = _top;
position = "{280.622, 450}";
},
{
name = top;
position = "{324.401, 761.509}";
}
);
components = (
{
name = u;
}
);
layerId = "E3FE0EAA-297C-4773-BA15-BC72883F874E";
paths = (
{
closed = 1;
nodes = (
"471.081 463.427 OFFCURVE",
"506.571 494.695 OFFCURVE",
"509.446 535.55 CURVE SMOOTH",
"515.86 626.684 LINE SMOOTH",
"518.767 668.002 OFFCURVE",
"486.927 703.04 OFFCURVE",
"446.205 705.149 CURVE SMOOTH",
"405.278 707.268 OFFCURVE",
"369.788 676 OFFCURVE",
"366.913 635.145 CURVE SMOOTH",
"360.501 544.033 LINE SMOOTH",
"357.799 505.625 OFFCURVE",
"384.91 471.936 OFFCURVE",
"422.919 466.24 CURVE SMOOTH",
"425.47 465.858 OFFCURVE",
"427.992 465.658 OFFCURVE",
"430.154 465.546 CURVE SMOOTH"
);
},
{
closed = 1;
nodes = (
"248.617 485.485 OFFCURVE",
"251.145 485.59 OFFCURVE",
"253.709 485.877 CURVE SMOOTH",
"291.904 490.147 OFFCURVE",
"320.256 522.799 OFFCURVE",
"318.992 561.281 CURVE SMOOTH",
"315.992 652.569 LINE SMOOTH",
"314.647 693.503 OFFCURVE",
"280.351 726.076 OFFCURVE",
"239.373 725.489 CURVE SMOOTH",
"198.601 724.905 OFFCURVE",
"165.473 691.082 OFFCURVE",
"166.833 649.684 CURVE SMOOTH",
"169.834 558.374 LINE SMOOTH",
"171.179 517.44 OFFCURVE",
"205.475 484.867 OFFCURVE",
"246.453 485.454 CURVE SMOOTH"
);
}
);
width = 497.34999;
}
);
unicode = 00FC;
},
{
glyphname = udieresisgrave;
lastChange = "2019-04-30 11:37:44 +0000";
layers = (
{
anchors = (
{
name = _top;
position = "{280.622, 450}";
},
{
name = top;
position = "{281.408, 761.509}";
}
);
components = (
{
name = u;
},
{
name = gravecomb;
transform = "{0.99339, -0.11483, 0.11483, 0.99339, 82.615, 237.916}";
}
);
layerId = "E3FE0EAA-297C-4773-BA15-BC72883F874E";
paths = (
{
closed = 1;
nodes = (
"262.306 452.072 OFFCURVE",
"298.193 481.686 OFFCURVE",
"302.361 521.853 CURVE SMOOTH",
"313.309 621.881 LINE SMOOTH",
"317.286 662.084 OFFCURVE",
"288.025 697.817 OFFCURVE",
"247.782 700.587 CURVE SMOOTH",
"207.557 703.951 OFFCURVE",
"171.669 674.336 OFFCURVE",
"167.5 634.169 CURVE SMOOTH",
"156.553 534.141 LINE SMOOTH",
"152.788 496.483 OFFCURVE",
"178.419 463 OFFCURVE",
"214.996 456.329 CURVE SMOOTH",
"217.299 455.909 OFFCURVE",
"219.642 455.681 OFFCURVE",
"222.081 455.434 CURVE SMOOTH"
);
},
{
closed = 1;
nodes = (
"464.819 443.566 OFFCURVE",
"500.199 473.783 OFFCURVE",
"503.688 514.015 CURVE",
"514.394 577.716 LINE",
"517.689 617.98 OFFCURVE",
"487.829 653.214 OFFCURVE",
"447.543 655.303 CURVE SMOOTH",
"407.267 657.984 OFFCURVE",
"371.886 627.767 OFFCURVE",
"368.398 587.535 CURVE",
"357.692 523.834 LINE",
"354.564 486.117 OFFCURVE",
"380.759 453.073 OFFCURVE",
"417.443 447.022 CURVE SMOOTH",
"419.754 446.641 OFFCURVE",
"422.1 446.452 OFFCURVE",
"424.542 446.247 CURVE SMOOTH"
);
}
);
width = 497.34999;
}
);
unicode = 01DC;
},
{
glyphname = v;
lastChange = "2019-05-07 14:10:24 +0000";
layers = (
{
layerId = "E3FE0EAA-297C-4773-BA15-BC72883F874E";
paths = (
{
closed = 1;
nodes = (
"183.097 -34.602 OFFCURVE",
"208.738 -17.88 OFFCURVE",
"220.556 7.244 CURVE SMOOTH",
"289.606 154.044 OFFCURVE",
"375.368 326.776 OFFCURVE",
"399.609 361.757 CURVE",
"422.352 382.221 OFFCURVE",
"429.912 414.517 OFFCURVE",
"418.556 442.951 CURVE SMOOTH",
"403.837 479.809 OFFCURVE",
"361.557 497.915 OFFCURVE",
"324.072 483.498 CURVE SMOOTH",
"301.437 474.792 OFFCURVE",
"281.421 466.369 OFFCURVE",
"169.586 237.942 CURVE",
"150.243 299.947 OFFCURVE",
"129.545 364.473 OFFCURVE",
"114.632 406.796 CURVE SMOOTH",
"101.13 445.115 OFFCURVE",
"59.161 465.022 OFFCURVE",
"21.807 451.097 CURVE SMOOTH",
"-15.679 437.122 OFFCURVE",
"-35.837 396.311 OFFCURVE",
"-22.529 358.478 CURVE SMOOTH",
"13.771 255.284 OFFCURVE",
"84.986 17.615 OFFCURVE",
"85.047 17.372 CURVE",
"93.829 -11.791 OFFCURVE",
"119.185 -32.123 OFFCURVE",
"149.398 -34.41 CURVE SMOOTH",
"151.201 -34.547 OFFCURVE",
"153.053 -34.602 OFFCURVE",
"154.736 -34.602 CURVE SMOOTH"
);
}
);
width = 340;
}
);
unicode = 0076;
},
{
glyphname = w;
lastChange = "2019-04-30 11:37:44 +0000";
layers = (
{
layerId = "E3FE0EAA-297C-4773-BA15-BC72883F874E";
paths = (
{
closed = 1;
nodes = (
"538.861 -10 OFFCURVE",
"593.646 17.344 OFFCURVE",
"638.08 69.004 CURVE SMOOTH",
"705.072 147.129 OFFCURVE",
"743.939 281.895 OFFCURVE",
"728.51 382.48 CURVE SMOOTH",
"722.65 419.59 OFFCURVE",
"686.518 444.785 OFFCURVE",
"651.166 439.316 CURVE SMOOTH",
"614.057 433.652 OFFCURVE",
"588.666 398.984 OFFCURVE",
"594.33 361.973 CURVE SMOOTH",
"602.826 306.406 OFFCURVE",
"581.049 210.996 OFFCURVE",
"535.053 157.383 CURVE SMOOTH",
"516.986 136.387 OFFCURVE",
"498.334 125.742 OFFCURVE",
"479.584 125.742 CURVE SMOOTH",
"449.896 125.742 OFFCURVE",
"416.205 233.945 OFFCURVE",
"414.154 336.289 CURVE SMOOTH",
"413.472 367.344 OFFCURVE",
"391.889 394.102 OFFCURVE",
"361.615 401.133 CURVE SMOOTH",
"331.342 408.164 OFFCURVE",
"300.288 393.711 OFFCURVE",
"285.932 366.172 CURVE SMOOTH",
"238.373 273.984 OFFCURVE",
"174.604 180.332 OFFCURVE",
"144.623 148.887 CURVE",
"130.756 194.98 OFFCURVE",
"130.072 300.254 OFFCURVE",
"146.088 348.984 CURVE SMOOTH",
"157.807 384.531 OFFCURVE",
"138.472 422.91 OFFCURVE",
"102.826 434.629 CURVE SMOOTH",
"67.279 446.836 OFFCURVE",
"28.9 427.012 OFFCURVE",
"17.182 391.367 CURVE SMOOTH",
"-7.135 317.637 OFFCURVE",
"-15.826 132.578 OFFCURVE",
"42.768 51.523 CURVE SMOOTH",
"65.424 20.273 OFFCURVE",
"97.455 2.988 OFFCURVE",
"133.002 2.988 CURVE SMOOTH",
"192.572 2.988 OFFCURVE",
"254.779 63.633 OFFCURVE",
"310.347 142.148 CURVE",
"337.396 63.047 OFFCURVE",
"387.396 -10 OFFCURVE",
"479.584 -10 CURVE SMOOTH"
);
}
);
width = 710;
}
);
unicode = 0077;
},
{
glyphname = x;
lastChange = "2019-04-30 11:37:44 +0000";
layers = (
{
layerId = "E3FE0EAA-297C-4773-BA15-BC72883F874E";
paths = (
{
closed = 1;
nodes = (
"45.951 0 OFFCURVE",
"54.817 1.767 OFFCURVE",
"63.44 5.58 CURVE SMOOTH",
"121.082 30.971 OFFCURVE",
"177.384 75.521 OFFCURVE",
"223.294 126.767 CURVE",
"272.394 73.103 OFFCURVE",
"333.012 29.204 OFFCURVE",
"391.951 11.719 CURVE SMOOTH",
"425.73 2.046 OFFCURVE",
"462.152 21.298 OFFCURVE",
"472.98 55.525 CURVE SMOOTH",
"483.622 89.751 OFFCURVE",
"464.625 125.651 OFFCURVE",
"430.575 135.789 CURVE SMOOTH",
"381.906 150.205 OFFCURVE",
"334.578 193.545 OFFCURVE",
"300.286 237.723 CURVE",
"323.897 284.97 OFFCURVE",
"335.207 330.822 OFFCURVE",
"328.033 367.374 CURVE SMOOTH",
"318.56 416.109 OFFCURVE",
"278.837 447.545 OFFCURVE",
"226.847 447.545 CURVE SMOOTH",
"170.671 447.545 OFFCURVE",
"128.777 413.225 OFFCURVE",
"120.224 360.119 CURVE SMOOTH",
"114.291 323.94 OFFCURVE",
"125.244 280.041 OFFCURVE",
"147.347 235.584 CURVE",
"113.569 191.964 OFFCURVE",
"66.378 147.228 OFFCURVE",
"13.047 123.698 CURVE SMOOTH",
"-19.852 109.189 OFFCURVE",
"-35.212 71.057 OFFCURVE",
"-21.273 38.411 CURVE SMOOTH",
"-10.998 14.323 OFFCURVE",
"12.376 0 OFFCURVE",
"37.115 0 CURVE SMOOTH"
);
}
);
width = 430;
}
);
leftKerningGroup = a;
unicode = 0078;
},
{
glyphname = y;
lastChange = "2019-04-30 11:37:44 +0000";
layers = (
{
layerId = "E3FE0EAA-297C-4773-BA15-BC72883F874E";
paths = (
{
closed = 1;
nodes = (
"98.63 -235.352 OFFCURVE",
"124.216 -221.485 OFFCURVE",
"137.986 -196.68 CURVE SMOOTH",
"176.365 -127.539 OFFCURVE",
"424.314 211.718 OFFCURVE",
"505.173 300.781 CURVE SMOOTH",
"533.005 331.445 OFFCURVE",
"530.662 378.906 OFFCURVE",
"499.998 406.64 CURVE SMOOTH",
"469.138 434.765 OFFCURVE",
"421.873 432.617 OFFCURVE",
"394.041 401.562 CURVE SMOOTH",
"311.033 309.961 OFFCURVE",
"54.002 -38.672 OFFCURVE",
"6.736 -124.024 CURVE SMOOTH",
"-13.284 -160.157 OFFCURVE",
"-0.198 -205.86 OFFCURVE",
"36.033 -225.977 CURVE SMOOTH",
"47.556 -232.422 OFFCURVE",
"59.959 -235.352 OFFCURVE",
"72.263 -235.352 CURVE SMOOTH"
);
},
{
closed = 1;
nodes = (
"196.677 -50.782 OFFCURVE",
"204.099 -49.805 OFFCURVE",
"211.521 -47.461 CURVE SMOOTH",
"251.072 -35.352 OFFCURVE",
"273.337 6.64 OFFCURVE",
"261.13 46.289 CURVE SMOOTH",
"225.779 161.328 OFFCURVE",
"92.283 375.39 OFFCURVE",
"77.146 399.414 CURVE SMOOTH",
"55.173 434.375 OFFCURVE",
"9.08 445.117 OFFCURVE",
"-26.272 423.047 CURVE SMOOTH",
"-61.33 400.976 OFFCURVE",
"-71.877 354.687 OFFCURVE",
"-49.807 319.726 CURVE SMOOTH",
"-11.721 258.984 OFFCURVE",
"92.673 83.789 OFFCURVE",
"117.771 2.148 CURVE SMOOTH",
"127.634 -30.078 OFFCURVE",
"157.322 -50.782 OFFCURVE",
"189.451 -50.782 CURVE SMOOTH"
);
}
);
width = 450;
}
);
unicode = 0079;
},
{
glyphname = z;
lastChange = "2019-04-30 11:37:44 +0000";
layers = (
{
layerId = "E3FE0EAA-297C-4773-BA15-BC72883F874E";
paths = (
{
closed = 1;
nodes = (
"316.23 -25.979 OFFCURVE",
"397.73 -13.223 OFFCURVE",
"443.432 7.681 CURVE SMOOTH",
"476.916 22.916 OFFCURVE",
"495.206 60.65 OFFCURVE",
"484.413 91.829 CURVE SMOOTH",
"473.709 123.008 OFFCURVE",
"438.082 136.826 OFFCURVE",
"404.169 121.059 CURVE SMOOTH",
"348.573 95.904 OFFCURVE",
"233.25 94.663 OFFCURVE",
"162.243 104.407 CURVE",
"178.97 112.556 OFFCURVE",
"196.205 120.528 OFFCURVE",
"210.81 127.437 CURVE SMOOTH",
"343.186 189.264 OFFCURVE",
"493.175 259.24 OFFCURVE",
"458.676 366.772 CURVE SMOOTH",
"446.943 403.266 OFFCURVE",
"411.861 428.599 OFFCURVE",
"354.256 441.709 CURVE SMOOTH",
"264.184 462.081 OFFCURVE",
"92.821 455.349 OFFCURVE",
"5.193 388.562 CURVE SMOOTH",
"-24.522 366.064 OFFCURVE",
"-33.277 326.204 OFFCURVE",
"-14.489 299.631 CURVE SMOOTH",
"4.412 273.235 OFFCURVE",
"43.713 269.869 OFFCURVE",
"73.453 292.545 CURVE SMOOTH",
"122.558 329.57 OFFCURVE",
"271.128 332.936 OFFCURVE",
"322.026 320.004 CURVE",
"287.068 294.848 OFFCURVE",
"213.445 260.48 OFFCURVE",
"170.145 240.284 CURVE SMOOTH",
"69.875 193.338 OFFCURVE",
"9.429 165.171 OFFCURVE",
"-11.872 115.391 CURVE SMOOTH",
"-19.118 98.384 OFFCURVE",
"-19.416 68.976 OFFCURVE",
"-12.395 53.918 CURVE SMOOTH",
"14.361 -3.126 OFFCURVE",
"124.726 -25.979 OFFCURVE",
"234.296 -25.979 CURVE SMOOTH"
);
}
);
width = 440;
}
);
unicode = 007A;
},
{
export = 0;
glyphname = s.001;
lastChange = "2019-04-30 11:37:44 +0000";
layers = (
{
layerId = "E3FE0EAA-297C-4773-BA15-BC72883F874E";
paths = (
{
closed = 1;
nodes = (
"249.886 -16.778 OFFCURVE",
"273.526 -13.896 OFFCURVE",
"293.048 -7.971 CURVE SMOOTH",
"332.133 3.892 OFFCURVE",
"350.781 27.072 OFFCURVE",
"359.541 44.428 CURVE SMOOTH",
"376.289 77.61 OFFCURVE",
"373.551 117.713 OFFCURVE",
"351.402 163.624 CURVE SMOOTH",
"336.757 193.978 OFFCURVE",
"312.244 229.767 OFFCURVE",
"276.464 273.036 CURVE SMOOTH",
"262.324 290.135 OFFCURVE",
"266.133 297.809 OFFCURVE",
"267.385 300.332 CURVE SMOOTH",
"273.874 313.404 OFFCURVE",
"303.418 330.147 OFFCURVE",
"358.207 322.699 CURVE SMOOTH",
"399.836 317.035 OFFCURVE",
"434.681 345.714 OFFCURVE",
"436.044 386.747 CURVE SMOOTH",
"437.406 427.78 OFFCURVE",
"404.766 465.632 OFFCURVE",
"363.141 471.292 CURVE SMOOTH",
"255.708 485.896 OFFCURVE",
"166.658 450 OFFCURVE",
"130.727 377.605 CURVE SMOOTH",
"116.199 348.332 OFFCURVE",
"111.69 314.955 OFFCURVE",
"117.689 281.083 CURVE SMOOTH",
"123.557 247.952 OFFCURVE",
"139.592 214.8 OFFCURVE",
"164.06 185.213 CURVE SMOOTH",
"182.696 162.676 OFFCURVE",
"195.133 145.718 OFFCURVE",
"203.421 133.227 CURVE",
"196.912 133.265 OFFCURVE",
"189.203 133.506 OFFCURVE",
"180.109 134.049 CURVE SMOOTH",
"141.379 136.362 OFFCURVE",
"91.512 143.29 OFFCURVE",
"47.839 149.763 CURVE SMOOTH",
"6.234 155.923 OFFCURVE",
"-29.016 127.723 OFFCURVE",
"-30.892 86.763 CURVE SMOOTH",
"-32.768 45.803 OFFCURVE",
"-0.561 7.6 OFFCURVE",
"41.045 1.433 CURVE SMOOTH",
"104.617 -7.988 OFFCURVE",
"170.325 -16.715 OFFCURVE",
"220.232 -16.777 CURVE SMOOTH"
);
}
);
width = 413.73;
}
);
},
{
glyphname = f_f;
lastChange = "2019-05-07 08:07:54 +0000";
layers = (
{
anchors = (
{
name = caret_1;
position = "{425, 0}";
}
);
layerId = "E3FE0EAA-297C-4773-BA15-BC72883F874E";
paths = (
{
closed = 1;
nodes = (
"184.469 -101.182 LINE SMOOTH",
"220.566 -100.303 OFFCURVE",
"251.161 -70.518 OFFCURVE",
"252.896 -34.482 CURVE SMOOTH",
"269.634 322.744 OFFCURVE",
"325.498 571.768 OFFCURVE",
"406.17 648.818 CURVE SMOOTH",
"425.212 666.982 OFFCURVE",
"440.317 669.326 OFFCURVE",
"446.712 670.009 CURVE",
"456.269 665.615 OFFCURVE",
"474.059 637.881 OFFCURVE",
"482.545 613.955 CURVE SMOOTH",
"494.394 580.85 OFFCURVE",
"531.096 565.225 OFFCURVE",
"565.567 579.189 CURVE SMOOTH",
"599.647 593.154 OFFCURVE",
"617.925 631.143 OFFCURVE",
"606.473 664.346 CURVE SMOOTH",
"598.583 687.002 OFFCURVE",
"554.602 799.795 OFFCURVE",
"460.364 799.795 CURVE SMOOTH",
"408.997 799.795 OFFCURVE",
"360.188 779.092 OFFCURVE",
"319.173 739.931 CURVE SMOOTH",
"207.737 633.486 OFFCURVE",
"141.43 371.963 OFFCURVE",
"122.223 -37.412 CURVE SMOOTH",
"120.522 -72.959 OFFCURVE",
"147.653 -101.182 OFFCURVE",
"183.004 -101.182 CURVE SMOOTH"
);
},
{
closed = 1;
nodes = (
"905.219 212.783 OFFCURVE",
"936.456 241.982 OFFCURVE",
"938.972 278.018 CURVE SMOOTH",
"941.488 314.052 OFFCURVE",
"914.328 343.252 OFFCURVE",
"878.293 343.252 CURVE SMOOTH",
"681.125 343.252 OFFCURVE",
"167.745 365.615 OFFCURVE",
"14.067 392.666 CURVE SMOOTH",
"-20.521 399.404 OFFCURVE",
"-56.398 375.088 OFFCURVE",
"-65.033 339.541 CURVE SMOOTH",
"-73.66 304.092 OFFCURVE",
"-52.289 270.302 OFFCURVE",
"-17.172 264.15 CURVE SMOOTH",
"148.368 234.951 OFFCURVE",
"670.844 212.783 OFFCURVE",
"869.183 212.783 CURVE SMOOTH"
);
},
{
closed = 1;
nodes = (
"629.425 -69.932 OFFCURVE",
"632.863 -69.639 OFFCURVE",
"636.315 -69.15 CURVE SMOOTH",
"677.329 -63.584 OFFCURVE",
"708.267 -26.084 OFFCURVE",
"705.433 14.443 CURVE SMOOTH",
"689.754 243.056 OFFCURVE",
"718.615 414.443 OFFCURVE",
"784.748 484.658 CURVE SMOOTH",
"809.649 511.221 OFFCURVE",
"840.391 523.525 OFFCURVE",
"881.407 523.525 CURVE SMOOTH",
"914.61 523.525 OFFCURVE",
"931.258 507.412 OFFCURVE",
"933.257 505.264 CURVE",
"958.221 475.381 OFFCURVE",
"1003.518 472.353 OFFCURVE",
"1035.995 498.33 CURVE SMOOTH",
"1069.002 524.893 OFFCURVE",
"1076.077 571.67 OFFCURVE",
"1051.794 602.92 CURVE SMOOTH",
"1046.23 609.951 OFFCURVE",
"994.993 671.963 OFFCURVE",
"891.771 671.963 CURVE SMOOTH",
"808.275 671.963 OFFCURVE",
"734.915 640.908 OFFCURVE",
"679.639 582.119 CURVE SMOOTH",
"578.897 474.99 OFFCURVE",
"537.642 277.139 OFFCURVE",
"557.14 -5.869 CURVE SMOOTH",
"559.627 -42.979 OFFCURVE",
"589.581 -69.932 OFFCURVE",
"626.007 -69.932 CURVE SMOOTH"
);
}
);
width = 870;
}
);
},
{
glyphname = A_l.liga;
lastChange = "2019-05-07 14:09:46 +0000";
layers = (
{
layerId = "E3FE0EAA-297C-4773-BA15-BC72883F874E";
paths = (
{
closed = 1;
nodes = (
"76.145 -12.83 OFFCURVE",
"108.371 15.685 OFFCURVE",
"112.277 53.966 CURVE SMOOTH",
"114.817 79.748 OFFCURVE",
"145.285 134.63 OFFCURVE",
"177.707 192.834 CURVE SMOOTH",
"196.848 227.599 OFFCURVE",
"218.527 266.662 OFFCURVE",
"241.184 310.998 CURVE SMOOTH",
"268.137 363.732 OFFCURVE",
"294.113 416.662 OFFCURVE",
"317.356 464.513 CURVE SMOOTH",
"320.676 471.349 OFFCURVE",
"324.192 478.576 OFFCURVE",
"327.707 485.607 CURVE",
"341.965 405.138 OFFCURVE",
"356.418 310.216 OFFCURVE",
"366.379 245.177 CURVE SMOOTH",
"378.488 166.662 OFFCURVE",
"388.84 99.279 OFFCURVE",
"395.871 65.685 CURVE SMOOTH",
"404.27 25.841 OFFCURVE",
"442.356 0.841 OFFCURVE",
"483.762 8.263 CURVE SMOOTH",
"523.801 16.662 OFFCURVE",
"549.582 55.92 OFFCURVE",
"541.184 96.154 CURVE SMOOTH",
"534.543 128.185 OFFCURVE",
"524.582 192.638 OFFCURVE",
"513.254 267.638 CURVE SMOOTH",
"447.434 696.74 OFFCURVE",
"434.152 751.427 OFFCURVE",
"351.145 751.427 CURVE SMOOTH",
"292.16 751.427 OFFCURVE",
"275.559 717.443 OFFCURVE",
"183.957 529.552 CURVE SMOOTH",
"161.106 482.482 OFFCURVE",
"135.715 430.334 OFFCURVE",
"109.152 378.576 CURVE SMOOTH",
"87.277 335.998 OFFCURVE",
"66.379 298.302 OFFCURVE",
"47.824 264.904 CURVE SMOOTH",
"2.902 183.654 OFFCURVE",
"-29.715 125.06 OFFCURVE",
"-35.379 68.81 CURVE SMOOTH",
"-39.48 27.99 OFFCURVE",
"-9.793 -8.338 OFFCURVE",
"31.027 -12.44 CURVE SMOOTH",
"33.567 -12.635 OFFCURVE",
"36.106 -12.83 OFFCURVE",
"38.449 -12.83 CURVE SMOOTH"
);
},
{
closed = 1;
nodes = (
"195.676 236.584 OFFCURVE",
"205.832 238.537 OFFCURVE",
"215.598 242.834 CURVE SMOOTH",
"278.488 270.763 OFFCURVE",
"425.905 253.185 OFFCURVE",
"500.186 237.555 CURVE SMOOTH",
"532.249 230.808 OFFCURVE",
"562.331 260.698 OFFCURVE",
"570.694 293.896 CURVE SMOOTH",
"579.161 327.506 OFFCURVE",
"564.607 361.54 OFFCURVE",
"532.222 373.297 CURVE SMOOTH",
"459.035 399.866 OFFCURVE",
"233.176 412.755 OFFCURVE",
"155.832 378.771 CURVE SMOOTH",
"118.332 362.17 OFFCURVE",
"101.34 318.42 OFFCURVE",
"117.746 280.92 CURVE SMOOTH",
"130.051 253.185 OFFCURVE",
"157.199 236.584 OFFCURVE",
"185.715 236.584 CURVE SMOOTH"
);
},
{
closed = 1;
nodes = (
"727.965 7.137 OFFCURVE",
"760.829 37.046 OFFCURVE",
"763.856 76.386 CURVE SMOOTH",
"765.406 96.54 OFFCURVE",
"758.839 115.445 OFFCURVE",
"746.911 129.89 CURVE",
"747.29 152.487 OFFCURVE",
"752.846 209.185 OFFCURVE",
"784.995 338.789 CURVE SMOOTH",
"808.756 434.572 OFFCURVE",
"834.969 520.967 OFFCURVE",
"835.307 522.078 CURVE SMOOTH",
"847.367 561.705 OFFCURVE",
"825.021 603.606 OFFCURVE",
"785.394 615.666 CURVE SMOOTH",
"745.768 627.725 OFFCURVE",
"703.866 605.379 OFFCURVE",
"691.806 565.752 CURVE SMOOTH",
"690.535 561.576 OFFCURVE",
"660.378 462.233 OFFCURVE",
"634.367 354.293 CURVE SMOOTH",
"618.801 289.693 OFFCURVE",
"607.974 235.354 OFFCURVE",
"602.191 192.782 CURVE SMOOTH",
"592.148 118.868 OFFCURVE",
"596.505 76.346 OFFCURVE",
"617.226 46.011 CURVE SMOOTH",
"632.606 23.496 OFFCURVE",
"656.697 9.398 OFFCURVE",
"683.324 7.359 CURVE SMOOTH",
"685.283 7.209 OFFCURVE",
"687.225 7.135 OFFCURVE",
"689.157 7.135 CURVE SMOOTH"
);
}
);
width = 820;
}
);
rightKerningGroup = l;
},
{
glyphname = P_h_i_p_i.liga;
lastChange = "2019-05-02 12:37:58 +0000";
layers = (
{
layerId = "E3FE0EAA-297C-4773-BA15-BC72883F874E";
paths = (
{
closed = 1;
nodes = (
"347.71 -42.416 OFFCURVE",
"352.681 -42.079 OFFCURVE",
"357.605 -41.098 CURVE SMOOTH",
"396.468 -33.28 OFFCURVE",
"422.25 4.356 OFFCURVE",
"415.289 43.106 CURVE SMOOTH",
"410.088 71.093 OFFCURVE",
"409.712 113.695 OFFCURVE",
"414.025 161.097 CURVE",
"599.453 252.422 OFFCURVE",
"739.44 458.618 OFFCURVE",
"741.459 574.312 CURVE SMOOTH",
"742.048 608.062 OFFCURVE",
"731.558 639.052 OFFCURVE",
"712.151 660.563 CURVE SMOOTH",
"697.423 676.927 OFFCURVE",
"668.237 698.091 OFFCURVE",
"621.446 698.091 CURVE SMOOTH",
"546.49 698.091 OFFCURVE",
"476.956 662.438 OFFCURVE",
"420.833 595.366 CURVE SMOOTH",
"359.103 521.714 OFFCURVE",
"309.863 402.106 OFFCURVE",
"284.503 264.917 CURVE",
"265.396 260.272 OFFCURVE",
"246.293 257.817 OFFCURVE",
"227.798 257.817 CURVE SMOOTH",
"187.327 257.817 OFFCURVE",
"156.278 269.253 OFFCURVE",
"142.314 290.438 CURVE SMOOTH",
"122.136 321.07 OFFCURVE",
"127.921 379.462 OFFCURVE",
"159.245 454.795 CURVE SMOOTH",
"236.822 640.174 OFFCURVE",
"388.48 735.455 OFFCURVE",
"447.624 735.455 CURVE SMOOTH",
"471.088 735.455 OFFCURVE",
"508.407 722.921 OFFCURVE",
"516.272 713.429 CURVE",
"534.038 679.156 OFFCURVE",
"576.06 665.449 OFFCURVE",
"611.129 682.648 CURVE SMOOTH",
"646.794 700.326 OFFCURVE",
"661.918 743.223 OFFCURVE",
"644.993 778.685 CURVE SMOOTH",
"617.359 836.266 OFFCURVE",
"533.909 878.861 OFFCURVE",
"449.778 878.861 CURVE SMOOTH",
"320.899 878.861 OFFCURVE",
"122.344 736.016 OFFCURVE",
"27.019 508.29 CURVE SMOOTH",
"-24.532 384.489 OFFCURVE",
"-26.283 283.672 OFFCURVE",
"22.214 210.173 CURVE SMOOTH",
"68.227 140.513 OFFCURVE",
"163.597 104.704 OFFCURVE",
"268.156 116.8 CURVE",
"267.049 78.154 OFFCURVE",
"268.95 43.284 OFFCURVE",
"274.032 15.439 CURVE SMOOTH",
"280.214 -18.025 OFFCURVE",
"309.544 -42.416 OFFCURVE",
"343.581 -42.416 CURVE SMOOTH"
);
},
{
closed = 1;
nodes = (
"475.835 420.91 OFFCURVE",
"501.142 469.561 OFFCURVE",
"530.246 504.271 CURVE SMOOTH",
"550.535 528.605 OFFCURVE",
"571.046 543.68 OFFCURVE",
"593.071 550.469 CURVE",
"581.935 516.048 OFFCURVE",
"555.209 471.223 OFFCURVE",
"520.707 429.142 CURVE SMOOTH",
"501.992 406.335 OFFCURVE",
"480.139 383.387 OFFCURVE",
"455.8 361.832 CURVE"
);
},
{
closed = 1;
nodes = (
"924.193 -26.661 OFFCURVE",
"933.644 -24.652 OFFCURVE",
"942.501 -20.355 CURVE SMOOTH",
"980.543 -1.899 OFFCURVE",
"998.096 32.551 OFFCURVE",
"986.241 65.794 CURVE",
"986.98 102.98 OFFCURVE",
"1026.157 345.556 OFFCURVE",
"1076.37 623.656 CURVE SMOOTH",
"1083.473 662.996 OFFCURVE",
"1057.167 698.575 OFFCURVE",
"1017.339 701.605 CURVE",
"977.543 706.376 OFFCURVE",
"941.957 678.477 OFFCURVE",
"934.572 636.484 CURVE SMOOTH",
"833.593 62.219 OFFCURVE",
"840.314 38.19 OFFCURVE",
"847.313 20.068 CURVE SMOOTH",
"857.894 -7.329 OFFCURVE",
"885.853 -26.661 OFFCURVE",
"914.923 -26.661 CURVE SMOOTH"
);
},
{
closed = 1;
nodes = (
"1269.573 -26.5 OFFCURVE",
"1275.568 -25.816 OFFCURVE",
"1282.247 -24.095 CURVE SMOOTH",
"1321.068 -14.09 OFFCURVE",
"1347.34 24.684 OFFCURVE",
"1341.092 62.885 CURVE SMOOTH",
"1317.079 209.715 OFFCURVE",
"1350.946 650.743 OFFCURVE",
"1351.243 655.127 CURVE SMOOTH",
"1353.709 691.6 OFFCURVE",
"1325.584 721.417 OFFCURVE",
"1284.701 725.911 CURVE",
"1244.984 725.182 OFFCURVE",
"1210.564 692.737 OFFCURVE",
"1207.553 653.35 CURVE SMOOTH",
"1206.116 634.55 OFFCURVE",
"1171.84 190.829 OFFCURVE",
"1198.763 27.507 CURVE SMOOTH",
"1204.015 -4.357 OFFCURVE",
"1230.563 -26.5 OFFCURVE",
"1263.45 -26.5 CURVE SMOOTH"
);
},
{
closed = 1;
nodes = (
"721.049 515.504 OFFCURVE",
"726.035 515.928 OFFCURVE",
"730.995 516.989 CURVE SMOOTH",
"943.786 562.524 OFFCURVE",
"1340.483 615.737 OFFCURVE",
"1477.091 596.006 CURVE SMOOTH",
"1516.138 590.367 OFFCURVE",
"1553.764 616.536 OFFCURVE",
"1563.384 655.95 CURVE SMOOTH",
"1572.948 695.137 OFFCURVE",
"1549.345 732.557 OFFCURVE",
"1510.161 738.149 CURVE SMOOTH",
"1342.982 762.006 OFFCURVE",
"908.953 699.374 OFFCURVE",
"713.283 657.485 CURVE SMOOTH",
"674.247 649.128 OFFCURVE",
"646.337 611.574 OFFCURVE",
"650.579 573.015 CURVE SMOOTH",
"654.318 539.032 OFFCURVE",
"682.231 514.827 OFFCURVE",
"716.93 515.432 CURVE SMOOTH"
);
}
);
width = 1540;
}
);
rightKerningGroup = T;
},
{
glyphname = n_n.liga;
lastChange = "2019-05-07 08:05:00 +0000";
layers = (
{
anchors = (
{
name = bottom_1;
position = "{268.378, 0}";
},
{
name = bottom_2;
position = "{868.378, 0}";
},
{
name = caret_1;
position = "{600, 0}";
},
{
name = top_1;
position = "{331.622, 450}";
},
{
name = top_2;
position = "{931.622, 450}";
}
);
layerId = "E3FE0EAA-297C-4773-BA15-BC72883F874E";
paths = (
{
closed = 1;
nodes = (
"88.738 -5.371 OFFCURVE",
"119.578 16.491 OFFCURVE",
"128.621 43.315 CURVE SMOOTH",
"157.89 130.321 OFFCURVE",
"242.418 300.717 OFFCURVE",
"319.739 302.368 CURVE",
"357.069 301.275 OFFCURVE",
"410.31 182.278 OFFCURVE",
"419.506 71.361 CURVE SMOOTH",
"423.014 30.287 OFFCURVE",
"461.412 0.384 OFFCURVE",
"502.902 5.085 CURVE SMOOTH",
"545.875 9.316 OFFCURVE",
"575.407 43.081 OFFCURVE",
"572.074 84.331 CURVE SMOOTH",
"561.378 218.267 OFFCURVE",
"497.664 452.599 OFFCURVE",
"316.728 448.778 CURVE SMOOTH",
"253.642 447.51 OFFCURVE",
"198.204 417.039 OFFCURVE",
"158.056 380.056 CURVE",
"161.443 380.056 LINE",
"169.769 380.056 LINE",
"174.708 380.056 LINE",
"174.309 382.57 OFFCURVE",
"174.305 382.471 OFFCURVE",
"173.609 385.712 CURVE SMOOTH",
"165.535 425.078 OFFCURVE",
"120.923 450.896 OFFCURVE",
"81.831 441.121 CURVE SMOOTH",
"39.41 430.644 OFFCURVE",
"15.695 394.738 OFFCURVE",
"24.087 353.589 CURVE SMOOTH",
"31.401 317.851 OFFCURVE",
"8.311 185.799 OFFCURVE",
"-16.981 89.035 CURVE SMOOTH",
"-27.384 49.135 OFFCURVE",
"-7.88 13.805 OFFCURVE",
"32.541 -0.771 CURVE SMOOTH",
"36.306 -2.244 OFFCURVE",
"45.823 -4.197 OFFCURVE",
"54.742 -4.442 CURVE SMOOTH"
);
},
{
closed = 1;
nodes = (
"644.133 -0.453 OFFCURVE",
"669.097 13.566 OFFCURVE",
"681.259 37.957 CURVE SMOOTH",
"714.563 104.749 OFFCURVE",
"834.713 292.983 OFFCURVE",
"944.141 290.264 CURVE SMOOTH",
"967.982 289.672 OFFCURVE",
"978.422 281.214 OFFCURVE",
"985.439 273.036 CURVE SMOOTH",
"1020.337 232.364 OFFCURVE",
"1020.557 132.007 OFFCURVE",
"1015.12 89.686 CURVE SMOOTH",
"1010.121 50.771 OFFCURVE",
"1037.663 14.07 OFFCURVE",
"1076.803 7.631 CURVE SMOOTH",
"1115.313 1.296 OFFCURVE",
"1151.614 27.246 OFFCURVE",
"1156.806 66.156 CURVE SMOOTH",
"1159.441 85.904 OFFCURVE",
"1179.965 262.168 OFFCURVE",
"1092.57 363.778 CURVE SMOOTH",
"1054.912 407.561 OFFCURVE",
"1003.093 431.493 OFFCURVE",
"942.708 432.993 CURVE SMOOTH",
"861.217 435.019 OFFCURVE",
"788.459 394.272 OFFCURVE",
"728.333 340.719 CURVE",
"728.195 344.724 OFFCURVE",
"727.961 348.634 OFFCURVE",
"727.533 352.354 CURVE SMOOTH",
"723.017 391.61 OFFCURVE",
"689.336 420.551 OFFCURVE",
"649.398 419.005 CURVE SMOOTH",
"610.101 417.484 OFFCURVE",
"581.481 382.531 OFFCURVE",
"585.393 343.198 CURVE SMOOTH",
"589.694 299.958 OFFCURVE",
"565.845 169.074 OFFCURVE",
"547.492 89.985 CURVE SMOOTH",
"539.362 54.949 OFFCURVE",
"559.04 18.515 OFFCURVE",
"593.279 5.202 CURVE SMOOTH",
"601.321 2.075 OFFCURVE",
"609.649 0.404 OFFCURVE",
"617.849 0.2 CURVE SMOOTH"
);
}
);
width = 1180;
}
);
},
{
glyphname = s_s.liga;
lastChange = "2019-04-30 12:59:24 +0000";
layers = (
{
anchors = (
{
name = bottom_1;
position = "{133.378, 0}";
},
{
name = bottom_2;
position = "{463.378, 0}";
},
{
name = caret_1;
position = "{315.906, 0}";
},
{
name = top_1;
position = "{196.622, 450}";
},
{
name = top_2;
position = "{526.622, 450}";
}
);
layerId = "E3FE0EAA-297C-4773-BA15-BC72883F874E";
paths = (
{
closed = 1;
nodes = (
"521.356 -11.99 OFFCURVE",
"588.971 3.17 OFFCURVE",
"623.011 64.275 CURVE SMOOTH",
"669.328 147.887 OFFCURVE",
"595.854 210.387 OFFCURVE",
"556.326 243.962 CURVE SMOOTH",
"503.871 288.605 OFFCURVE",
"492.896 305.253 OFFCURVE",
"498.941 326.18 CURVE",
"511.59 342.735 OFFCURVE",
"580.229 353.244 OFFCURVE",
"604.782 345.804 CURVE",
"640.031 329.156 OFFCURVE",
"681.791 343.944 OFFCURVE",
"698.904 378.635 CURVE SMOOTH",
"716.575 413.977 OFFCURVE",
"702.159 456.853 OFFCURVE",
"666.91 474.431 CURVE SMOOTH",
"618.361 498.799 OFFCURVE",
"524.983 495.45 OFFCURVE",
"458.484 467.084 CURVE SMOOTH",
"396.542 440.577 OFFCURVE",
"372.639 400.119 OFFCURVE",
"363.525 370.636 CURVE SMOOTH",
"326.88 251.682 OFFCURVE",
"415.887 175.882 OFFCURVE",
"463.785 135.238 CURVE SMOOTH",
"465.459 133.75 OFFCURVE",
"467.226 132.169 OFFCURVE",
"469.179 130.588 CURVE",
"448.811 130.123 OFFCURVE",
"418.584 132.262 OFFCURVE",
"371.709 139.796 CURVE",
"371.337 139.889 OFFCURVE",
"354.317 142.586 OFFCURVE",
"353.945 142.586 CURVE",
"314.883 148.538 OFFCURVE",
"287.353 120.171 OFFCURVE",
"281.493 81.388 CURVE SMOOTH",
"275.634 42.604 OFFCURVE",
"310.325 5.03 OFFCURVE",
"349.016 -1.201 CURVE SMOOTH",
"376.825 -5.666 OFFCURVE",
"416.352 -12.083 OFFCURVE",
"457.554 -12.083 CURVE SMOOTH"
);
},
{
closed = 1;
nodes = (
"195.184 -19.151 OFFCURVE",
"226.713 -15.059 OFFCURVE",
"252.848 -5.759 CURVE SMOOTH",
"310.232 14.703 OFFCURVE",
"328.089 54.137 OFFCURVE",
"333.577 75.715 CURVE SMOOTH",
"356.27 164.442 OFFCURVE",
"279.819 211.875 OFFCURVE",
"229.131 243.218 CURVE SMOOTH",
"171.932 278.746 OFFCURVE",
"152.029 296.046 OFFCURVE",
"151.75 313.531 CURVE",
"165.515 331.016 OFFCURVE",
"235.921 348.315 OFFCURVE",
"261.683 342.828 CURVE",
"295.072 329.156 OFFCURVE",
"334.321 344.316 OFFCURVE",
"349.574 377.798 CURVE SMOOTH",
"365.385 412.21 OFFCURVE",
"350.318 452.947 OFFCURVE",
"315.906 468.758 CURVE SMOOTH",
"259.823 494.613 OFFCURVE",
"153.889 474.431 OFFCURVE",
"94.086 440.205 CURVE SMOOTH",
"36.702 407.374 OFFCURVE",
"21.17 365.428 OFFCURVE",
"18.287 336.131 CURVE SMOOTH",
"6.568 219.874 OFFCURVE",
"100.69 161.559 OFFCURVE",
"156.958 126.682 CURVE SMOOTH",
"161.516 123.892 OFFCURVE",
"166.724 120.636 OFFCURVE",
"171.932 117.66 CURVE",
"131.103 117.195 OFFCURVE",
"75.299 126.217 OFFCURVE",
"57.535 138.68 CURVE SMOOTH",
"27.029 161 OFFCURVE",
"-15.94 154.584 OFFCURVE",
"-38.354 124.264 CURVE SMOOTH",
"-60.861 93.758 OFFCURVE",
"-54.351 50.882 OFFCURVE",
"-23.938 28.375 CURVE SMOOTH",
"13.636 0.659 OFFCURVE",
"90.831 -19.151 OFFCURVE",
"162.539 -19.151 CURVE SMOOTH"
);
}
);
width = 660;
}
);
},
{
glyphname = three;
lastChange = "2019-05-08 06:49:27 +0000";
layers = (
{
layerId = "E3FE0EAA-297C-4773-BA15-BC72883F874E";
paths = (
{
closed = 1;
nodes = (
"179.329 -15 OFFCURVE",
"64.848 11.6 OFFCURVE",
"10.996 67.589 CURVE",
"-15.573 95.491 OFFCURVE",
"-15.573 140.878 OFFCURVE",
"10.996 168.78 CURVE",
"37.744 196.682 OFFCURVE",
"81.254 196.682 OFFCURVE",
"108.002 168.78 CURVE",
"148.124 126.741 OFFCURVE",
"356.579 106.28 OFFCURVE",
"474.448 158.549 CURVE",
"500.66 170.268 OFFCURVE",
"518.136 184.591 OFFCURVE",
"517.957 194.449 CURVE",
"511.181 203.006 OFFCURVE",
"469.811 215.469 OFFCURVE",
"447.7 222.165 CURVE",
"388.319 240.022 OFFCURVE",
"298.625 267.18 OFFCURVE",
"295.058 362.046 CURVE",
"292.027 444.449 OFFCURVE",
"366.208 484.628 OFFCURVE",
"420.417 514.018 CURVE",
"440.745 525.179 OFFCURVE",
"478.906 545.826 OFFCURVE",
"485.325 557.359 CURVE",
"483.007 557.917 OFFCURVE",
"465.532 573.914 OFFCURVE",
"389.033 568.333 CURVE",
"315.03 562.567 OFFCURVE",
"239.601 524.435 OFFCURVE",
"158.109 451.518 CURVE",
"129.222 426.22 OFFCURVE",
"86.068 429.568 OFFCURVE",
"61.46 459.33 CURVE",
"36.852 489.278 OFFCURVE",
"40.24 534.479 OFFCURVE",
"68.95 560.149 CURVE",
"173.445 653.341 OFFCURVE",
"274.552 702.634 OFFCURVE",
"378.512 710.818 CURVE",
"468.741 717.701 OFFCURVE",
"532.223 703.006 OFFCURVE",
"573.593 665.246 CURVE",
"602.659 638.46 OFFCURVE",
"618.886 601.629 OFFCURVE",
"621.026 558.475 CURVE",
"625.484 464.167 OFFCURVE",
"540.069 417.85 OFFCURVE",
"483.542 387.344 CURVE",
"474.804 382.507 OFFCURVE",
"463.035 376.183 OFFCURVE",
"452.693 369.859 CURVE",
"463.927 365.952 OFFCURVE",
"476.409 362.232 OFFCURVE",
"485.682 359.442 CURVE",
"548.272 340.655 OFFCURVE",
"652.767 309.033 OFFCURVE",
"654.907 197.24 CURVE",
"655.62 155.015 OFFCURVE",
"640.284 76.89 OFFCURVE",
"528.122 27.039 CURVE",
"465.888 -0.491 OFFCURVE",
"380.117 -15 OFFCURVE",
"294.88 -15 CURVE"
);
}
);
width = 620;
}
);
unicode = 0033;
},
{
glyphname = period;
lastChange = "2019-04-30 11:37:44 +0000";
layers = (
{
layerId = "E3FE0EAA-297C-4773-BA15-BC72883F874E";
paths = (
{
closed = 1;
nodes = (
"148.008 0 OFFCURVE",
"184.72 36.711 OFFCURVE",
"184.72 81.998 CURVE SMOOTH",
"184.72 127.285 OFFCURVE",
"148.008 163.997 OFFCURVE",
"102.722 163.997 CURVE SMOOTH",
"57.435 163.997 OFFCURVE",
"20.723 127.285 OFFCURVE",
"20.723 81.998 CURVE SMOOTH",
"20.723 36.711 OFFCURVE",
"57.435 0 OFFCURVE",
"102.722 0 CURVE SMOOTH"
);
}
);
width = 240;
}
);
unicode = 002E;
},
{
glyphname = comma;
lastChange = "2019-04-30 11:37:44 +0000";
layers = (
{
layerId = "E3FE0EAA-297C-4773-BA15-BC72883F874E";
paths = (
{
closed = 1;
nodes = (
"77.86 -215.802 OFFCURVE",
"101.083 -205.679 OFFCURVE",
"115.323 -185.431 CURVE SMOOTH",
"158.606 -123.652 OFFCURVE",
"179.419 0.394 OFFCURVE",
"183.167 24.606 CURVE SMOOTH",
"188.797 61.706 OFFCURVE",
"163.412 96.275 OFFCURVE",
"126.416 101.995 CURVE SMOOTH",
"90.637 108.315 OFFCURVE",
"54.766 82.531 OFFCURVE",
"48.936 45.348 CURVE SMOOTH",
"41.803 -0.653 OFFCURVE",
"22.671 -81.058 OFFCURVE",
"4.078 -107.56 CURVE SMOOTH",
"-17.354 -138.268 OFFCURVE",
"-9.937 -180.588 OFFCURVE",
"20.765 -202.118 CURVE SMOOTH",
"31.219 -209.408 OFFCURVE",
"42.984 -213.363 OFFCURVE",
"54.869 -214.195 CURVE SMOOTH"
);
}
);
width = 200;
}
);
unicode = 002C;
},
{
glyphname = colon;
lastChange = "2019-04-30 11:37:44 +0000";
layers = (
{
layerId = "E3FE0EAA-297C-4773-BA15-BC72883F874E";
paths = (
{
closed = 1;
nodes = (
"178.157 279.863 OFFCURVE",
"208.36 310.066 OFFCURVE",
"208.36 347.323 CURVE SMOOTH",
"208.36 384.581 OFFCURVE",
"178.157 414.784 OFFCURVE",
"140.9 414.784 CURVE SMOOTH",
"103.643 414.784 OFFCURVE",
"73.439 384.581 OFFCURVE",
"73.439 347.323 CURVE SMOOTH",
"73.439 310.066 OFFCURVE",
"103.643 279.863 OFFCURVE",
"140.9 279.863 CURVE SMOOTH"
);
},
{
closed = 1;
nodes = (
"158.483 9.074 OFFCURVE",
"188.686 39.277 OFFCURVE",
"188.686 76.534 CURVE SMOOTH",
"188.686 113.792 OFFCURVE",
"158.483 143.995 OFFCURVE",
"121.226 143.995 CURVE SMOOTH",
"83.969 143.995 OFFCURVE",
"53.765 113.792 OFFCURVE",
"53.765 76.534 CURVE SMOOTH",
"53.765 39.277 OFFCURVE",
"83.969 9.074 OFFCURVE",
"121.226 9.074 CURVE SMOOTH"
);
}
);
width = 210.22;
}
);
unicode = 003A;
},
{
glyphname = semicolon;
lastChange = "2019-04-30 11:37:44 +0000";
layers = (
{
layerId = "E3FE0EAA-297C-4773-BA15-BC72883F874E";
paths = (
{
closed = 1;
nodes = (
"61.138 -193.213 OFFCURVE",
"85.34 -185.727 OFFCURVE",
"101.737 -167.182 CURVE SMOOTH",
"151.602 -110.582 OFFCURVE",
"186.038 10.392 OFFCURVE",
"192.447 34.039 CURVE SMOOTH",
"202.155 70.286 OFFCURVE",
"180.759 107.456 OFFCURVE",
"144.625 117.242 CURVE SMOOTH",
"109.767 127.49 OFFCURVE",
"71.259 105.841 OFFCURVE",
"61.343 69.534 CURVE SMOOTH",
"49.154 24.607 OFFCURVE",
"21.227 -53.181 OFFCURVE",
"-0.19 -77.459 CURVE SMOOTH",
"-24.894 -105.602 OFFCURVE",
"-22.214 -148.483 OFFCURVE",
"5.912 -173.284 CURVE SMOOTH",
"15.494 -181.688 OFFCURVE",
"26.748 -186.923 OFFCURVE",
"38.467 -189.067 CURVE SMOOTH"
);
},
{
closed = 1;
nodes = (
"177.966 268.776 OFFCURVE",
"208.169 298.979 OFFCURVE",
"208.169 336.236 CURVE SMOOTH",
"208.169 373.494 OFFCURVE",
"177.966 403.697 OFFCURVE",
"140.709 403.697 CURVE SMOOTH",
"103.452 403.697 OFFCURVE",
"73.248 373.494 OFFCURVE",
"73.248 336.236 CURVE SMOOTH",
"73.248 298.979 OFFCURVE",
"103.452 268.776 OFFCURVE",
"140.709 268.776 CURVE SMOOTH"
);
}
);
width = 219.8;
}
);
unicode = 003B;
},
{
glyphname = exclam;
lastChange = "2019-04-30 11:37:44 +0000";
layers = (
{
layerId = "E3FE0EAA-297C-4773-BA15-BC72883F874E";
paths = (
{
closed = 1;
nodes = (
"176.237 254.147 OFFCURVE",
"208.464 281.589 OFFCURVE",
"213.542 319.284 CURVE SMOOTH",
"235.417 484.518 OFFCURVE",
"267.643 683.444 OFFCURVE",
"275.261 706.393 CURVE",
"301.432 738.522 OFFCURVE",
"296.55 785.788 OFFCURVE",
"264.518 811.96 CURVE SMOOTH",
"232.487 837.936 OFFCURVE",
"185.417 833.542 OFFCURVE",
"158.854 801.315 CURVE SMOOTH",
"145.182 784.421 OFFCURVE",
"119.597 752.975 OFFCURVE",
"64.714 339.011 CURVE SMOOTH",
"59.44 297.897 OFFCURVE",
"88.151 260.202 OFFCURVE",
"129.362 254.831 CURVE SMOOTH",
"132.682 254.343 OFFCURVE",
"136.003 254.147 OFFCURVE",
"139.128 254.147 CURVE SMOOTH"
);
},
{
closed = 1;
nodes = (
"166.68 -31.473 OFFCURVE",
"203.392 5.238 OFFCURVE",
"203.392 50.526 CURVE SMOOTH",
"203.392 95.813 OFFCURVE",
"166.68 132.524 OFFCURVE",
"121.393 132.524 CURVE SMOOTH",
"76.107 132.524 OFFCURVE",
"39.395 95.813 OFFCURVE",
"39.395 50.526 CURVE SMOOTH",
"39.395 5.238 OFFCURVE",
"76.107 -31.473 OFFCURVE",
"121.393 -31.473 CURVE SMOOTH"
);
}
);
width = 250;
}
);
unicode = 0021;
},
{
glyphname = question;
lastChange = "2019-04-30 11:37:44 +0000";
layers = (
{
layerId = "E3FE0EAA-297C-4773-BA15-BC72883F874E";
paths = (
{
closed = 1;
nodes = (
"271.162 42.086 OFFCURVE",
"298.896 56.735 OFFCURVE",
"313.545 83.102 CURVE SMOOTH",
"335.224 122.165 OFFCURVE",
"322.529 170.407 OFFCURVE",
"283.662 192.086 CURVE",
"277.802 196.188 OFFCURVE",
"268.427 206.54 OFFCURVE",
"271.552 230.563 CURVE SMOOTH",
"276.24 269.43 OFFCURVE",
"326.826 317.477 OFFCURVE",
"371.357 360.055 CURVE SMOOTH",
"433.857 419.43 OFFCURVE",
"498.31 480.954 OFFCURVE",
"502.802 565.133 CURVE SMOOTH",
"506.513 636.032 OFFCURVE",
"471.943 701.071 OFFCURVE",
"407.881 743.258 CURVE SMOOTH",
"331.904 793.649 OFFCURVE",
"223.31 806.149 OFFCURVE",
"155.732 772.946 CURVE SMOOTH",
"116.474 753.805 OFFCURVE",
"101.631 707.711 OFFCURVE",
"119.795 668.063 CURVE SMOOTH",
"137.568 628.415 OFFCURVE",
"185.42 611.032 OFFCURVE",
"226.631 627.829 CURVE SMOOTH",
"238.935 632.711 OFFCURVE",
"287.568 630.368 OFFCURVE",
"320.967 607.126 CURVE SMOOTH",
"342.451 591.891 OFFCURVE",
"341.67 579.196 OFFCURVE",
"341.474 573.727 CURVE SMOOTH",
"340.498 553.61 OFFCURVE",
"290.107 505.758 OFFCURVE",
"260.029 477.047 CURVE SMOOTH",
"195.771 415.915 OFFCURVE",
"122.92 346.383 OFFCURVE",
"111.201 250.29 CURVE SMOOTH",
"97.724 141.501 OFFCURVE",
"162.177 74.899 OFFCURVE",
"202.217 52.438 CURVE SMOOTH",
"214.912 45.407 OFFCURVE",
"228.779 42.086 OFFCURVE",
"242.451 42.086 CURVE SMOOTH"
);
},
{
closed = 1;
nodes = (
"261.006 -105.374 OFFCURVE",
"280.927 -98.148 OFFCURVE",
"296.552 -83.499 CURVE SMOOTH",
"329.17 -53.031 OFFCURVE",
"330.732 -1.859 OFFCURVE",
"300.263 30.758 CURVE SMOOTH",
"276.826 55.758 LINE SMOOTH",
"246.162 88.376 OFFCURVE",
"195.185 89.938 OFFCURVE",
"162.568 59.469 CURVE SMOOTH",
"129.951 29 OFFCURVE",
"128.388 -22.171 OFFCURVE",
"158.857 -54.789 CURVE SMOOTH",
"182.295 -79.789 LINE SMOOTH",
"198.31 -96.781 OFFCURVE",
"219.795 -105.374 OFFCURVE",
"241.279 -105.374 CURVE SMOOTH"
);
}
);
width = 510;
}
);
unicode = 003F;
},
{
glyphname = parenleft;
lastChange = "2019-04-30 11:37:44 +0000";
layers = (
{
layerId = "E3FE0EAA-297C-4773-BA15-BC72883F874E";
paths = (
{
closed = 1;
nodes = (
"334.285 -95.627 OFFCURVE",
"362.788 -69.103 OFFCURVE",
"365.537 -34.596 CURVE SMOOTH",
"368.486 1.551 OFFCURVE",
"341.429 33.463 OFFCURVE",
"305.511 36.697 CURVE",
"304.998 36.697 OFFCURVE",
"245.298 42.441 OFFCURVE",
"208.332 82.5 CURVE SMOOTH",
"194.133 98.758 OFFCURVE",
"167.562 198.636 OFFCURVE",
"207.755 361.991 CURVE SMOOTH",
"246.226 518.67 OFFCURVE",
"373.949 699.929 OFFCURVE",
"471.878 735.464 CURVE SMOOTH",
"506.29 747.856 OFFCURVE",
"524.04 785.836 OFFCURVE",
"511.524 820.325 CURVE SMOOTH",
"499.111 854.796 OFFCURVE",
"461.1 872.563 OFFCURVE",
"426.672 859.974 CURVE SMOOTH",
"268.622 802.723 OFFCURVE",
"123.242 573.732 OFFCURVE",
"79.038 393.646 CURVE SMOOTH",
"35.678 217.56 OFFCURVE",
"48.63 60.047 OFFCURVE",
"110.978 -7.413 CURVE SMOOTH",
"182.887 -85.365 OFFCURVE",
"283.769 -94.618 OFFCURVE",
"295.14 -95.431 CURVE SMOOTH",
"296.883 -95.533 OFFCURVE",
"298.387 -95.627 OFFCURVE",
"299.974 -95.627 CURVE SMOOTH"
);
}
);
width = 330;
}
);
unicode = 0028;
},
{
glyphname = parenright;
lastChange = "2019-04-30 11:37:44 +0000";
layers = (
{
layerId = "E3FE0EAA-297C-4773-BA15-BC72883F874E";
paths = (
{
closed = 1;
nodes = (
"330.174 -126.408 OFFCURVE",
"345.213 -121.525 OFFCURVE",
"357.713 -111.368 CURVE SMOOTH",
"438.377 -46.72 OFFCURVE",
"519.627 112.85 OFFCURVE",
"535.155 237.069 CURVE SMOOTH",
"551.463 368.514 OFFCURVE",
"504.979 819.686 OFFCURVE",
"283.788 860.897 CURVE SMOOTH",
"246.776 867.342 OFFCURVE",
"211.522 843.514 OFFCURVE",
"204.686 806.6 CURVE SMOOTH",
"197.752 769.686 OFFCURVE",
"222.069 734.335 OFFCURVE",
"258.983 727.303 CURVE SMOOTH",
"349.022 710.507 OFFCURVE",
"418.846 401.913 OFFCURVE",
"400.389 253.866 CURVE SMOOTH",
"387.303 148.983 OFFCURVE",
"314.94 28.28 OFFCURVE",
"272.752 -5.509 CURVE SMOOTH",
"243.553 -28.947 OFFCURVE",
"238.866 -71.72 OFFCURVE",
"262.303 -100.822 CURVE SMOOTH",
"275.682 -117.618 OFFCURVE",
"295.409 -126.408 OFFCURVE",
"315.233 -126.408 CURVE SMOOTH"
);
}
);
width = 600;
}
);
unicode = 0029;
},
{
glyphname = hyphen;
lastChange = "2019-05-07 08:57:58 +0000";
layers = (
{
layerId = "E3FE0EAA-297C-4773-BA15-BC72883F874E";
paths = (
{
closed = 1;
nodes = (
"167.476 165.236 OFFCURVE",
"184.077 171.486 OFFCURVE",
"197.163 182.13 CURVE",
"219.917 183.302 OFFCURVE",
"267.573 180.666 OFFCURVE",
"307.905 174.904 CURVE SMOOTH",
"348.14 168.947 OFFCURVE",
"386.909 197.365 OFFCURVE",
"392.768 238.478 CURVE SMOOTH",
"398.628 279.494 OFFCURVE",
"370.21 317.482 OFFCURVE",
"329.194 323.341 CURVE SMOOTH",
"161.323 347.462 OFFCURVE",
"123.042 318.263 OFFCURVE",
"108.784 307.228 CURVE SMOOTH",
"92.768 294.923 OFFCURVE",
"77.632 269.24 OFFCURVE",
"75.19 249.123 CURVE SMOOTH",
"70.308 208.009 OFFCURVE",
"99.702 170.705 OFFCURVE",
"140.815 165.724 CURVE SMOOTH",
"143.843 165.431 OFFCURVE",
"146.772 165.236 OFFCURVE",
"149.8 165.236 CURVE SMOOTH"
);
}
);
width = 470;
}
);
unicode = 002D;
},
{
glyphname = endash;
lastChange = "2019-04-30 11:37:44 +0000";
layers = (
{
layerId = "E3FE0EAA-297C-4773-BA15-BC72883F874E";
paths = (
{
closed = 1;
nodes = (
"104.578 172.85 OFFCURVE",
"116.589 175.975 OFFCURVE",
"127.234 181.639 CURVE",
"174.89 187.303 OFFCURVE",
"342.468 182.616 OFFCURVE",
"481.14 174.511 CURVE SMOOTH",
"521.961 171.483 OFFCURVE",
"557.996 203.71 OFFCURVE",
"560.437 245.018 CURVE SMOOTH",
"562.878 286.327 OFFCURVE",
"531.336 321.874 OFFCURVE",
"489.929 324.315 CURVE SMOOTH",
"38.171 351.073 OFFCURVE",
"32.605 327.245 OFFCURVE",
"18.738 263.964 CURVE SMOOTH",
"9.851 223.534 OFFCURVE",
"35.437 183.495 OFFCURVE",
"75.867 174.608 CURVE SMOOTH",
"81.336 173.436 OFFCURVE",
"86.706 172.85 OFFCURVE",
"92.078 172.85 CURVE SMOOTH"
);
}
);
width = 600;
}
);
unicode = 2013;
},
{
glyphname = quotesinglbase;
lastChange = "2019-04-30 11:37:44 +0000";
layers = (
{
layerId = "E3FE0EAA-297C-4773-BA15-BC72883F874E";
paths = (
{
closed = 1;
nodes = (
"103.209 -314.987 OFFCURVE",
"109.453 -314.252 OFFCURVE",
"115.163 -312.938 CURVE SMOOTH",
"147.901 -305.403 OFFCURVE",
"172.681 -276.352 OFFCURVE",
"173.411 -241.21 CURVE SMOOTH",
"178.325 25.676 LINE SMOOTH",
"179.009 67.119 OFFCURVE",
"146.105 101.234 OFFCURVE",
"104.64 102.012 CURVE SMOOTH",
"62.75 102.893 OFFCURVE",
"29.103 69.696 OFFCURVE",
"28.186 28.399 CURVE SMOOTH",
"23.271 -238.486 LINE SMOOTH",
"22.589 -279.93 OFFCURVE",
"55.493 -314.045 OFFCURVE",
"96.958 -314.822 CURVE SMOOTH"
);
}
);
width = 300;
}
);
unicode = 201A;
},
{
glyphname = quotedblbase;
lastChange = "2019-04-30 11:37:44 +0000";
layers = (
{
layerId = "E3FE0EAA-297C-4773-BA15-BC72883F874E";
paths = (
{
closed = 1;
nodes = (
"75.635 -330.795 OFFCURVE",
"106.299 -308.041 OFFCURVE",
"114.893 -273.959 CURVE SMOOTH",
"179.541 -14.974 LINE SMOOTH",
"189.502 25.26 OFFCURVE",
"165.088 65.885 OFFCURVE",
"124.854 75.944 CURVE SMOOTH",
"84.229 86.198 OFFCURVE",
"43.994 61.393 OFFCURVE",
"33.838 21.354 CURVE SMOOTH",
"-30.811 -237.63 LINE SMOOTH",
"-40.771 -277.865 OFFCURVE",
"-16.357 -318.49 OFFCURVE",
"23.877 -328.548 CURVE SMOOTH",
"29.932 -330.111 OFFCURVE",
"36.182 -330.795 OFFCURVE",
"42.041 -330.795 CURVE SMOOTH"
);
},
{
closed = 1;
nodes = (
"301.416 -276.986 OFFCURVE",
"334.424 -246.81 OFFCURVE",
"337.158 -207.357 CURVE SMOOTH",
"353.369 19.303 LINE SMOOTH",
"356.299 60.612 OFFCURVE",
"325.244 96.549 OFFCURVE",
"283.838 99.479 CURVE SMOOTH",
"243.408 101.139 OFFCURVE",
"206.494 71.256 OFFCURVE",
"203.76 30.045 CURVE SMOOTH",
"187.549 -196.615 LINE SMOOTH",
"184.619 -237.923 OFFCURVE",
"215.674 -273.861 OFFCURVE",
"257.08 -276.791 CURVE SMOOTH",
"258.838 -276.888 OFFCURVE",
"260.596 -276.986 OFFCURVE",
"262.354 -276.986 CURVE SMOOTH"
);
}
);
width = 400;
}
);
unicode = 201E;
},
{
glyphname = quotedblleft;
lastChange = "2019-04-30 11:37:44 +0000";
layers = (
{
layerId = "E3FE0EAA-297C-4773-BA15-BC72883F874E";
paths = (
{
closed = 1;
nodes = (
"188.177 460.097 OFFCURVE",
"192.279 460.39 OFFCURVE",
"196.576 461.171 CURVE SMOOTH",
"237.396 468.007 OFFCURVE",
"264.935 506.679 OFFCURVE",
"258.099 547.499 CURVE SMOOTH",
"208.685 841.152 LINE SMOOTH",
"201.849 881.972 OFFCURVE",
"164.544 910.488 OFFCURVE",
"122.162 902.675 CURVE SMOOTH",
"81.341 895.839 OFFCURVE",
"53.802 857.167 OFFCURVE",
"60.638 816.347 CURVE SMOOTH",
"110.052 522.695 LINE SMOOTH",
"116.302 485.976 OFFCURVE",
"147.943 460.097 OFFCURVE",
"184.076 460.097 CURVE SMOOTH"
);
},
{
closed = 1;
nodes = (
"347.552 486.562 OFFCURVE",
"349.505 486.659 OFFCURVE",
"351.263 486.757 CURVE SMOOTH",
"392.669 489.784 OFFCURVE",
"423.724 525.82 OFFCURVE",
"420.599 567.128 CURVE SMOOTH",
"403.802 794.472 LINE SMOOTH",
"400.677 835.585 OFFCURVE",
"365.326 866.347 OFFCURVE",
"323.529 863.71 CURVE SMOOTH",
"282.122 860.683 OFFCURVE",
"251.068 824.648 OFFCURVE",
"254.193 783.339 CURVE SMOOTH",
"270.99 555.995 LINE SMOOTH",
"273.919 516.64 OFFCURVE",
"306.732 486.562 OFFCURVE",
"345.794 486.562 CURVE SMOOTH"
);
}
);
width = 430;
}
);
unicode = 201C;
},
{
glyphname = quotedblright;
lastChange = "2019-04-30 11:37:44 +0000";
layers = (
{
layerId = "E3FE0EAA-297C-4773-BA15-BC72883F874E";
paths = (
{
closed = 1;
nodes = (
"336.05 460.097 OFFCURVE",
"367.809 485.956 OFFCURVE",
"373.941 522.695 CURVE SMOOTH",
"415.243 770.119 LINE SMOOTH",
"422.058 810.942 OFFCURVE",
"394.54 849.611 OFFCURVE",
"353.719 856.447 CURVE SMOOTH",
"311.215 863.565 OFFCURVE",
"274.011 835.747 OFFCURVE",
"267.196 794.924 CURVE SMOOTH",
"225.894 547.499 LINE SMOOTH",
"219.08 506.675 OFFCURVE",
"246.597 468.007 OFFCURVE",
"287.417 461.171 CURVE SMOOTH",
"291.714 460.39 OFFCURVE",
"295.816 460.097 OFFCURVE",
"299.917 460.097 CURVE SMOOTH"
);
},
{
closed = 1;
nodes = (
"177.261 486.562 OFFCURVE",
"210.074 516.64 OFFCURVE",
"213.003 555.995 CURVE SMOOTH",
"229.8 783.339 LINE SMOOTH",
"232.925 824.648 OFFCURVE",
"201.871 860.683 OFFCURVE",
"160.464 863.71 CURVE SMOOTH",
"118.667 866.347 OFFCURVE",
"83.316 835.585 OFFCURVE",
"80.191 794.472 CURVE SMOOTH",
"63.394 567.128 LINE SMOOTH",
"60.269 525.82 OFFCURVE",
"91.324 489.784 OFFCURVE",
"132.73 486.757 CURVE SMOOTH",
"134.488 486.659 OFFCURVE",
"136.441 486.562 OFFCURVE",
"138.199 486.562 CURVE SMOOTH"
);
}
);
width = 340.27;
}
);
unicode = 201D;
},
{
glyphname = quoteleft;
lastChange = "2019-04-30 11:37:44 +0000";
layers = (
{
layerId = "E3FE0EAA-297C-4773-BA15-BC72883F874E";
paths = (
{
closed = 1;
nodes = (
"92.047 475.628 OFFCURVE",
"93.986 475.886 OFFCURVE",
"95.729 476.127 CURVE SMOOTH",
"136.853 481.828 OFFCURVE",
"164.364 520.944 OFFCURVE",
"158.24 561.914 CURVE SMOOTH",
"120.733 812.871 LINE SMOOTH",
"114.639 853.649 OFFCURVE",
"76.492 881.348 OFFCURVE",
"35.052 875.292 CURVE SMOOTH",
"-6.03 869.287 OFFCURVE",
"-33.583 830.477 OFFCURVE",
"-27.459 789.505 CURVE SMOOTH",
"10.048 538.549 LINE SMOOTH",
"15.881 499.518 OFFCURVE",
"51.365 472.28 OFFCURVE",
"90.294 475.485 CURVE SMOOTH"
);
}
);
width = 134.1;
}
);
unicode = 2018;
},
{
glyphname = quoteright;
lastChange = "2019-04-30 11:37:44 +0000";
layers = (
{
layerId = "E3FE0EAA-297C-4773-BA15-BC72883F874E";
paths = (
{
closed = 1;
nodes = (
"180.757 446.664 OFFCURVE",
"221.19 472.199 OFFCURVE",
"231.287 512.375 CURVE SMOOTH",
"293.133 758.467 LINE SMOOTH",
"303.183 798.454 OFFCURVE",
"278.615 838.689 OFFCURVE",
"238.031 849.028 CURVE SMOOTH",
"197.798 859.277 OFFCURVE",
"157.443 834.041 OFFCURVE",
"147.346 793.863 CURVE SMOOTH",
"85.499 547.772 LINE SMOOTH",
"75.88 509.498 OFFCURVE",
"98.167 470.713 OFFCURVE",
"135.337 458.706 CURVE SMOOTH",
"137.01 458.165 OFFCURVE",
"138.899 457.657 OFFCURVE",
"140.601 457.21 CURVE SMOOTH"
);
}
);
width = 218.59;
}
);
unicode = 2019;
},
{
glyphname = quotedbl;
lastChange = "2019-04-30 11:37:44 +0000";
layers = (
{
layerId = "E3FE0EAA-297C-4773-BA15-BC72883F874E";
paths = (
{
closed = 1;
nodes = (
"210.037 444.882 OFFCURVE",
"241.567 480.376 OFFCURVE",
"239.15 521.694 CURVE SMOOTH",
"223.573 803.289 LINE SMOOTH",
"221.157 844.607 OFFCURVE",
"187.127 876.961 OFFCURVE",
"144.151 873.74 CURVE SMOOTH",
"102.832 871.324 OFFCURVE",
"71.303 835.83 OFFCURVE",
"73.72 794.512 CURVE SMOOTH",
"89.296 512.918 LINE SMOOTH",
"91.57 475.741 OFFCURVE",
"120.252 446.616 OFFCURVE",
"156.176 442.739 CURVE SMOOTH",
"160.254 442.299 OFFCURVE",
"164.363 442.15 OFFCURVE",
"168.719 442.466 CURVE SMOOTH"
);
},
{
closed = 1;
nodes = (
"425.537 440.876 OFFCURVE",
"460.587 473.039 OFFCURVE",
"462.307 514.429 CURVE SMOOTH",
"475.189 767.846 LINE SMOOTH",
"476.886 809.042 OFFCURVE",
"445.369 843.722 OFFCURVE",
"403.55 845.983 CURVE SMOOTH",
"362.072 847.812 OFFCURVE",
"327.023 815.65 OFFCURVE",
"325.303 774.259 CURVE SMOOTH",
"312.421 520.842 LINE SMOOTH",
"310.735 481.414 OFFCURVE",
"339.811 447.71 OFFCURVE",
"378.606 443.149 CURVE SMOOTH",
"380.352 442.944 OFFCURVE",
"382.303 442.812 OFFCURVE",
"384.06 442.704 CURVE SMOOTH"
);
}
);
width = 470;
}
);
unicode = 0022;
},
{
glyphname = quotesingle;
lastChange = "2019-04-30 11:37:44 +0000";
layers = (
{
layerId = "E3FE0EAA-297C-4773-BA15-BC72883F874E";
paths = (
{
closed = 1;
nodes = (
"194.783 474.945 OFFCURVE",
"228.618 508.739 OFFCURVE",
"229.641 550.152 CURVE SMOOTH",
"235.907 803.819 LINE SMOOTH",
"236.926 845.037 OFFCURVE",
"204.118 878.891 OFFCURVE",
"162.254 880.061 CURVE SMOOTH",
"120.753 881.22 OFFCURVE",
"86.928 847.734 OFFCURVE",
"85.905 806.319 CURVE SMOOTH",
"79.638 552.653 LINE SMOOTH",
"78.663 513.201 OFFCURVE",
"108.927 480.26 OFFCURVE",
"147.827 476.713 CURVE SMOOTH",
"149.578 476.553 OFFCURVE",
"151.532 476.473 OFFCURVE",
"153.291 476.41 CURVE SMOOTH"
);
}
);
width = 184.46;
}
);
unicode = 0027;
},
{
glyphname = dieresiscomb;
lastChange = "2019-04-30 11:37:44 +0000";
layers = (
{
anchors = (
{
name = _top;
position = "{340.715, 450}";
},
{
name = top;
position = "{447.531, 793.601}";
}
);
layerId = "E3FE0EAA-297C-4773-BA15-BC72883F874E";
paths = (
{
closed = 1;
nodes = (
"314.413 485.667 OFFCURVE",
"349.64 519.236 OFFCURVE",
"352.335 559.242 CURVE SMOOTH",
"354.22 587.218 OFFCURVE",
"367.408 639.51 OFFCURVE",
"383.574 694.42 CURVE SMOOTH",
"395.098 733.561 OFFCURVE",
"372.896 772.513 OFFCURVE",
"333.864 781.177 CURVE",
"294.893 792.622 OFFCURVE",
"254.023 765.323 OFFCURVE",
"242.482 726.186 CURVE SMOOTH",
"235.199 701.492 OFFCURVE",
"209.197 613.069 OFFCURVE",
"205.529 559.275 CURVE SMOOTH",
"203.07 523.215 OFFCURVE",
"227.513 493.229 OFFCURVE",
"261.856 487.558 CURVE SMOOTH",
"265.806 486.906 OFFCURVE",
"269.82 486.639 OFFCURVE",
"273.962 486.549 CURVE SMOOTH"
);
},
{
closed = 1;
nodes = (
"541.799 489.306 OFFCURVE",
"578.971 520.112 OFFCURVE",
"584.52 560.241 CURVE SMOOTH",
"601.326 681.802 LINE SMOOTH",
"606.875 721.936 OFFCURVE",
"578.647 757.102 OFFCURVE",
"538.361 759.199 CURVE SMOOTH",
"498.081 761.296 OFFCURVE",
"460.995 731.774 OFFCURVE",
"455.447 691.645 CURVE SMOOTH",
"438.641 570.084 LINE SMOOTH",
"433.442 532.483 OFFCURVE",
"458.06 499.509 OFFCURVE",
"494.527 493.461 CURVE SMOOTH",
"496.824 493.08 OFFCURVE",
"499.167 492.891 OFFCURVE",
"501.605 492.686 CURVE SMOOTH"
);
}
);
width = 600;
}
);
unicode = 0308;
},
{
glyphname = gravecomb;
lastChange = "2019-04-30 11:37:44 +0000";
layers = (
{
anchors = (
{
name = _top;
position = "{171.039, 463.433}";
},
{
name = top;
position = "{226.561, 858.489}";
}
);
layerId = "E3FE0EAA-297C-4773-BA15-BC72883F874E";
paths = (
{
closed = 1;
nodes = (
"323.295 502.995 OFFCURVE",
"345.677 515.92 OFFCURVE",
"359.795 540.528 CURVE SMOOTH",
"378.729 573.53 OFFCURVE",
"367.361 615.866 OFFCURVE",
"334.312 634.904 CURVE SMOOTH",
"320.663 642.768 OFFCURVE",
"305.175 645.761 OFFCURVE",
"290.535 643.49 CURVE",
"268.211 651.84 OFFCURVE",
"221.919 674.889 OFFCURVE",
"182.244 697.765 CURVE SMOOTH",
"149.001 716.932 OFFCURVE",
"106.801 705.427 OFFCURVE",
"87.76 672.195 CURVE SMOOTH",
"68.848 639.188 OFFCURVE",
"80.198 596.862 OFFCURVE",
"113.246 577.823 CURVE SMOOTH",
"113.271 577.809 OFFCURVE",
"150.589 556.396 OFFCURVE",
"189.313 537.306 CURVE SMOOTH",
"218.699 522.96 OFFCURVE",
"259.034 502.995 OFFCURVE",
"294.807 502.995 CURVE SMOOTH"
);
}
);
width = 430;
}
);
unicode = 0300;
},
{
glyphname = acutecomb;
lastChange = "2019-04-30 11:37:44 +0000";
layers = (
{
anchors = (
{
name = _top;
position = "{331.611, 450}";
},
{
name = top;
position = "{368.807, 714.661}";
}
);
layerId = "E3FE0EAA-297C-4773-BA15-BC72883F874E";
paths = (
{
closed = 1;
nodes = (
"243.36 446.367 OFFCURVE",
"293.276 467.127 OFFCURVE",
"430.555 556.481 CURVE SMOOTH",
"459.273 575.104 OFFCURVE",
"467.358 613.559 OFFCURVE",
"448.731 642.196 CURVE SMOOTH",
"430.104 670.834 OFFCURVE",
"391.755 679.48 OFFCURVE",
"362.854 660.38 CURVE SMOOTH",
"308.159 624.791 OFFCURVE",
"238.822 583.541 OFFCURVE",
"214.355 573.301 CURVE",
"193.691 572.272 OFFCURVE",
"174.104 560.846 OFFCURVE",
"163.302 541.432 CURVE SMOOTH",
"146.696 511.439 OFFCURVE",
"157.566 473.765 OFFCURVE",
"187.555 457.078 CURVE SMOOTH",
"196.16 452.332 OFFCURVE",
"203.897 448.109 OFFCURVE",
"215.437 447.6 CURVE SMOOTH"
);
}
);
width = 600;
}
);
unicode = 0301;
},
{
glyphname = circumflexcomb;
lastChange = "2019-04-30 11:37:44 +0000";
layers = (
{
anchors = (
{
name = _top;
position = "{315.182, 450}";
},
{
name = top;
position = "{360.092, 702.456}";
}
);
layerId = "E3FE0EAA-297C-4773-BA15-BC72883F874E";
paths = (
{
closed = 1;
nodes = (
"528.196 450.229 OFFCURVE",
"545.082 456.493 OFFCURVE",
"558.206 468.455 CURVE SMOOTH",
"586.757 494.543 OFFCURVE",
"588.752 538.805 OFFCURVE",
"562.663 567.448 CURVE SMOOTH",
"442.452 699.084 LINE SMOOTH",
"418.683 725.031 OFFCURVE",
"378.708 729.203 OFFCURVE",
"349.921 708.732 CURVE SMOOTH",
"295.882 669.935 OFFCURVE",
"226.544 624.347 OFFCURVE",
"197.472 610.336 CURVE",
"185.339 610.551 OFFCURVE",
"173.153 607.305 OFFCURVE",
"162.591 601.576 CURVE SMOOTH",
"128.782 582.803 OFFCURVE",
"116.588 540.367 OFFCURVE",
"135.289 506.431 CURVE SMOOTH",
"145.036 488.776 OFFCURVE",
"164.578 474.572 OFFCURVE",
"183.957 470.225 CURVE SMOOTH",
"208.481 464.513 OFFCURVE",
"234.299 458.88 OFFCURVE",
"380.699 559.233 CURVE",
"459.312 473.012 LINE SMOOTH",
"472.778 458.208 OFFCURVE",
"491.537 450.229 OFFCURVE",
"510.988 450.229 CURVE SMOOTH"
);
}
);
width = 600;
}
);
unicode = 0302;
},
{
glyphname = cedillacomb;
lastChange = "2019-04-30 11:37:44 +0000";
layers = (
{
anchors = (
{
name = _bottom;
position = "{43.574, 0}";
},
{
name = bottom;
position = "{-11.987, -395.336}";
}
);
layerId = "E3FE0EAA-297C-4773-BA15-BC72883F874E";
paths = (
{
closed = 1;
nodes = (
"94.288 -348.602 OFFCURVE",
"117.432 -343.817 OFFCURVE",
"139.796 -333.953 CURVE SMOOTH",
"195.557 -309.442 OFFCURVE",
"235.792 -257.293 OFFCURVE",
"242.432 -201.238 CURVE SMOOTH",
"249.268 -143.817 OFFCURVE",
"219.386 -89.324 OFFCURVE",
"164.405 -58.953 CURVE SMOOTH",
"144.386 -47.82 OFFCURVE",
"122.999 -41.082 OFFCURVE",
"101.807 -38.445 CURVE",
"102.882 -35.125 OFFCURVE",
"103.956 -31.805 OFFCURVE",
"105.03 -28.582 CURVE SMOOTH",
"116.554 5.598 OFFCURVE",
"98.194 42.609 OFFCURVE",
"64.112 54.133 CURVE SMOOTH",
"29.835 65.949 OFFCURVE",
"-7.177 47.394 OFFCURVE",
"-18.603 13.215 CURVE SMOOTH",
"-55.224 -95.086 OFFCURVE",
"-53.564 -145.965 OFFCURVE",
"-12.743 -174.481 CURVE SMOOTH",
"11.28 -191.375 OFFCURVE",
"56.202 -186.199 OFFCURVE",
"78.761 -168.035 CURVE",
"83.253 -167.059 OFFCURVE",
"96.632 -168.621 OFFCURVE",
"112.94 -185.809 CURVE",
"111.866 -194.891 OFFCURVE",
"101.905 -207.977 OFFCURVE",
"87.257 -214.52 CURVE SMOOTH",
"67.53 -223.016 OFFCURVE",
"53.956 -213.641 OFFCURVE",
"49.561 -210.32 CURVE SMOOTH",
"20.46 -189.52 OFFCURVE",
"-20.361 -195.867 OFFCURVE",
"-41.454 -225.164 CURVE SMOOTH",
"-62.548 -254.363 OFFCURVE",
"-55.907 -295.184 OFFCURVE",
"-26.611 -316.18 CURVE SMOOTH",
"3.272 -337.762 OFFCURVE",
"37.061 -348.602 OFFCURVE",
"71.339 -348.602 CURVE SMOOTH"
);
}
);
width = 302.33;
}
);
unicode = 0327;
},
